STARTFONT 2.3
FONT -FontForge-Roboto-Book-R-Normal--24-240-72-72-P-134-ISO10646-1
SIZE 24 72 72  2
FONTBOUNDINGBOX 46 32 -18 -7
COMMENT "Generated by fontforge, http://fontforge.sourceforge.net"
COMMENT "Copyright 2011 Google Inc. All Rights Reserved."
STARTPROPERTIES 42
FOUNDRY "FontForge"
FAMILY_NAME "Roboto"
WEIGHT_NAME "Book"
SLANT "R"
SETWIDTH_NAME "Normal"
ADD_STYLE_NAME ""
PIXEL_SIZE 24
POINT_SIZE 240
RESOLUTION_X 72
RESOLUTION_Y 72
SPACING "P"
AVERAGE_WIDTH 134
CHARSET_REGISTRY "ISO10646"
CHARSET_ENCODING "1"
FONTNAME_REGISTRY ""
CHARSET_COLLECTIONS "ISO8859-2 ISO8859-5 ISO8859-7 ISO8859-9 ISO8859-4 ISO10646-1"
BITS_PER_PIXEL 2
FONT_NAME "Roboto-Regular"
FACE_NAME "Roboto"
COPYRIGHT "Copyright 2011 Google Inc. All Rights Reserved."
FONT_VERSION "2.137; 2017"
FONT_ASCENT 18
FONT_DESCENT 6
UNDERLINE_POSITION -2
UNDERLINE_THICKNESS 2
X_HEIGHT 12
CAP_HEIGHT 16
DEFAULT_CHAR 1
RAW_ASCENT 750
RAW_DESCENT 250
NORM_SPACE 6
RELATIVE_WEIGHT 40
RELATIVE_SETWIDTH 50
SUPERSCRIPT_X 0
SUPERSCRIPT_Y 11
SUPERSCRIPT_SIZE 15
SUBSCRIPT_X 0
SUBSCRIPT_Y 3
SUBSCRIPT_SIZE 15
FIGURE_WIDTH 13
AVG_LOWERCASE_WIDTH 131
AVG_UPPERCASE_WIDTH 158
ENDPROPERTIES
CHARS 1296
STARTCHAR glyph1.dup1
ENCODING 0
SWIDTH 0 0
DWIDTH 0 0
BBX 1 1 0 0
BITMAP
00
ENDCHAR
STARTCHAR uni0002
ENCODING 2
SWIDTH 0 0
DWIDTH 0 0
BBX 1 1 0 0
BITMAP
00
ENDCHAR
STARTCHAR uni000D
ENCODING 13
SWIDTH 247 0
DWIDTH 6 0
BBX 1 1 0 0
BITMAP
00
ENDCHAR
STARTCHAR space
ENCODING 32
SWIDTH 247 0
DWIDTH 6 0
BBX 1 1 0 0
BITMAP
00
ENDCHAR
STARTCHAR exclam
ENCODING 33
SWIDTH 257 0
DWIDTH 6 0
BBX 3 17 2 0
BITMAP
F4
F4
F4
F4
F4
F0
F0
F0
F0
F0
F0
F0
00
00
50
F4
B4
ENDCHAR
STARTCHAR quotedbl
ENCODING 34
SWIDTH 319 0
DWIDTH 8 0
BBX 6 6 1 12
BITMAP
75D0
75D0
75D0
71D0
71D0
71C0
ENDCHAR
STARTCHAR numbersign
ENCODING 35
SWIDTH 615 0
DWIDTH 15 0
BBX 14 17 1 0
BITMAP
002C0B00
002C0E00
00381D00
00741D00
2FFFFFD0
1AFABE90
00E03800
00E07400
01D07400
01D0B000
BFFFFF80
6BEAFA40
0381E000
0381D000
0742C000
0742C000
0B038000
ENDCHAR
STARTCHAR dollar
ENCODING 36
SWIDTH 561 0
DWIDTH 13 0
BBX 12 23 1 -3
BITMAP
001800
003C00
003C00
02BF40
0FFFE0
2F41F4
3D00B8
3C007C
3D0014
2F4000
0BE400
02FF80
001BF0
0001F8
10007C
B8003D
7C007C
3E01F8
1FFFF0
06FE80
003800
003800
001000
ENDCHAR
STARTCHAR percent
ENCODING 37
SWIDTH 732 0
DWIDTH 18 0
BBX 16 17 1 0
BITMAP
1BE00000
3DB80000
B02C0240
B01D0B00
B01D1D00
B02C3800
3DB87400
1BE0E000
0002C000
00074BE0
000E2EBC
002C741D
0074740D
00E0740E
02D0741D
02802E7C
00000BE0
ENDCHAR
STARTCHAR ampersand
ENCODING 38
SWIDTH 621 0
DWIDTH 15 0
BBX 14 17 1 0
BITMAP
01BE0000
0BFFD000
0F42E000
1E00F000
1F01E000
0F47D000
0BEF4000
02FD0000
07F80000
2F7E0380
7D1F4780
B807DB80
B401FF40
B800BE00
7D00BE00
2FEFFF80
06FE43D0
ENDCHAR
STARTCHAR quotesingle
ENCODING 39
SWIDTH 174 0
DWIDTH 4 0
BBX 2 6 1 12
BITMAP
B0
B0
B0
B0
A0
A0
ENDCHAR
STARTCHAR parenleft
ENCODING 40
SWIDTH 341 0
DWIDTH 8 0
BBX 7 25 1 -6
BITMAP
0014
00B8
01E0
03C0
0B40
0F00
1E00
2D00
3C00
7C00
7C00
7800
7800
7800
7800
7C00
3C00
2D00
1E00
0F00
0B40
03C0
01E0
00B8
0014
ENDCHAR
STARTCHAR parenright
ENCODING 41
SWIDTH 347 0
DWIDTH 8 0
BBX 7 25 0 -6
BITMAP
6000
7800
1E00
0B40
0780
02D0
01E0
00F0
00F4
00B4
00B8
00B8
00B8
00B8
00B8
00B4
00F4
00F0
01E0
02D0
0780
0B40
1E00
7800
6000
ENDCHAR
STARTCHAR asterisk
ENCODING 42
SWIDTH 430 0
DWIDTH 10 0
BBX 10 10 0 7
BITMAP
00B000
00B000
00B000
79B6E0
6FFFE0
02F900
03FC00
0B5E00
1E0B40
040200
ENDCHAR
STARTCHAR plus
ENCODING 43
SWIDTH 566 0
DWIDTH 14 0
BBX 12 13 1 1
BITMAP
007C00
007C00
007C00
007C00
007C00
FFFFFE
FFFFFE
007C00
007C00
007C00
007C00
007C00
001400
ENDCHAR
STARTCHAR comma
ENCODING 44
SWIDTH 196 0
DWIDTH 5 0
BBX 4 6 0 -3
BITMAP
19
2E
2E
2D
78
64
ENDCHAR
STARTCHAR hyphen
ENCODING 45
SWIDTH 275 0
DWIDTH 7 0
BBX 6 2 0 6
BITMAP
BFF0
6AA0
ENDCHAR
STARTCHAR period
ENCODING 46
SWIDTH 263 0
DWIDTH 6 0
BBX 4 3 1 0
BITMAP
14
7D
3C
ENDCHAR
STARTCHAR slash
ENCODING 47
SWIDTH 412 0
DWIDTH 10 0
BBX 9 18 0 -1
BITMAP
0003C0
000780
000B40
000E00
001D00
003C00
007800
00B400
00E000
01D000
02C000
078000
0B4000
0F0000
1D0000
2C0000
780000
B40000
ENDCHAR
STARTCHAR zero
ENCODING 48
SWIDTH 561 0
DWIDTH 13 0
BBX 11 17 1 0
BITMAP
02FE40
0FEFE0
2E01F4
3C00B8
78007C
B8003C
B8003C
B8003C
B8003C
B8003C
B8003C
B8003C
78007C
3C00B8
2E01F4
0FEFE0
02FE40
ENDCHAR
STARTCHAR one
ENCODING 49
SWIDTH 561 0
DWIDTH 13 0
BBX 7 17 2 0
BITMAP
0068
1BF8
FEF8
90B8
00B8
00B8
00B8
00B8
00B8
00B8
00B8
00B8
00B8
00B8
00B8
00B8
00B8
ENDCHAR
STARTCHAR two
ENCODING 50
SWIDTH 561 0
DWIDTH 13 0
BBX 12 17 1 0
BITMAP
06FE40
1FEFE0
7D01F4
B800B8
F40078
500078
0000B4
0001E0
0007D0
001F40
003D00
00F800
02E000
0B8000
2E0000
7EAAA9
BFFFFE
ENDCHAR
STARTCHAR three
ENCODING 51
SWIDTH 561 0
DWIDTH 13 0
BBX 11 17 1 0
BITMAP
06FE40
1FEFE0
7D01F4
B800B8
A400B8
0000B4
0006E0
01FF80
01AFD0
0001F4
0000B8
00007C
A4007C
B800B8
7D01F4
2FEFE0
06FE40
ENDCHAR
STARTCHAR four
ENCODING 52
SWIDTH 561 0
DWIDTH 13 0
BBX 13 17 0 0
BITMAP
0000F800
0002F800
0007F800
000FB800
002DB800
0078B800
00F0B800
02D0B800
0780B800
0F00B800
2D00B800
7FFFFFC0
6AAAFE80
0000B800
0000B800
0000B800
0000B800
ENDCHAR
STARTCHAR five
ENCODING 53
SWIDTH 561 0
DWIDTH 13 0
BBX 11 17 2 0
BITMAP
2FFFF0
3FFFF0
3C0000
3C0000
7C0000
780000
7AFE00
7FFFD0
7907E0
0001F4
0000B4
0000B8
A000B4
F400F4
BD02E0
2FFFD0
06FE00
ENDCHAR
STARTCHAR six
ENCODING 54
SWIDTH 561 0
DWIDTH 13 0
BBX 12 17 1 0
BITMAP
001BC0
01FF80
07E400
0F4000
2E0000
3D0000
3CBF80
7FFFF0
7F41F8
7C007C
78003D
78003D
7C003D
3D007C
1F40F8
0BFFE0
01BE40
ENDCHAR
STARTCHAR seven
ENCODING 55
SWIDTH 561 0
DWIDTH 13 0
BBX 12 17 1 0
BITMAP
FFFFFD
AAAABD
00007C
0000B4
0000F0
0002E0
0003C0
000B80
000F40
001E00
003D00
007800
00B400
01F000
02D000
07C000
0B8000
ENDCHAR
STARTCHAR eight
ENCODING 56
SWIDTH 561 0
DWIDTH 13 0
BBX 11 17 1 0
BITMAP
02FE40
1FEFE0
3E01F4
7C00B8
7C0078
3C00B8
2F42F0
07FF80
0BFFD0
2E01F4
7C0078
B8003C
B8003C
78007C
3E01F8
1FEFE0
06FE40
ENDCHAR
STARTCHAR nine
ENCODING 57
SWIDTH 561 0
DWIDTH 13 0
BBX 11 17 1 0
BITMAP
06FE00
1FFFC0
3E02E0
7800F4
B400B8
B40078
B4007C
B800BC
3E02FC
1FEFB8
06F978
0000B4
0000F0
0002E0
001BC0
07FE00
07E400
ENDCHAR
STARTCHAR colon
ENCODING 58
SWIDTH 242 0
DWIDTH 6 0
BBX 4 13 1 0
BITMAP
3C
7D
14
00
00
00
00
00
00
00
14
7D
7C
ENDCHAR
STARTCHAR semicolon
ENCODING 59
SWIDTH 211 0
DWIDTH 5 0
BBX 4 16 0 -3
BITMAP
1E
2F
09
00
00
00
00
00
00
00
19
1E
1E
2D
3C
64
ENDCHAR
STARTCHAR less
ENCODING 60
SWIDTH 508 0
DWIDTH 12 0
BBX 10 11 1 2
BITMAP
000090
000BD0
00BF90
1BF900
BF8000
F80000
BF4000
1BF900
00BF90
000BD0
000090
ENDCHAR
STARTCHAR equal
ENCODING 61
SWIDTH 548 0
DWIDTH 13 0
BBX 11 7 1 5
BITMAP
7FFFF8
7FFFF8
000000
000000
000000
7FFFF8
7FFFF4
ENDCHAR
STARTCHAR greater
ENCODING 62
SWIDTH 522 0
DWIDTH 13 0
BBX 11 11 1 2
BITMAP
600000
7E4000
6FE400
02FE40
001BF4
0001F8
001BF4
02FE40
6FE400
7E4000
600000
ENDCHAR
STARTCHAR question
ENCODING 63
SWIDTH 472 0
DWIDTH 11 0
BBX 10 17 1 0
BITMAP
0BF900
3FFF40
B80BC0
F403D0
5002D0
0003D0
000B80
002F40
00BD00
01F400
02E000
02D000
000000
000000
014000
03E000
02D000
ENDCHAR
STARTCHAR at
ENCODING 64
SWIDTH 897 0
DWIDTH 22 0
BBX 20 22 1 -5
BITMAP
0006BFA000
002FAABE00
00F8000B80
03D00001E0
0B40000074
1E006F8038
2C01FAF02C
380780E01C
740B00E01D
740E00E00D
B01E01E00D
B01D01D01D
B02D01D01C
B42D02D02C
741E07D074
780FEDF6E0
3C06F46F80
1E00000000
0B40000000
03E0000000
00BE9AE000
001AFE8000
ENDCHAR
STARTCHAR A
ENCODING 65
SWIDTH 652 0
DWIDTH 16 0
BBX 15 17 0 0
BITMAP
0007C000
000BD000
000FE000
002EF000
003DB800
007C7C00
00B83D00
00F02E00
01E00F00
02D00B40
07C007C0
0BFFFFD0
0FFFFFE0
1F0001F0
2E0000F4
3D0000B8
7C00003C
ENDCHAR
STARTCHAR B
ENCODING 66
SWIDTH 622 0
DWIDTH 15 0
BBX 12 17 2 0
BITMAP
FFFE80
FFFFF4
F401F8
F4007C
F4007C
F4007C
F401F4
FFFFD0
FEAFE0
F400BC
F4003D
F4002E
F4002E
F4003D
F401BC
FFFFF4
FFFF80
ENDCHAR
STARTCHAR C
ENCODING 67
SWIDTH 650 0
DWIDTH 16 0
BBX 14 17 1 0
BITMAP
006FE400
03FFFE00
0F901F40
2E0007C0
3D0003D0
7C000290
78000000
B8000000
B8000000
B8000000
B8000000
7C000290
3D0003D0
2E0007C0
0F801F40
07FFFE00
00AFE400
ENDCHAR
STARTCHAR D
ENCODING 68
SWIDTH 655 0
DWIDTH 16 0
BBX 13 17 2 0
BITMAP
FFFA0000
FFFFD000
F402F400
F4007D00
F4002E00
F4001F00
F4000F40
F4000F40
F4000F40
F4000F40
F4000F40
F4001F00
F4002E00
F4007D00
F402F400
FFFFD000
FFF90000
ENDCHAR
STARTCHAR E
ENCODING 69
SWIDTH 568 0
DWIDTH 14 0
BBX 11 17 2 0
BITMAP
FFFFF8
FFFFF8
F40000
F40000
F40000
F40000
F40000
FFFFE0
FFFFE0
F40000
F40000
F40000
F40000
F40000
F40000
FFFFF8
FFFFF8
ENDCHAR
STARTCHAR F
ENCODING 70
SWIDTH 552 0
DWIDTH 13 0
BBX 11 17 2 0
BITMAP
FFFFF8
FFFFF4
F40000
F40000
F40000
F40000
F40000
F40000
FFFFD0
FFFFD0
F40000
F40000
F40000
F40000
F40000
F40000
F40000
ENDCHAR
STARTCHAR G
ENCODING 71
SWIDTH 681 0
DWIDTH 16 0
BBX 14 17 1 0
BITMAP
006FE400
07FFFE00
0F901F80
2E0007C0
3D0003D0
7C000040
78000000
B8000000
B8000000
B802FFE0
7802ABE0
7C0002E0
3D0002E0
2F0002E0
0FD007E0
02FFFF80
006FF900
ENDCHAR
STARTCHAR H
ENCODING 72
SWIDTH 712 0
DWIDTH 17 0
BBX 13 17 2 0
BITMAP
F40007C0
F40007C0
F40007C0
F40007C0
F40007C0
F40007C0
F40007C0
FFFFFFC0
FFFFFFC0
F40007C0
F40007C0
F40007C0
F40007C0
F40007C0
F40007C0
F40007C0
F40007C0
ENDCHAR
STARTCHAR I
ENCODING 73
SWIDTH 271 0
DWIDTH 7 0
BBX 3 17 2 0
BITMAP
F4
F4
F4
F4
F4
F4
F4
F4
F4
F4
F4
F4
F4
F4
F4
F4
F4
ENDCHAR
STARTCHAR J
ENCODING 74
SWIDTH 551 0
DWIDTH 13 0
BBX 12 17 0 0
BITMAP
00003D
00003D
00003D
00003D
00003D
00003D
00003D
00003D
00003D
00003D
00003D
00003D
7C003D
7D007C
2E41F8
1FFFF0
02FF80
ENDCHAR
STARTCHAR K
ENCODING 75
SWIDTH 626 0
DWIDTH 15 0
BBX 13 17 2 0
BITMAP
F4002F00
F400BD00
F401F400
F407D000
F41F4000
F47E0000
F4F80000
F7F00000
FFF80000
FF7D0000
FC2F0000
F40B8000
F403E000
F401F400
F400BD00
F4002F00
F4000F80
ENDCHAR
STARTCHAR L
ENCODING 76
SWIDTH 538 0
DWIDTH 13 0
BBX 11 17 2 0
BITMAP
F40000
F40000
F40000
F40000
F40000
F40000
F40000
F40000
F40000
F40000
F40000
F40000
F40000
F40000
F40000
FFFFF4
FFFFF4
ENDCHAR
STARTCHAR M
ENCODING 77
SWIDTH 873 0
DWIDTH 21 0
BBX 17 17 2 0
BITMAP
FC00000FC0
FD00002FC0
FF00003FC0
FF40007FC0
FB8000BBC0
F7C000F7C0
F2E002E7C0
F1F003D7C0
F4F40787C0
F4780B47C0
F43C1F07C0
F42E2E07C0
F41F3C07C0
F40BB807C0
F407F407C0
F403F007C0
F402E007C0
ENDCHAR
STARTCHAR N
ENCODING 78
SWIDTH 712 0
DWIDTH 17 0
BBX 13 17 2 0
BITMAP
F80003C0
FD0003C0
FF0003C0
FF8003C0
FBD003C0
F6E003C0
F4F803C0
F47D03C0
F42E03C0
F40F43C0
F407C3C0
F402E3C0
F400FBC0
F4007FC0
F4002FC0
F4001FC0
F4000BC0
ENDCHAR
STARTCHAR O
ENCODING 79
SWIDTH 687 0
DWIDTH 17 0
BBX 14 17 1 0
BITMAP
006FE400
03FFFD00
0FD02F40
2F0007C0
3D0002E0
7C0001E0
780001F0
B80000F0
B80000F0
B80000F0
780001F0
7C0001E0
3D0002E0
2F0007C0
0F901F40
03FFFE00
006FE400
ENDCHAR
STARTCHAR P
ENCODING 80
SWIDTH 630 0
DWIDTH 15 0
BBX 13 17 2 0
BITMAP
FFFF9000
FFFFF800
F400BD00
F4002F00
F4000F00
F4000F40
F4000F00
F4002F00
F401BD00
FFFFF800
FFFA9000
F4000000
F4000000
F4000000
F4000000
F4000000
F4000000
ENDCHAR
STARTCHAR Q
ENCODING 81
SWIDTH 687 0
DWIDTH 17 0
BBX 14 20 1 -3
BITMAP
006FA000
07FFFD00
0F902F40
2E0007C0
3D0003D0
7C0002E0
B80001F0
B80001F0
B80001F0
B80001F0
B80001F0
7C0002E0
3D0003D0
2E0007C0
0F902F40
07FFFD00
006FFE00
00001FD0
000002E0
00000040
ENDCHAR
STARTCHAR R
ENCODING 82
SWIDTH 615 0
DWIDTH 15 0
BBX 13 17 2 0
BITMAP
FFFE8000
FFFFF400
F401BC00
F4003D00
F4002E00
F4002E00
F4007D00
F401F800
FFFFE000
FFFF8000
F407C000
F403D000
F401F000
F400F800
F4007C00
F4002E00
F4001F40
ENDCHAR
STARTCHAR S
ENCODING 83
SWIDTH 593 0
DWIDTH 14 0
BBX 13 17 1 0
BITMAP
01BF9000
1FFFF800
3E407D00
7C001F00
78000F40
7C000100
3F400000
1FF90000
01FFE000
001BFC00
00007E00
50001F40
F4000F40
B8001F40
7E407E00
1FFFFC00
01BF9000
ENDCHAR
STARTCHAR T
ENCODING 84
SWIDTH 596 0
DWIDTH 14 0
BBX 14 17 0 0
BITMAP
7FFFFFE0
7FFFFFE0
000F4000
000F4000
000F4000
000F4000
000F4000
000F4000
000F4000
000F4000
000F4000
000F4000
000F4000
000F4000
000F4000
000F4000
000F4000
ENDCHAR
STARTCHAR U
ENCODING 85
SWIDTH 648 0
DWIDTH 16 0
BBX 13 17 1 0
BITMAP
7C0007C0
7C0007C0
7C0007C0
7C0007C0
7C0007C0
7C0007C0
7C0007C0
7C0007C0
7C0007C0
7C0007C0
7C0007C0
7C0007C0
7C0007C0
3D000B80
1F402F00
0BFFFD00
01BFA000
ENDCHAR
STARTCHAR V
ENCODING 86
SWIDTH 636 0
DWIDTH 15 0
BBX 15 17 0 0
BITMAP
7C0000B8
3D0000F4
2E0001F0
1F0002E0
0F4003D0
0B8007C0
07C00B80
03D00F40
02E01E00
00F02D00
00B43C00
0078B800
003CF400
002EF000
001FE000
000FD000
000B8000
ENDCHAR
STARTCHAR W
ENCODING 87
SWIDTH 887 0
DWIDTH 21 0
BBX 20 17 1 0
BITMAP
F0007C002E
F400BC002D
B800FD003D
7800FE007C
7C01EF00B8
3D02DB40B4
2D03C780F4
1E078381F0
1F0B42C1E0
0F0F02D2D0
0B4E01E3D0
079E00F3C0
07AD00B780
03FC007F40
02F8003F40
02F4003F00
01F0002E00
ENDCHAR
STARTCHAR X
ENCODING 88
SWIDTH 626 0
DWIDTH 15 0
BBX 13 17 1 0
BITMAP
F8000BC0
7D001F40
2F003E00
0F80BC00
07D1F400
02F2E000
00FFC000
007F4000
003F0000
007F8000
00FBD000
02E2F000
07D0F800
0F807D00
2F002E00
7D001F40
F8000BC0
ENDCHAR
STARTCHAR Y
ENCODING 89
SWIDTH 600 0
DWIDTH 14 0
BBX 14 17 0 0
BITMAP
BC0002F0
3E0003D0
1F000B80
0F801F40
07C02E00
02E07C00
01F0B800
00B9F000
003FD000
002FC000
000F4000
000F4000
000F4000
000F4000
000F4000
000F4000
000F4000
ENDCHAR
STARTCHAR Z
ENCODING 90
SWIDTH 598 0
DWIDTH 14 0
BBX 13 17 1 0
BITMAP
FFFFFF00
BFFFFF00
00003D00
0000B800
0001F000
0007D000
000F8000
002F0000
007D0000
00F80000
02F00000
07D00000
0F800000
2E000000
7C000000
FFFFFF40
FFFFFF40
ENDCHAR
STARTCHAR bracketleft
ENCODING 91
SWIDTH 265 0
DWIDTH 6 0
BBX 5 24 1 -4
BITMAP
7FC0
7E80
7C00
7C00
7C00
7C00
7C00
7C00
7C00
7C00
7C00
7C00
7C00
7C00
7C00
7C00
7C00
7C00
7C00
7C00
7C00
7C00
7E80
7FC0
ENDCHAR
STARTCHAR backslash
ENCODING 92
SWIDTH 410 0
DWIDTH 10 0
BBX 10 18 0 -1
BITMAP
780000
3C0000
2E0000
0F0000
0B4000
078000
03C000
02D000
01F000
00B400
007800
003C00
002D00
001F00
000B40
000780
0003C0
0002D0
ENDCHAR
STARTCHAR bracketright
ENCODING 93
SWIDTH 265 0
DWIDTH 6 0
BBX 5 24 0 -4
BITMAP
FF80
AF80
0B80
0B80
0B80
0B80
0B80
0B80
0B80
0B80
0B80
0B80
0B80
0B80
0B80
0B80
0B80
0B80
0B80
0B80
0B80
0B80
AF80
FF80
ENDCHAR
STARTCHAR asciicircum
ENCODING 94
SWIDTH 417 0
DWIDTH 10 0
BBX 8 8 1 9
BITMAP
03C0
07D0
0FF0
1EB4
2D78
3C3C
B41E
F00F
ENDCHAR
STARTCHAR underscore
ENCODING 95
SWIDTH 451 0
DWIDTH 11 0
BBX 11 2 0 -2
BITMAP
FFFFF8
AAAAA8
ENDCHAR
STARTCHAR grave
ENCODING 96
SWIDTH 309 0
DWIDTH 7 0
BBX 5 3 1 15
BITMAP
B800
2E00
0A40
ENDCHAR
STARTCHAR a
ENCODING 97
SWIDTH 543 0
DWIDTH 13 0
BBX 11 13 1 0
BITMAP
06FE40
1FEFD0
7D02F0
6400F4
0000F4
06FFF4
2FAAF4
7D00F4
B800F4
B800F4
7D07F4
3FFFF4
0BF8B8
ENDCHAR
STARTCHAR b
ENCODING 98
SWIDTH 561 0
DWIDTH 13 0
BBX 12 18 1 0
BITMAP
780000
780000
780000
780000
780000
78BF80
7FFFE0
7E01F8
7C007C
78003D
78003D
78002D
78003D
78003D
7C007C
7E01F4
7FFFE0
78BF80
ENDCHAR
STARTCHAR c
ENCODING 99
SWIDTH 523 0
DWIDTH 13 0
BBX 11 13 1 0
BITMAP
02FE40
1FEFD0
3E01F4
7800B8
B40064
F40000
F40000
F40000
B40014
7C00B8
3E01F4
1FEFD0
02FE40
ENDCHAR
STARTCHAR d
ENCODING 100
SWIDTH 563 0
DWIDTH 14 0
BBX 11 18 1 0
BITMAP
000078
000078
000078
000078
000078
06F978
1FFFF8
3E01F8
7C0078
B80078
F40078
F40078
B40078
B80078
7C00B8
3E01F8
1FFFB8
06F978
ENDCHAR
STARTCHAR e
ENCODING 101
SWIDTH 529 0
DWIDTH 13 0
BBX 11 13 1 0
BITMAP
01BE40
0BEFD0
2E01F0
7800B8
B40078
BFFFF8
FEAAA8
F40000
B80000
7C0010
3E00B4
1FEBE0
02FE40
ENDCHAR
STARTCHAR f
ENCODING 102
SWIDTH 347 0
DWIDTH 8 0
BBX 9 18 0 0
BITMAP
006F40
02FF40
03D000
07C000
07C000
7FFE00
6BE900
07C000
07C000
07C000
07C000
07C000
07C000
07C000
07C000
07C000
07C000
07C000
ENDCHAR
STARTCHAR g
ENCODING 103
SWIDTH 561 0
DWIDTH 13 0
BBX 11 18 1 -5
BITMAP
06F97C
1FFFBC
3E01FC
7C007C
B8007C
B4007C
F4007C
B4007C
B8007C
7C007C
3E01FC
1FFFFC
06F97C
000078
1000B8
3D02F0
1FEFD0
06FE40
ENDCHAR
STARTCHAR h
ENCODING 104
SWIDTH 550 0
DWIDTH 13 0
BBX 11 18 1 0
BITMAP
780000
780000
780000
780000
780000
78BF80
7EFFE0
7F41F4
7C00B8
7800B8
7800B8
7800B8
7800B8
7800B8
7800B8
7800B8
7800B8
7800B8
ENDCHAR
STARTCHAR i
ENCODING 105
SWIDTH 242 0
DWIDTH 6 0
BBX 3 18 1 0
BITMAP
14
7C
3C
00
00
7C
7C
7C
7C
7C
7C
7C
7C
7C
7C
7C
7C
7C
ENDCHAR
STARTCHAR j
ENCODING 106
SWIDTH 238 0
DWIDTH 6 0
BBX 5 23 -1 -5
BITMAP
0140
07C0
0780
0000
0000
07C0
07C0
07C0
07C0
07C0
07C0
07C0
07C0
07C0
07C0
07C0
07C0
07C0
07C0
07C0
0B80
BF40
BD00
ENDCHAR
STARTCHAR k
ENCODING 107
SWIDTH 506 0
DWIDTH 12 0
BBX 11 18 1 0
BITMAP
780000
780000
780000
780000
780000
7802F4
7807D0
781F40
787D00
79F400
7FF000
7FF400
7E7D00
7C2E00
780F80
7807D0
7802F0
7800B8
ENDCHAR
STARTCHAR l
ENCODING 108
SWIDTH 242 0
DWIDTH 6 0
BBX 3 18 1 0
BITMAP
7C
7C
7C
7C
7C
7C
7C
7C
7C
7C
7C
7C
7C
7C
7C
7C
7C
7C
ENDCHAR
STARTCHAR m
ENCODING 109
SWIDTH 876 0
DWIDTH 21 0
BBX 19 13 1 0
BITMAP
78BF81BF40
7FFFE7FFE0
7E01FE02F0
7C00BC00F4
7800B800B4
7800B800B4
7800B800B4
7800B800B4
7800B800B4
7800B800B4
7800B800B4
7800B800B4
7800B800B4
ENDCHAR
STARTCHAR n
ENCODING 110
SWIDTH 551 0
DWIDTH 13 0
BBX 11 13 1 0
BITMAP
78BF80
7AFFE0
7F41F4
7C00B8
7800B8
7800B8
7800B8
7800B8
7800B8
7800B8
7800B8
7800B8
7800B8
ENDCHAR
STARTCHAR o
ENCODING 111
SWIDTH 570 0
DWIDTH 14 0
BBX 12 13 1 0
BITMAP
01BE40
0FEFE0
2E01F8
7C007C
B8003D
F4002E
F4002E
F4002E
B8003D
7C007C
3E01F8
0FEFE0
02FE40
ENDCHAR
STARTCHAR p
ENCODING 112
SWIDTH 561 0
DWIDTH 13 0
BBX 12 18 1 -5
BITMAP
78BF80
7FFFE0
7E01F4
7C00BC
78003D
78003D
78003D
78003D
78003D
7C007C
7E01F4
7FEFE0
78BF80
780000
780000
780000
780000
780000
ENDCHAR
STARTCHAR q
ENCODING 113
SWIDTH 568 0
DWIDTH 14 0
BBX 11 18 1 -5
BITMAP
06F978
1FEFF8
3E01F8
7C0078
B80078
F40078
F40078
F40078
B80078
7C0078
3E01F8
1FEFF8
06F978
000078
000078
000078
000078
000078
ENDCHAR
STARTCHAR r
ENCODING 114
SWIDTH 338 0
DWIDTH 8 0
BBX 7 13 1 0
BITMAP
79B8
7FF8
7F40
7C00
7800
7800
7800
7800
7800
7800
7800
7800
7800
ENDCHAR
STARTCHAR s
ENCODING 115
SWIDTH 515 0
DWIDTH 12 0
BBX 10 13 1 0
BITMAP
06FE00
2FEFC0
7D02E0
7801F0
7D0000
2FA400
07FF40
001BE0
0001F0
B400F0
7D02F0
2FEFD0
06FE40
ENDCHAR
STARTCHAR t
ENCODING 116
SWIDTH 326 0
DWIDTH 8 0
BBX 7 16 0 0
BITMAP
0B80
0B80
0B80
FFFC
AFE8
0B80
0B80
0B80
0B80
0B80
0B80
0B80
0B80
0780
07FC
01FC
ENDCHAR
STARTCHAR u
ENCODING 117
SWIDTH 551 0
DWIDTH 13 0
BBX 11 13 1 0
BITMAP
7800B8
7800B8
7800B8
7800B8
7800B8
7800B8
7800B8
7800B8
7800B8
7C00B8
3E02F8
2FFFF8
07F9B8
ENDCHAR
STARTCHAR v
ENCODING 118
SWIDTH 484 0
DWIDTH 12 0
BBX 11 13 0 0
BITMAP
78007C
3C00B8
2D00B4
1E00F0
0F01E0
0B42D0
0783C0
03C780
02DB40
01EF00
00FE00
00BC00
007800
ENDCHAR
STARTCHAR w
ENCODING 119
SWIDTH 751 0
DWIDTH 18 0
BBX 18 13 0 0
BITMAP
7800F002D0
3C01F403C0
2D02F80780
2E03FC0B40
1E07AD0B40
0F0B5E0F00
0B4F0E1E00
079E0B2D00
03DD076C00
02FC03B800
02F802F400
01F401F400
00F000F000
ENDCHAR
STARTCHAR x
ENCODING 120
SWIDTH 495 0
DWIDTH 12 0
BBX 11 13 0 0
BITMAP
3D00BC
1F01F4
0B82E0
03D7C0
01EF40
00BE00
007D00
00FE00
02EB40
07C7C0
0F82E0
2F00F4
7D007C
ENDCHAR
STARTCHAR y
ENCODING 121
SWIDTH 473 0
DWIDTH 11 0
BBX 11 18 0 -5
BITMAP
B8007C
7C00B8
3D00F4
1E01F0
0F02E0
0B43D0
078780
03CB40
02DF00
01FE00
00FD00
00BC00
007800
00B400
00F000
02E000
3FC000
3E0000
ENDCHAR
STARTCHAR z
ENCODING 122
SWIDTH 495 0
DWIDTH 12 0
BBX 10 13 1 0
BITMAP
FFFFE0
AAABE0
0007C0
001F40
003E00
00B800
01F400
03D000
0B8000
2F0000
7D0000
FEAAA0
FFFFF0
ENDCHAR
STARTCHAR braceleft
ENCODING 123
SWIDTH 338 0
DWIDTH 8 0
BBX 8 23 0 -4
BITMAP
000A
007E
00F4
01E0
02E0
02D0
02D0
02D0
02D0
03D0
0B80
7E00
6F40
07C0
03D0
02D0
02D0
02D0
02D0
02E0
00F4
007D
001A
ENDCHAR
STARTCHAR bar
ENCODING 124
SWIDTH 243 0
DWIDTH 6 0
BBX 2 20 2 -3
BITMAP
E0
E0
E0
E0
E0
E0
E0
E0
E0
E0
E0
E0
E0
E0
E0
E0
E0
E0
E0
E0
ENDCHAR
STARTCHAR braceright
ENCODING 125
SWIDTH 338 0
DWIDTH 8 0
BBX 8 23 0 -4
BITMAP
6400
7D00
1F00
0B80
0780
07C0
07C0
07C0
07C0
03C0
02E0
00BD
01FD
03D0
07C0
07C0
07C0
07C0
0780
0B80
0F40
7D00
6400
ENDCHAR
STARTCHAR asciitilde
ENCODING 126
SWIDTH 680 0
DWIDTH 16 0
BBX 14 5 1 4
BITMAP
07E400A0
2FFE01E0
3C1F82D0
7807FF80
6400BE00
ENDCHAR
STARTCHAR uni00A0
ENCODING 160
SWIDTH 247 0
DWIDTH 6 0
BBX 1 1 0 0
BITMAP
00
ENDCHAR
STARTCHAR exclamdown
ENCODING 161
SWIDTH 243 0
DWIDTH 6 0
BBX 3 17 1 -4
BITMAP
38
7C
14
00
00
3C
3C
3C
3C
3C
3C
3C
3C
3C
3C
3C
3C
ENDCHAR
STARTCHAR cent
ENCODING 162
SWIDTH 546 0
DWIDTH 13 0
BBX 11 19 1 -3
BITMAP
006800
007C00
007C00
02FE40
0FEBE0
2E01F4
7C0078
B80024
B40000
B40000
B40000
B80000
7C0078
2E00F4
1FEBE0
02FE40
007C00
007C00
006800
ENDCHAR
STARTCHAR sterling
ENCODING 163
SWIDTH 581 0
DWIDTH 14 0
BBX 13 17 1 0
BITMAP
006F9000
02FFF800
0BD07D00
0F402E00
0F401900
0F000000
0F000000
0F400000
FFFF0000
BFFE0000
0F400000
0F400000
0F400000
0F400000
1F000000
BFFFFF40
FFFFFF40
ENDCHAR
STARTCHAR currency
ENCODING 164
SWIDTH 712 0
DWIDTH 17 0
BBX 15 15 1 0
BITMAP
386FE474
7EFFFEF8
2FE41FE0
1F4003E0
2D0001F0
3C0000B4
780000B8
78000078
780000B8
3C0000B4
2D0001F0
1F4003E0
2FE41FF4
BEFFFEF8
246FE420
ENDCHAR
STARTCHAR yen
ENCODING 165
SWIDTH 524 0
DWIDTH 13 0
BBX 13 17 0 0
BITMAP
BC001F40
3D002E00
2F007D00
0F40B800
0B81F400
07D2E000
02E3D000
01FBC000
00BF4000
2FFFFD00
157E5400
003D0000
2FFFFD00
157E5400
003D0000
003D0000
003D0000
ENDCHAR
STARTCHAR brokenbar
ENCODING 166
SWIDTH 239 0
DWIDTH 6 0
BBX 3 20 1 -3
BITMAP
7C
7C
7C
7C
7C
7C
7C
7C
7C
00
00
7C
7C
7C
7C
7C
7C
7C
7C
7C
ENDCHAR
STARTCHAR section
ENCODING 167
SWIDTH 613 0
DWIDTH 15 0
BBX 13 23 1 -6
BITMAP
02BF9000
1FFBF800
3E007E00
7C001F00
7C000F00
7D000000
2F800000
0FFE4000
3EBFF400
B806FD00
B4002F00
B4000F40
BD000B40
3F901F00
0BFFBD00
006FF800
0001FD00
00002E00
F4001F00
B8001E00
7E007D00
1FFBF800
06FF9000
ENDCHAR
STARTCHAR dieresis
ENCODING 168
SWIDTH 417 0
DWIDTH 10 0
BBX 8 3 1 15
BITMAP
1004
B82E
B41D
ENDCHAR
STARTCHAR copyright
ENCODING 169
SWIDTH 785 0
DWIDTH 19 0
BBX 17 17 1 0
BITMAP
001BF90000
01FA6BD000
078001B400
1D0BF42C00
382EBD0E00
70780F0700
A0B00B0340
E0B0000280
D0B0000280
E0B0000280
A0B00B0340
70740F0700
382EAD0E00
1D0BE42C00
078001B400
01FA6BD000
001BF90000
ENDCHAR
STARTCHAR ordfeminine
ENCODING 170
SWIDTH 446 0
DWIDTH 11 0
BBX 8 9 1 8
BITMAP
0BF4
2FBD
3C1E
000F
1BFF
3E5F
780F
3EBF
1BDA
ENDCHAR
STARTCHAR guillemotleft
ENCODING 171
SWIDTH 469 0
DWIDTH 11 0
BBX 9 9 1 2
BITMAP
02C280
0B4B40
1E1E00
3C7800
B4B400
3C7800
1E1D00
0B4B40
02C280
ENDCHAR
STARTCHAR logicalnot
ENCODING 172
SWIDTH 553 0
DWIDTH 13 0
BBX 11 5 1 4
BITMAP
BFFFF4
7FFFF4
0000F4
0000F4
0000F4
ENDCHAR
STARTCHAR uni00AD
ENCODING 173
SWIDTH 275 0
DWIDTH 7 0
BBX 6 2 0 6
BITMAP
BFF0
6AA0
ENDCHAR
STARTCHAR registered
ENCODING 174
SWIDTH 786 0
DWIDTH 19 0
BBX 17 17 1 0
BITMAP
001BF90000
01FA6BD000
078001B400
1D00002C00
383FF80E00
7039AE0700
A0380B0340
E0381E0280
D03FFC0280
E03AAE0280
A0380B0340
70380B0700
38380B0E00
1D00002C00
078001B400
01FA6BD000
001BF90000
ENDCHAR
STARTCHAR macron
ENCODING 175
SWIDTH 458 0
DWIDTH 11 0
BBX 9 2 1 15
BITMAP
7FFF80
6AAA40
ENDCHAR
STARTCHAR degree
ENCODING 176
SWIDTH 373 0
DWIDTH 9 0
BBX 7 7 1 10
BITMAP
0B80
3EF0
7474
7034
7874
2FE0
0540
ENDCHAR
STARTCHAR plusminus
ENCODING 177
SWIDTH 534 0
DWIDTH 13 0
BBX 11 15 1 0
BITMAP
006800
007800
007800
007800
007800
FFFFFC
AAFEA8
007800
007800
007800
007800
006400
000000
6AAAA4
7FFFF4
ENDCHAR
STARTCHAR uni00B2
ENCODING 178
SWIDTH 366 0
DWIDTH 9 0
BBX 7 9 1 8
BITMAP
2F90
BAF4
E078
00B4
01E0
0B80
2E00
BAA8
FFFC
ENDCHAR
STARTCHAR uni00B3
ENCODING 179
SWIDTH 366 0
DWIDTH 9 0
BBX 7 9 1 8
BITMAP
2F90
FAF4
5078
00B4
0FE0
05B4
9038
FAB8
2FD0
ENDCHAR
STARTCHAR acute
ENCODING 180
SWIDTH 313 0
DWIDTH 8 0
BBX 5 3 1 15
BITMAP
0B80
2E00
6800
ENDCHAR
STARTCHAR mu
ENCODING 181
SWIDTH 566 0
DWIDTH 14 0
BBX 11 18 1 -5
BITMAP
7C0078
7C0078
7C0078
7C0078
7C0078
7C0078
7C0078
7C0078
7C0078
7D0078
7E01F8
7FEFF8
7DFE68
7C0000
7C0000
7C0000
7C0000
7C0000
ENDCHAR
STARTCHAR paragraph
ENCODING 182
SWIDTH 488 0
DWIDTH 12 0
BBX 10 17 0 0
BITMAP
01BFE0
0BFFE0
1FFFE0
3FFFE0
3FFFE0
7FFFE0
3FFFE0
3FFFE0
1FFFE0
0BFFE0
01BFE0
0001E0
0001E0
0001E0
0001E0
0001E0
0001E0
ENDCHAR
STARTCHAR periodcentered
ENCODING 183
SWIDTH 260 0
DWIDTH 6 0
BBX 4 3 1 7
BITMAP
3C
7D
18
ENDCHAR
STARTCHAR cedilla
ENCODING 184
SWIDTH 247 0
DWIDTH 6 0
BBX 4 5 1 -5
BITMAP
74
6E
0B
5E
B8
ENDCHAR
STARTCHAR uni00B9
ENCODING 185
SWIDTH 366 0
DWIDTH 9 0
BBX 5 9 1 8
BITMAP
1680
BF80
5380
0380
0380
0380
0380
0380
0380
ENDCHAR
STARTCHAR ordmasculine
ENCODING 186
SWIDTH 454 0
DWIDTH 11 0
BBX 9 9 1 8
BITMAP
0BF400
2FBE00
780F40
B40B40
B40740
B40B40
780F40
2FBE00
0BF800
ENDCHAR
STARTCHAR guillemotright
ENCODING 187
SWIDTH 468 0
DWIDTH 11 0
BBX 10 9 1 2
BITMAP
747400
2C2D00
0E0F00
078780
03D3D0
078780
0E0F00
2C2D00
747400
ENDCHAR
STARTCHAR onequarter
ENCODING 188
SWIDTH 732 0
DWIDTH 18 0
BBX 16 17 1 0
BITMAP
1B400000
FF400000
47400240
07400B00
07401D00
07403800
0740B400
0741E000
0742C0B4
000741F4
000E07F4
002C0E74
00742C74
00E07474
02C0BFFE
02406AB9
00000074
ENDCHAR
STARTCHAR onehalf
ENCODING 189
SWIDTH 775 0
DWIDTH 19 0
BBX 17 17 1 0
BITMAP
1B40000000
FF40000000
4B400A0000
0B401E0000
0B402C0000
0B40740000
0B40E00000
0B42C00000
0B4746F800
000E1FAE00
002C2C0F00
0078001E00
00B0007D00
01D001F400
0380078000
06001FAA40
00002FFF40
ENDCHAR
STARTCHAR threequarters
ENCODING 190
SWIDTH 777 0
DWIDTH 19 0
BBX 17 17 1 0
BITMAP
1BE4000000
7EBC000000
002C00A000
07F401E000
01BC02C000
002D074000
B42D0E0000
7EBC2C0000
1BE0742E00
0000E07E00
0002C0FE00
000782DE00
000B075E00
001D1D1E00
00382FFF80
00601AAE40
0000001E00
ENDCHAR
STARTCHAR questiondown
ENCODING 191
SWIDTH 473 0
DWIDTH 11 0
BBX 11 18 0 -5
BITMAP
007800
00BC00
001400
000000
000000
007800
007800
00F400
02F000
0BD000
1F4000
2E0000
3C0000
7C0050
3D00F4
2E02F0
1FFFD0
02FE40
ENDCHAR
STARTCHAR Agrave
ENCODING 192
SWIDTH 652 0
DWIDTH 16 0
BBX 15 21 0 0
BITMAP
007D0000
001F4000
00078000
00000000
0007C000
000BD000
000FE000
002EF000
003DB800
007C7C00
00B83D00
00F02E00
01E00F00
02D00B40
07C007C0
0BFFFFD0
0FFFFFE0
1F0001F0
2E0000F4
3D0000B8
7C00003C
ENDCHAR
STARTCHAR Aacute
ENCODING 193
SWIDTH 652 0
DWIDTH 16 0
BBX 15 21 0 0
BITMAP
0000BC00
0001F000
00028000
00000000
0007C000
000BD000
000FE000
002EF000
003DB800
007C7C00
00B83D00
00F02E00
01E00F00
02D00B40
07C007C0
0BFFFFD0
0FFFFFE0
1F0001F0
2E0000F4
3D0000B8
7C00003C
ENDCHAR
STARTCHAR Acircumflex
ENCODING 194
SWIDTH 652 0
DWIDTH 16 0
BBX 15 21 0 0
BITMAP
0007D000
002EB400
00682800
00000000
0007C000
000BD000
000FE000
002EF000
003DB800
007C7C00
00B83D00
00F02E00
01E00F00
02D00B40
07C007C0
0BFFFFD0
0FFFFFE0
1F0001F0
2E0000F4
3D0000B8
7C00003C
ENDCHAR
STARTCHAR Atilde
ENCODING 195
SWIDTH 652 0
DWIDTH 16 0
BBX 15 21 0 0
BITMAP
00290600
00BFEE00
00D1B800
00000000
0007C000
000BD000
000FE000
002EF000
003DB800
007C7C00
00B83D00
00F02E00
01E00F00
02D00B40
07C007C0
0BFFFFD0
0FFFFFE0
1F0001F0
2E0000F4
3D0000B8
7C00003C
ENDCHAR
STARTCHAR Adieresis
ENCODING 196
SWIDTH 652 0
DWIDTH 16 0
BBX 15 21 0 0
BITMAP
00500400
00B82E00
00B42D00
00000000
0007C000
000BD000
000FE000
002EF000
003DB800
007C7C00
00B83D00
00F02E00
01E00F00
02D00B40
07C007C0
0BFFFFD0
0FFFFFE0
1F0001F0
2E0000F4
3D0000B8
7C00003C
ENDCHAR
STARTCHAR Aring
ENCODING 197
SWIDTH 652 0
DWIDTH 16 0
BBX 15 23 0 0
BITMAP
000BD000
001D7000
00282400
001C7000
000BD000
00000000
0007C000
000BD000
000FE000
002EF000
003DB800
007C7C00
00B83D00
00F02E00
01E00F00
02D00B40
07C007C0
0BFFFFD0
0FFFFFE0
1F0001F0
2E0000F4
3D0000B8
7C00003C
ENDCHAR
STARTCHAR AE
ENCODING 198
SWIDTH 934 0
DWIDTH 22 0
BBX 22 17 0 0
BITMAP
00001FFFFFD0
00002FEAAA90
00007FD00000
0000F7D00000
0002E3D00000
0007D2D00000
000B82D00000
001F02FFFF40
003E02FAAA40
00BC02E00000
01F402E00000
02FFFFE00000
07FFFFE00000
0F8002E00000
2F0001E00000
7D0001FAAAA0
F80001FFFFF0
ENDCHAR
STARTCHAR Ccedilla
ENCODING 199
SWIDTH 650 0
DWIDTH 16 0
BBX 14 22 1 -5
BITMAP
006FE400
03FFFE00
0F901F40
2E0007C0
3D0003D0
7C000290
78000000
B8000000
B8000000
B8000000
B8000000
7C000290
3D0003D0
2E0007C0
0F801F40
07FFFE00
00AFE400
000E0000
000BD000
0001D000
0006D000
000E4000
ENDCHAR
STARTCHAR Egrave
ENCODING 200
SWIDTH 568 0
DWIDTH 14 0
BBX 11 21 2 0
BITMAP
0B8000
02E000
00A400
000000
FFFFF8
FFFFF8
F40000
F40000
F40000
F40000
F40000
FFFFE0
FFFFE0
F40000
F40000
F40000
F40000
F40000
F40000
FFFFF8
FFFFF8
ENDCHAR
STARTCHAR Eacute
ENCODING 201
SWIDTH 568 0
DWIDTH 14 0
BBX 11 21 2 0
BITMAP
001F40
003D00
007400
000000
FFFFF8
FFFFF8
F40000
F40000
F40000
F40000
F40000
FFFFE0
FFFFE0
F40000
F40000
F40000
F40000
F40000
F40000
FFFFF8
FFFFF8
ENDCHAR
STARTCHAR Ecircumflex
ENCODING 202
SWIDTH 568 0
DWIDTH 14 0
BBX 11 21 2 0
BITMAP
00F800
07EE00
0B0740
000000
FFFFF8
FFFFF8
F40000
F40000
F40000
F40000
F40000
FFFFE0
FFFFE0
F40000
F40000
F40000
F40000
F40000
F40000
FFFFF8
FFFFF8
ENDCHAR
STARTCHAR Edieresis
ENCODING 203
SWIDTH 568 0
DWIDTH 14 0
BBX 11 21 2 0
BITMAP
050140
1F07C0
1E0780
000000
FFFFF8
FFFFF8
F40000
F40000
F40000
F40000
F40000
FFFFE0
FFFFE0
F40000
F40000
F40000
F40000
F40000
F40000
FFFFF8
FFFFF8
ENDCHAR
STARTCHAR Igrave
ENCODING 204
SWIDTH 271 0
DWIDTH 7 0
BBX 5 21 0 0
BITMAP
B800
2E00
0A40
0000
0F40
0F40
0F40
0F40
0F40
0F40
0F40
0F40
0F40
0F40
0F40
0F40
0F40
0F40
0F40
0F40
0F40
ENDCHAR
STARTCHAR Iacute
ENCODING 205
SWIDTH 271 0
DWIDTH 7 0
BBX 5 21 2 0
BITMAP
1F40
3D00
7400
0000
F400
F400
F400
F400
F400
F400
F400
F400
F400
F400
F400
F400
F400
F400
F400
F400
F400
ENDCHAR
STARTCHAR Icircumflex
ENCODING 206
SWIDTH 271 0
DWIDTH 7 0
BBX 7 21 0 0
BITMAP
0F80
7EE0
B074
0000
0F40
0F40
0F40
0F40
0F40
0F40
0F40
0F40
0F40
0F40
0F40
0F40
0F40
0F40
0F40
0F40
0F40
ENDCHAR
STARTCHAR Idieresis
ENCODING 207
SWIDTH 271 0
DWIDTH 7 0
BBX 8 21 -1 0
BITMAP
1405
7C1F
781E
0000
03D0
03D0
03D0
03D0
03D0
03D0
03D0
03D0
03D0
03D0
03D0
03D0
03D0
03D0
03D0
03D0
03D0
ENDCHAR
STARTCHAR Eth
ENCODING 208
SWIDTH 670 0
DWIDTH 16 0
BBX 15 17 0 0
BITMAP
0BFFE400
0BFFFE00
0B801F80
0B8003E0
0B8001F0
0B8000F4
0B8000B8
FFFE00B8
AFE900B8
0B8000B8
0B8000B8
0B8000F4
0B8001F0
0B8003E0
0B801F80
0BFFFE00
0BFFE400
ENDCHAR
STARTCHAR Ntilde
ENCODING 209
SWIDTH 712 0
DWIDTH 17 0
BBX 13 21 2 0
BITMAP
01A02400
07FEB400
0B0BE000
00000000
F80003C0
FD0003C0
FF0003C0
FF8003C0
FBD003C0
F6E003C0
F4F803C0
F47D03C0
F42E03C0
F40F43C0
F407C3C0
F402E3C0
F400FBC0
F4007FC0
F4002FC0
F4001FC0
F4000BC0
ENDCHAR
STARTCHAR Ograve
ENCODING 210
SWIDTH 687 0
DWIDTH 17 0
BBX 14 21 1 0
BITMAP
00B80000
002E0000
000A4000
00000000
006FE400
03FFFD00
0FD02F40
2F0007C0
3D0002E0
7C0001E0
780001F0
B80000F0
B80000F0
B80000F0
780001F0
7C0001E0
3D0002E0
2F0007C0
0F901F40
03FFFE00
006FE400
ENDCHAR
STARTCHAR Oacute
ENCODING 211
SWIDTH 687 0
DWIDTH 17 0
BBX 14 21 1 0
BITMAP
0001F400
0003D000
00074000
00000000
006FE400
03FFFD00
0FD02F40
2F0007C0
3D0002E0
7C0001E0
780001F0
B80000F0
B80000F0
B80000F0
780001F0
7C0001E0
3D0002E0
2F0007C0
0F901F40
03FFFE00
006FE400
ENDCHAR
STARTCHAR Ocircumflex
ENCODING 212
SWIDTH 687 0
DWIDTH 17 0
BBX 14 21 1 0
BITMAP
000F8000
007EE000
00B07400
00000000
006FE400
03FFFD00
0FD02F40
2F0007C0
3D0002E0
7C0001E0
780001F0
B80000F0
B80000F0
B80000F0
780001F0
7C0001E0
3D0002E0
2F0007C0
0F901F40
03FFFE00
006FE400
ENDCHAR
STARTCHAR Otilde
ENCODING 213
SWIDTH 687 0
DWIDTH 17 0
BBX 14 21 1 0
BITMAP
00640900
01FFBC00
0282F400
00000000
006FE400
03FFFD00
0FD02F40
2F0007C0
3D0002E0
7C0001E0
780001F0
B80000F0
B80000F0
B80000F0
780001F0
7C0001E0
3D0002E0
2F0007C0
0F901F40
03FFFE00
006FE400
ENDCHAR
STARTCHAR Odieresis
ENCODING 214
SWIDTH 687 0
DWIDTH 17 0
BBX 14 21 1 0
BITMAP
00501400
01F07C00
01E07800
00000000
006FE400
03FFFD00
0FD02F40
2F0007C0
3D0002E0
7C0001E0
780001F0
B80000F0
B80000F0
B80000F0
780001F0
7C0001E0
3D0002E0
2F0007C0
0F901F40
03FFFE00
006FE400
ENDCHAR
STARTCHAR multiply
ENCODING 215
SWIDTH 533 0
DWIDTH 13 0
BBX 11 11 1 2
BITMAP
200060
B801F4
3E07E0
0F9F80
03FE00
01FC00
03FE00
0F9F80
3E07E0
B801F4
200060
ENDCHAR
STARTCHAR Oslash
ENCODING 216
SWIDTH 687 0
DWIDTH 17 0
BBX 14 19 1 -1
BITMAP
00000050
006FE4E0
03FFFEC0
0FD01F80
2F000FC0
3D002FE0
7C0079E0
7800B1F0
B801D0F0
B80380F0
B80B00F0
781D01F0
7C3801E0
3DB002E0
2FD007C0
0FD01F40
0BFFFE00
1D6FE400
28000000
ENDCHAR
STARTCHAR Ugrave
ENCODING 217
SWIDTH 648 0
DWIDTH 16 0
BBX 13 21 1 0
BITMAP
01F40000
007D0000
001E0000
00000000
7C0007C0
7C0007C0
7C0007C0
7C0007C0
7C0007C0
7C0007C0
7C0007C0
7C0007C0
7C0007C0
7C0007C0
7C0007C0
7C0007C0
7C0007C0
3D000B80
1F402F00
0BFFFD00
01BFA000
ENDCHAR
STARTCHAR Uacute
ENCODING 218
SWIDTH 648 0
DWIDTH 16 0
BBX 13 21 1 0
BITMAP
0002F000
0007C000
000A0000
00000000
7C0007C0
7C0007C0
7C0007C0
7C0007C0
7C0007C0
7C0007C0
7C0007C0
7C0007C0
7C0007C0
7C0007C0
7C0007C0
7C0007C0
7C0007C0
3D000B80
1F402F00
0BFFFD00
01BFA000
ENDCHAR
STARTCHAR Ucircumflex
ENCODING 219
SWIDTH 648 0
DWIDTH 16 0
BBX 13 21 1 0
BITMAP
001F4000
00BAD000
01E0A000
00000000
7C0007C0
7C0007C0
7C0007C0
7C0007C0
7C0007C0
7C0007C0
7C0007C0
7C0007C0
7C0007C0
7C0007C0
7C0007C0
7C0007C0
7C0007C0
3D000B80
1F402F00
0BFFFD00
01BFA000
ENDCHAR
STARTCHAR Udieresis
ENCODING 220
SWIDTH 648 0
DWIDTH 16 0
BBX 13 21 1 0
BITMAP
01401000
03E0F800
02D0B400
00000000
7C0007C0
7C0007C0
7C0007C0
7C0007C0
7C0007C0
7C0007C0
7C0007C0
7C0007C0
7C0007C0
7C0007C0
7C0007C0
7C0007C0
7C0007C0
3D000B80
1F402F00
0BFFFD00
01BFA000
ENDCHAR
STARTCHAR Yacute
ENCODING 221
SWIDTH 600 0
DWIDTH 14 0
BBX 14 21 0 0
BITMAP
0001F400
0003D000
000B4000
00000000
BC0002F0
3E0003D0
1F000B80
0F801F40
07C02E00
02E07C00
01F0B800
00B9F000
003FD000
002FC000
000F4000
000F4000
000F4000
000F4000
000F4000
000F4000
000F4000
ENDCHAR
STARTCHAR Thorn
ENCODING 222
SWIDTH 590 0
DWIDTH 14 0
BBX 11 17 2 0
BITMAP
F00000
F00000
F00000
FFFE40
FAAFE0
F001F4
F000B8
F0007C
F0003C
F0007C
F000B8
F006F4
FFFFD0
FAA900
F00000
F00000
F00000
ENDCHAR
STARTCHAR germandbls
ENCODING 223
SWIDTH 594 0
DWIDTH 14 0
BBX 13 18 1 0
BITMAP
06FE0000
1FEFC000
3E03D000
7C01E000
7C01E000
7802D000
7807C000
780F4000
780F4000
780B8000
7807E000
7801F800
78003E00
78000F00
78000F40
78501F00
78BEFD00
786FE400
ENDCHAR
STARTCHAR agrave
ENCODING 224
SWIDTH 543 0
DWIDTH 13 0
BBX 11 18 1 0
BITMAP
07D000
01F400
007800
000000
000000
06FE40
1FEFD0
7D02F0
6400F4
0000F4
06FFF4
2FAAF4
7D00F4
B800F4
B800F4
7D07F4
3FFFF4
0BF8B8
ENDCHAR
STARTCHAR aacute
ENCODING 225
SWIDTH 543 0
DWIDTH 13 0
BBX 11 18 1 0
BITMAP
000BC0
001E00
002800
000000
000000
06FE40
1FEFD0
7D02F0
6400F4
0000F4
06FFF4
2FAAF4
7D00F4
B800F4
B800F4
7D07F4
3FFFF4
0BF8B8
ENDCHAR
STARTCHAR acircumflex
ENCODING 226
SWIDTH 543 0
DWIDTH 13 0
BBX 11 18 1 0
BITMAP
007D00
02EB40
078280
000000
000000
06FE40
1FEFD0
7D02F0
6400F4
0000F4
06FFF4
2FAAF4
7D00F4
B800F4
B800F4
7D07F4
3FFFF4
0BF8B8
ENDCHAR
STARTCHAR atilde
ENCODING 227
SWIDTH 543 0
DWIDTH 13 0
BBX 11 18 1 0
BITMAP
0290A0
0FFEE0
1D1B80
000000
000000
06FE40
1FEFD0
7D02F0
6400F4
0000F4
06FFF4
2FAAF4
7D00F4
B800F4
B800F4
7D07F4
3FFFF4
0BF8B8
ENDCHAR
STARTCHAR adieresis
ENCODING 228
SWIDTH 543 0
DWIDTH 13 0
BBX 11 18 1 0
BITMAP
050040
0F83E0
0B42D0
000000
000000
06FE40
1FEFD0
7D02F0
6400F4
0000F4
06FFF4
2FAAF4
7D00F4
B800F4
B800F4
7D07F4
3FFFF4
0BF8B8
ENDCHAR
STARTCHAR aring
ENCODING 229
SWIDTH 543 0
DWIDTH 13 0
BBX 11 19 1 0
BITMAP
00BD00
01C700
024340
018700
00BD00
000000
06FE40
1FEFD0
7D02F0
6400F4
0000F4
06FFF4
2FAAF4
7D00F4
B800F4
B800F4
7D07F4
3FFFF4
0BF8B8
ENDCHAR
STARTCHAR ae
ENCODING 230
SWIDTH 844 0
DWIDTH 20 0
BBX 19 13 1 0
BITMAP
06FE06FE00
3FEFDFEFD0
BD02FD02E0
6401F800F4
0001F000B4
0BFFFFFFF4
7FAAFAAAA4
B801F00000
F401F40000
F401F80000
F807FE0060
7FBF9FEFF0
1BF902FE80
ENDCHAR
STARTCHAR ccedilla
ENCODING 231
SWIDTH 523 0
DWIDTH 13 0
BBX 11 18 1 -5
BITMAP
02FE40
1FEFD0
3E01F4
7800B8
B40064
F40000
F40000
F40000
B40014
7C00B8
3E01F4
1FEFD0
02FE40
00B400
007D00
000E00
006D00
00B400
ENDCHAR
STARTCHAR egrave
ENCODING 232
SWIDTH 529 0
DWIDTH 13 0
BBX 11 18 1 0
BITMAP
0BC000
02F000
00B400
000000
000000
01BE40
0BEFD0
2E01F0
7800B8
B40078
BFFFF8
FEAAA8
F40000
B80000
7C0010
3E00B4
1FEBE0
02FE40
ENDCHAR
STARTCHAR eacute
ENCODING 233
SWIDTH 529 0
DWIDTH 13 0
BBX 11 18 1 0
BITMAP
000B80
002E00
006800
000000
000000
01BE40
0BEFD0
2E01F0
7800B8
B40078
BFFFF8
FEAAA8
F40000
B80000
7C0010
3E00B4
1FEBE0
02FE40
ENDCHAR
STARTCHAR ecircumflex
ENCODING 234
SWIDTH 529 0
DWIDTH 13 0
BBX 11 18 1 0
BITMAP
00B800
02DF40
074780
000000
000000
01BE40
0BEFD0
2E01F0
7800B8
B40078
BFFFF8
FEAAA8
F40000
B80000
7C0010
3E00B4
1FEBE0
02FE40
ENDCHAR
STARTCHAR edieresis
ENCODING 235
SWIDTH 529 0
DWIDTH 13 0
BBX 11 18 1 0
BITMAP
050140
0F43D0
0B42D0
000000
000000
01BE40
0BEFD0
2E01F0
7800B8
B40078
BFFFF8
FEAAA8
F40000
B80000
7C0010
3E00B4
1FEBE0
02FE40
ENDCHAR
STARTCHAR igrave
ENCODING 236
SWIDTH 247 0
DWIDTH 6 0
BBX 5 18 -1 0
BITMAP
7D00
1F40
0780
0000
0000
07C0
07C0
07C0
07C0
07C0
07C0
07C0
07C0
07C0
07C0
07C0
07C0
07C0
ENDCHAR
STARTCHAR iacute
ENCODING 237
SWIDTH 247 0
DWIDTH 6 0
BBX 6 18 1 0
BITMAP
07D0
1F40
2C00
0000
0000
7C00
7C00
7C00
7C00
7C00
7C00
7C00
7C00
7C00
7C00
7C00
7C00
7C00
ENDCHAR
STARTCHAR icircumflex
ENCODING 238
SWIDTH 247 0
DWIDTH 6 0
BBX 8 18 -1 0
BITMAP
07D0
2EB4
6829
0000
0000
07C0
07C0
07C0
07C0
07C0
07C0
07C0
07C0
07C0
07C0
07C0
07C0
07C0
ENDCHAR
STARTCHAR idieresis
ENCODING 239
SWIDTH 247 0
DWIDTH 6 0
BBX 8 18 -1 0
BITMAP
1004
B82E
B41D
0000
0000
07C0
07C0
07C0
07C0
07C0
07C0
07C0
07C0
07C0
07C0
07C0
07C0
07C0
ENDCHAR
STARTCHAR eth
ENCODING 240
SWIDTH 585 0
DWIDTH 14 0
BBX 12 18 1 0
BITMAP
0A4000
0BF474
01BFE0
002FC0
01FBE0
0091F4
0000B8
01FE7C
0BFBFD
2F407D
3D002E
78002E
78002D
78003D
3D007C
2F40F4
0BFBE0
01BE40
ENDCHAR
STARTCHAR ntilde
ENCODING 241
SWIDTH 551 0
DWIDTH 13 0
BBX 11 18 1 0
BITMAP
0290A0
0FFAE0
1D1F80
000000
000000
78BF80
7AFFE0
7F41F4
7C00B8
7800B8
7800B8
7800B8
7800B8
7800B8
7800B8
7800B8
7800B8
7800B8
ENDCHAR
STARTCHAR ograve
ENCODING 242
SWIDTH 570 0
DWIDTH 14 0
BBX 12 18 1 0
BITMAP
07D000
01F000
007800
000000
000000
01BE40
0FEFE0
2E01F8
7C007C
B8003D
F4002E
F4002E
F4002E
B8003D
7C007C
3E01F8
0FEFE0
02FE40
ENDCHAR
STARTCHAR oacute
ENCODING 243
SWIDTH 570 0
DWIDTH 14 0
BBX 12 18 1 0
BITMAP
000B80
002E00
002800
000000
000000
01BE40
0FEFE0
2E01F8
7C007C
B8003D
F4002E
F4002E
F4002E
B8003D
7C007C
3E01F8
0FEFE0
02FE40
ENDCHAR
STARTCHAR ocircumflex
ENCODING 244
SWIDTH 570 0
DWIDTH 14 0
BBX 12 18 1 0
BITMAP
00BC00
02EF40
074380
000000
000000
01BE40
0FEFE0
2E01F8
7C007C
B8003D
F4002E
F4002E
F4002E
B8003D
7C007C
3E01F8
0FEFE0
02FE40
ENDCHAR
STARTCHAR otilde
ENCODING 245
SWIDTH 570 0
DWIDTH 14 0
BBX 12 18 1 0
BITMAP
0290A0
0FFAE0
1D1F80
000000
000000
01BE40
0FEFE0
2E01F8
7C007C
B8003D
F4002E
F4002E
F4002E
B8003D
7C007C
3E01F8
0FEFE0
02FE40
ENDCHAR
STARTCHAR odieresis
ENCODING 246
SWIDTH 570 0
DWIDTH 14 0
BBX 12 18 1 0
BITMAP
050140
0F43D0
0B42D0
000000
000000
01BE40
0FEFE0
2E01F8
7C007C
B8003D
F4002E
F4002E
F4002E
B8003D
7C007C
3E01F8
0FEFE0
02FE40
ENDCHAR
STARTCHAR divide
ENCODING 247
SWIDTH 570 0
DWIDTH 14 0
BBX 13 12 0 2
BITMAP
001E0000
002F0000
00090000
00000000
00000000
7FFFFF80
7FFFFF80
00000000
00000000
00050000
001F0000
001F0000
ENDCHAR
STARTCHAR oslash
ENCODING 248
SWIDTH 566 0
DWIDTH 14 0
BBX 12 17 1 -2
BITMAP
000010
000070
01BEE0
0FEFE0
2E02F8
7C077C
B80A3D
F41D2E
F4282E
F4702E
B8A03D
7DC07C
3F81F4
0FEFE0
0AFE40
1D0000
140000
ENDCHAR
STARTCHAR ugrave
ENCODING 249
SWIDTH 551 0
DWIDTH 13 0
BBX 11 18 1 0
BITMAP
0BC000
01F000
007400
000000
000000
7800B8
7800B8
7800B8
7800B8
7800B8
7800B8
7800B8
7800B8
7800B8
7C00B8
3E02F8
2FFFF8
07F9B8
ENDCHAR
STARTCHAR uacute
ENCODING 250
SWIDTH 551 0
DWIDTH 13 0
BBX 11 18 1 0
BITMAP
000B80
002E00
006800
000000
000000
7800B8
7800B8
7800B8
7800B8
7800B8
7800B8
7800B8
7800B8
7800B8
7C00B8
3E02F8
2FFFF8
07F9B8
ENDCHAR
STARTCHAR ucircumflex
ENCODING 251
SWIDTH 551 0
DWIDTH 13 0
BBX 11 18 1 0
BITMAP
00B800
02DF40
074780
000000
000000
7800B8
7800B8
7800B8
7800B8
7800B8
7800B8
7800B8
7800B8
7800B8
7C00B8
3E02F8
2FFFF8
07F9B8
ENDCHAR
STARTCHAR udieresis
ENCODING 252
SWIDTH 551 0
DWIDTH 13 0
BBX 11 18 1 0
BITMAP
050140
0F43D0
0B42D0
000000
000000
7800B8
7800B8
7800B8
7800B8
7800B8
7800B8
7800B8
7800B8
7800B8
7C00B8
3E02F8
2FFFF8
07F9B8
ENDCHAR
STARTCHAR yacute
ENCODING 253
SWIDTH 473 0
DWIDTH 11 0
BBX 11 23 0 -5
BITMAP
0007D0
001F40
002C00
000000
000000
B8007C
7C00B8
3D00F4
1E01F0
0F02E0
0B43D0
078780
03CB40
02DF00
01FE00
00FD00
00BC00
007800
00B400
00F000
02E000
3FC000
3E0000
ENDCHAR
STARTCHAR thorn
ENCODING 254
SWIDTH 576 0
DWIDTH 14 0
BBX 12 23 1 -5
BITMAP
7C0000
7C0000
7C0000
7C0000
7C0000
7CBF80
7FFFF0
7E01F8
7C007C
7C003D
7C002D
7C002D
7C002D
7C003D
7C007C
7E01F8
7FEFE0
7CBF80
7C0000
7C0000
7C0000
7C0000
7C0000
ENDCHAR
STARTCHAR ydieresis
ENCODING 255
SWIDTH 473 0
DWIDTH 11 0
BBX 11 23 0 -5
BITMAP
010040
0B82E0
0B41D0
000000
000000
B8007C
7C00B8
3D00F4
1E01F0
0F02E0
0B43D0
078780
03CB40
02DF00
01FE00
00FD00
00BC00
007800
00B400
00F000
02E000
3FC000
3E0000
ENDCHAR
STARTCHAR Amacron
ENCODING 256
SWIDTH 652 0
DWIDTH 16 0
BBX 15 21 0 0
BITMAP
00AAAA00
00FFFF00
00000000
00000000
0007C000
000BD000
000FE000
002EF000
003DB800
007C7C00
00B83D00
00F02E00
01E00F00
02D00B40
07C007C0
0BFFFFD0
0FFFFFE0
1F0001F0
2E0000F4
3D0000B8
7C00003C
ENDCHAR
STARTCHAR amacron
ENCODING 257
SWIDTH 543 0
DWIDTH 13 0
BBX 11 17 1 0
BITMAP
0AAAA0
0FFFE0
000000
000000
06FE40
1FEFD0
7D02F0
6400F4
0000F4
06FFF4
2FAAF4
7D00F4
B800F4
B800F4
7D07F4
3FFFF4
0BF8B8
ENDCHAR
STARTCHAR Abreve
ENCODING 258
SWIDTH 652 0
DWIDTH 16 0
BBX 15 21 0 0
BITMAP
00B41D00
007DBC00
001BE000
00000000
0007C000
000BD000
000FE000
002EF000
003DB800
007C7C00
00B83D00
00F02E00
01E00F00
02D00B40
07C007C0
0BFFFFD0
0FFFFFE0
1F0001F0
2E0000F4
3D0000B8
7C00003C
ENDCHAR
STARTCHAR abreve
ENCODING 259
SWIDTH 543 0
DWIDTH 13 0
BBX 11 17 1 0
BITMAP
0B42D0
079BC0
01BE00
000000
06FE40
1FEFD0
7D02F0
6400F4
0000F4
06FFF4
2FAAF4
7D00F4
B800F4
B800F4
7D07F4
3FFFF4
0BF8B8
ENDCHAR
STARTCHAR Aogonek
ENCODING 260
SWIDTH 652 0
DWIDTH 16 0
BBX 15 22 0 -5
BITMAP
0007C000
000BD000
000FE000
002EF000
003DB800
007C7C00
00B83D00
00F02E00
01E00F00
02D00B40
07C007C0
0BFFFFD0
0FFFFFE0
1F0001F0
2E0000F4
3D0000B8
7C00007C
000000B4
000002D0
000003C0
000003E8
000001F8
ENDCHAR
STARTCHAR aogonek
ENCODING 261
SWIDTH 543 0
DWIDTH 13 0
BBX 11 18 1 -5
BITMAP
06FE40
1FEFD0
7D02F0
6400F4
0000F4
06FFF4
2FAAF4
7D00F4
B800F4
B800F4
7D07F4
3FFFF4
0BF8B8
0001E0
000380
000740
0007E4
0002F4
ENDCHAR
STARTCHAR Cacute
ENCODING 262
SWIDTH 650 0
DWIDTH 16 0
BBX 14 21 1 0
BITMAP
0001F400
0007D000
000B0000
00000000
006FE400
03FFFE00
0F901F40
2E0007C0
3D0003D0
7C000290
78000000
B8000000
B8000000
B8000000
B8000000
7C000290
3D0003D0
2E0007C0
0F801F40
07FFFE00
00AFE400
ENDCHAR
STARTCHAR cacute
ENCODING 263
SWIDTH 523 0
DWIDTH 13 0
BBX 11 18 1 0
BITMAP
001F40
003D00
00B400
000000
000000
02FE40
1FEFD0
3E01F4
7800B8
B40064
F40000
F40000
F40000
B40014
7C00B8
3E01F4
1FEFD0
02FE40
ENDCHAR
STARTCHAR Ccircumflex
ENCODING 264
SWIDTH 650 0
DWIDTH 16 0
BBX 14 21 1 0
BITMAP
001F4000
00BAD000
01A0A400
00000000
006FE400
03FFFE00
0F901F40
2E0007C0
3D0003D0
7C000290
78000000
B8000000
B8000000
B8000000
B8000000
7C000290
3D0003D0
2E0007C0
0F801F40
07FFFE00
00AFE400
ENDCHAR
STARTCHAR ccircumflex
ENCODING 265
SWIDTH 523 0
DWIDTH 13 0
BBX 11 18 1 0
BITMAP
00F400
07EE00
0B0740
000000
000000
02FE40
1FEFD0
3E01F4
7800B8
B40064
F40000
F40000
F40000
B40014
7C00B8
3E01F4
1FEFD0
02FE40
ENDCHAR
STARTCHAR Cdotaccent
ENCODING 266
SWIDTH 650 0
DWIDTH 16 0
BBX 14 21 1 0
BITMAP
00050000
001F4000
000F0000
00000000
006FE400
03FFFE00
0F901F40
2E0007C0
3D0003D0
7C000290
78000000
B8000000
B8000000
B8000000
B8000000
7C000290
3D0003D0
2E0007C0
0F801F40
07FFFE00
00AFE400
ENDCHAR
STARTCHAR cdotaccent
ENCODING 267
SWIDTH 523 0
DWIDTH 13 0
BBX 11 18 1 0
BITMAP
005000
00F400
00B400
000000
000000
02FE40
1FEFD0
3E01F4
7800B8
B40064
F40000
F40000
F40000
B40014
7C00B8
3E01F4
1FEFD0
02FE40
ENDCHAR
STARTCHAR Ccaron
ENCODING 268
SWIDTH 650 0
DWIDTH 16 0
BBX 14 21 1 0
BITMAP
01E0B400
007AD000
001F4000
00000000
006FE400
03FFFE00
0F901F40
2E0007C0
3D0003D0
7C000290
78000000
B8000000
B8000000
B8000000
B8000000
7C000290
3D0003D0
2E0007C0
0F801F40
07FFFE00
00AFE400
ENDCHAR
STARTCHAR ccaron
ENCODING 269
SWIDTH 523 0
DWIDTH 13 0
BBX 11 18 1 0
BITMAP
0F0B40
03ED00
00F400
000000
000000
02FE40
1FEFD0
3E01F4
7800B8
B40064
F40000
F40000
F40000
B40014
7C00B8
3E01F4
1FEFD0
02FE40
ENDCHAR
STARTCHAR Dcaron
ENCODING 270
SWIDTH 655 0
DWIDTH 16 0
BBX 13 21 2 0
BITMAP
1E0B4000
03AD0000
00F40000
00000000
FFFA0000
FFFFD000
F402F400
F4007D00
F4002E00
F4001F00
F4000F40
F4000F40
F4000F40
F4000F40
F4000F40
F4001F00
F4002E00
F4007D00
F402F400
FFFFD000
FFF90000
ENDCHAR
STARTCHAR dcaron
ENCODING 271
SWIDTH 637 0
DWIDTH 15 0
BBX 15 18 1 0
BITMAP
000078B4
000078B4
000078B4
000079F0
00007890
06F97800
1FFFF800
3E01F800
7C007800
B8007800
F4007800
F4007800
B4007800
B8007800
7C00B800
3E01F800
1FFFB800
06F97800
ENDCHAR
STARTCHAR Dcroat
ENCODING 272
SWIDTH 670 0
DWIDTH 16 0
BBX 15 17 0 0
BITMAP
0BFFE400
0BFFFE00
0B801F80
0B8003E0
0B8001F0
0B8000F4
0B8000B8
FFFE00B8
AFE900B8
0B8000B8
0B8000B8
0B8000F4
0B8001F0
0B8003E0
0B801F80
0BFFFE00
0BFFE400
ENDCHAR
STARTCHAR dcroat
ENCODING 273
SWIDTH 597 0
DWIDTH 14 0
BBX 13 18 1 0
BITMAP
00007800
00007800
001FFFC0
001AFE80
00007800
06F97800
1FFFF800
3E01F800
7C007800
B8007800
F4007800
F4007800
B4007800
B8007800
7C00B800
3E01F800
1FFFB800
06F97800
ENDCHAR
STARTCHAR Emacron
ENCODING 274
SWIDTH 568 0
DWIDTH 14 0
BBX 11 21 2 0
BITMAP
1AAA90
2FFFD0
000000
000000
FFFFF8
FFFFF8
F40000
F40000
F40000
F40000
F40000
FFFFE0
FFFFE0
F40000
F40000
F40000
F40000
F40000
F40000
FFFFF8
FFFFF8
ENDCHAR
STARTCHAR emacron
ENCODING 275
SWIDTH 529 0
DWIDTH 13 0
BBX 11 17 1 0
BITMAP
1AAA90
1FFFE0
000000
000000
01BE40
0BEFD0
2E01F0
7800B8
B40078
BFFFF8
FEAAA8
F40000
B80000
7C0010
3E00B4
1FEBE0
02FE40
ENDCHAR
STARTCHAR Ebreve
ENCODING 276
SWIDTH 568 0
DWIDTH 14 0
BBX 11 21 2 0
BITMAP
0E0380
0B9B40
02F900
000000
FFFFF8
FFFFF8
F40000
F40000
F40000
F40000
F40000
FFFFE0
FFFFE0
F40000
F40000
F40000
F40000
F40000
F40000
FFFFF8
FFFFF8
ENDCHAR
STARTCHAR ebreve
ENCODING 277
SWIDTH 529 0
DWIDTH 13 0
BBX 11 17 1 0
BITMAP
0B02C0
079B80
01BE00
000000
01BE40
0BEFD0
2E01F0
7800B8
B40078
BFFFF8
FEAAA8
F40000
B80000
7C0010
3E00B4
1FEBE0
02FE40
ENDCHAR
STARTCHAR Edotaccent
ENCODING 278
SWIDTH 568 0
DWIDTH 14 0
BBX 11 21 2 0
BITMAP
005000
00F400
00B400
000000
FFFFF8
FFFFF8
F40000
F40000
F40000
F40000
F40000
FFFFE0
FFFFE0
F40000
F40000
F40000
F40000
F40000
F40000
FFFFF8
FFFFF8
ENDCHAR
STARTCHAR edotaccent
ENCODING 279
SWIDTH 529 0
DWIDTH 13 0
BBX 11 18 1 0
BITMAP
001400
00BC00
007800
000000
000000
01BE40
0BEFD0
2E01F0
7800B8
B40078
BFFFF8
FEAAA8
F40000
B80000
7C0010
3E00B4
1FEBE0
02FE40
ENDCHAR
STARTCHAR Eogonek
ENCODING 280
SWIDTH 568 0
DWIDTH 14 0
BBX 11 22 2 -5
BITMAP
FFFFF8
FFFFF8
F40000
F40000
F40000
F40000
F40000
FFFFE0
FFFFE0
F40000
F40000
F40000
F40000
F40000
F40000
FFFFF8
FFFFF8
0002D0
000B40
000F00
000BA0
0007E0
ENDCHAR
STARTCHAR eogonek
ENCODING 281
SWIDTH 529 0
DWIDTH 13 0
BBX 11 18 1 -5
BITMAP
01BE40
0BEFD0
2E01F0
7800B8
B40078
BFFFF8
FEAAA8
F40000
B80000
7C0010
3E00B4
1FEBE0
02FF80
002D00
007800
007800
007E80
002F40
ENDCHAR
STARTCHAR Ecaron
ENCODING 282
SWIDTH 568 0
DWIDTH 14 0
BBX 11 21 2 0
BITMAP
0F0740
03ED00
00F400
000000
FFFFF8
FFFFF8
F40000
F40000
F40000
F40000
F40000
FFFFE0
FFFFE0
F40000
F40000
F40000
F40000
F40000
F40000
FFFFF8
FFFFF8
ENDCHAR
STARTCHAR ecaron
ENCODING 283
SWIDTH 529 0
DWIDTH 13 0
BBX 11 18 1 0
BITMAP
0B4780
02DE00
00B800
000000
000000
01BE40
0BEFD0
2E01F0
7800B8
B40078
BFFFF8
FEAAA8
F40000
B80000
7C0010
3E00B4
1FEBE0
02FE40
ENDCHAR
STARTCHAR Gcircumflex
ENCODING 284
SWIDTH 681 0
DWIDTH 16 0
BBX 14 21 1 0
BITMAP
001F4000
00BAD000
01A0A000
00000000
006FE400
07FFFE00
0F901F80
2E0007C0
3D0003D0
7C000040
78000000
B8000000
B8000000
B802FFE0
7802ABE0
7C0002E0
3D0002E0
2F0002E0
0FD007E0
02FFFF80
006FF900
ENDCHAR
STARTCHAR gcircumflex
ENCODING 285
SWIDTH 561 0
DWIDTH 13 0
BBX 11 23 1 -5
BITMAP
00B800
02DF00
0B4780
000000
000000
06F97C
1FFFBC
3E01FC
7C007C
B8007C
B4007C
F4007C
B4007C
B8007C
7C007C
3E01FC
1FFFFC
06F97C
000078
1000B8
3D02F0
1FEFD0
06FE40
ENDCHAR
STARTCHAR Gbreve
ENCODING 286
SWIDTH 681 0
DWIDTH 16 0
BBX 14 21 1 0
BITMAP
02D07400
01F6F000
006F8000
00000000
006FE400
07FFFE00
0F901F80
2E0007C0
3D0003D0
7C000040
78000000
B8000000
B8000000
B802FFE0
7802ABE0
7C0002E0
3D0002E0
2F0002E0
0FD007E0
02FFFF80
006FF900
ENDCHAR
STARTCHAR gbreve
ENCODING 287
SWIDTH 561 0
DWIDTH 13 0
BBX 11 22 1 -5
BITMAP
0F02C0
0B9B80
01FD00
000000
06F97C
1FFFBC
3E01FC
7C007C
B8007C
B4007C
F4007C
B4007C
B8007C
7C007C
3E01FC
1FFFFC
06F97C
000078
1000B8
3D02F0
1FEFD0
06FE40
ENDCHAR
STARTCHAR Gdotaccent
ENCODING 288
SWIDTH 681 0
DWIDTH 16 0
BBX 14 21 1 0
BITMAP
00050000
001F0000
001E0000
00000000
006FE400
07FFFE00
0F901F80
2E0007C0
3D0003D0
7C000040
78000000
B8000000
B8000000
B802FFE0
7802ABE0
7C0002E0
3D0002E0
2F0002E0
0FD007E0
02FFFF80
006FF900
ENDCHAR
STARTCHAR gdotaccent
ENCODING 289
SWIDTH 561 0
DWIDTH 13 0
BBX 11 23 1 -5
BITMAP
001000
00B800
007800
000000
000000
06F97C
1FFFBC
3E01FC
7C007C
B8007C
B4007C
F4007C
B4007C
B8007C
7C007C
3E01FC
1FFFFC
06F97C
000078
1000B8
3D02F0
1FEFD0
06FE40
ENDCHAR
STARTCHAR uni0122
ENCODING 290
SWIDTH 681 0
DWIDTH 16 0
BBX 14 23 1 -6
BITMAP
006FE400
07FFFE00
0F901F80
2E0007C0
3D0003D0
7C000040
78000000
B8000000
B8000000
B802FFE0
7802ABE0
7C0002E0
3D0002E0
2F0002E0
0FD007E0
02FFFF80
006FF900
00000000
00078000
000B8000
000B4000
000F0000
00090000
ENDCHAR
STARTCHAR uni0123
ENCODING 291
SWIDTH 561 0
DWIDTH 13 0
BBX 11 25 1 -5
BITMAP
001800
003C00
007800
00B800
00B800
000000
000000
06F97C
1FFFBC
3E01FC
7C007C
B8007C
B4007C
F4007C
B4007C
B8007C
7C007C
3E01FC
1FFFFC
06F97C
000078
1000B8
3D02F0
1FEFD0
06FE40
ENDCHAR
STARTCHAR Hcircumflex
ENCODING 292
SWIDTH 712 0
DWIDTH 17 0
BBX 13 21 2 0
BITMAP
002E0000
01F78000
02D1D000
00000000
F40007C0
F40007C0
F40007C0
F40007C0
F40007C0
F40007C0
F40007C0
FFFFFFC0
FFFFFFC0
F40007C0
F40007C0
F40007C0
F40007C0
F40007C0
F40007C0
F40007C0
F40007C0
ENDCHAR
STARTCHAR hcircumflex
ENCODING 293
SWIDTH 550 0
DWIDTH 13 0
BBX 11 22 1 0
BITMAP
01F400
0BAD00
1A0A00
000000
780000
780000
780000
780000
780000
78BF80
7EFFE0
7F41F4
7C00B8
7800B8
7800B8
7800B8
7800B8
7800B8
7800B8
7800B8
7800B8
7800B8
ENDCHAR
STARTCHAR Hbar
ENCODING 294
SWIDTH 700 0
DWIDTH 17 0
BBX 17 17 0 0
BITMAP
0F40007C00
0F40007C00
0F40007C00
BFFFFFFF80
6FAAAABE40
0F40007C00
0F40007C00
0FFFFFFC00
0FFFFFFC00
0F40007C00
0F40007C00
0F40007C00
0F40007C00
0F40007C00
0F40007C00
0F40007C00
0F40007C00
ENDCHAR
STARTCHAR hbar
ENCODING 295
SWIDTH 565 0
DWIDTH 14 0
BBX 13 18 -1 0
BITMAP
03C00000
03C00000
7FFF0000
6BEA0000
03C00000
03C6F900
03EFFF40
03F40F80
03D007C0
03C007C0
03C007C0
03C007C0
03C007C0
03C007C0
03C007C0
03C007C0
03C007C0
03C007C0
ENDCHAR
STARTCHAR Itilde
ENCODING 296
SWIDTH 271 0
DWIDTH 7 0
BBX 9 21 -1 0
BITMAP
190240
7FEF00
A0BD00
000000
03D000
03D000
03D000
03D000
03D000
03D000
03D000
03D000
03D000
03D000
03D000
03D000
03D000
03D000
03D000
03D000
03D000
ENDCHAR
STARTCHAR itilde
ENCODING 297
SWIDTH 247 0
DWIDTH 6 0
BBX 8 18 -1 0
BITMAP
1906
BFEE
E1B9
0000
0000
07C0
07C0
07C0
07C0
07C0
07C0
07C0
07C0
07C0
07C0
07C0
07C0
07C0
ENDCHAR
STARTCHAR Imacron
ENCODING 298
SWIDTH 271 0
DWIDTH 7 0
BBX 9 21 -1 0
BITMAP
6AAA40
BFFF40
000000
000000
03D000
03D000
03D000
03D000
03D000
03D000
03D000
03D000
03D000
03D000
03D000
03D000
03D000
03D000
03D000
03D000
03D000
ENDCHAR
STARTCHAR imacron
ENCODING 299
SWIDTH 247 0
DWIDTH 6 0
BBX 8 17 -1 0
BITMAP
AAAA
FFFF
0000
0000
07C0
07C0
07C0
07C0
07C0
07C0
07C0
07C0
07C0
07C0
07C0
07C0
07C0
ENDCHAR
STARTCHAR Ibreve
ENCODING 300
SWIDTH 271 0
DWIDTH 7 0
BBX 7 21 0 0
BITMAP
E038
B9B4
2F90
0000
0F40
0F40
0F40
0F40
0F40
0F40
0F40
0F40
0F40
0F40
0F40
0F40
0F40
0F40
0F40
0F40
0F40
ENDCHAR
STARTCHAR ibreve
ENCODING 301
SWIDTH 247 0
DWIDTH 6 0
BBX 8 17 -1 0
BITMAP
741D
3D7C
1BE4
0000
07C0
07C0
07C0
07C0
07C0
07C0
07C0
07C0
07C0
07C0
07C0
07C0
07C0
ENDCHAR
STARTCHAR Iogonek
ENCODING 302
SWIDTH 271 0
DWIDTH 7 0
BBX 5 22 0 -5
BITMAP
0F40
0F40
0F40
0F40
0F40
0F40
0F40
0F40
0F40
0F40
0F40
0F40
0F40
0F40
0F40
0F40
0F40
2D00
7400
B400
BE40
2F40
ENDCHAR
STARTCHAR iogonek
ENCODING 303
SWIDTH 242 0
DWIDTH 6 0
BBX 4 23 0 -5
BITMAP
05
1F
0F
00
00
1F
1F
1F
1F
1F
1F
1F
1F
1F
1F
1F
1F
1F
78
B0
F0
FA
7E
ENDCHAR
STARTCHAR Idotaccent
ENCODING 304
SWIDTH 271 0
DWIDTH 7 0
BBX 3 21 2 0
BITMAP
50
F4
B4
00
F4
F4
F4
F4
F4
F4
F4
F4
F4
F4
F4
F4
F4
F4
F4
F4
F4
ENDCHAR
STARTCHAR dotlessi
ENCODING 305
SWIDTH 247 0
DWIDTH 6 0
BBX 3 13 1 0
BITMAP
7C
7C
7C
7C
7C
7C
7C
7C
7C
7C
7C
7C
7C
ENDCHAR
STARTCHAR IJ
ENCODING 306
SWIDTH 823 0
DWIDTH 20 0
BBX 16 17 2 0
BITMAP
F400001F
F400001F
F400001F
F400001F
F400001F
F400001F
F400001F
F400001F
F400001F
F400001F
F400001F
F400001F
F42D001F
F42E002E
F41F40BD
F40BFFF8
F401BF90
ENDCHAR
STARTCHAR ij
ENCODING 307
SWIDTH 481 0
DWIDTH 12 0
BBX 9 23 1 -5
BITMAP
140100
7C0B80
3C0780
000000
000000
7C0780
7C0780
7C0780
7C0780
7C0780
7C0780
7C0780
7C0780
7C0780
7C0780
7C0780
7C0780
7C0780
000780
000780
000B80
00FF40
00B900
ENDCHAR
STARTCHAR Jcircumflex
ENCODING 308
SWIDTH 551 0
DWIDTH 13 0
BBX 14 21 0 0
BITMAP
00007D00
0001EB40
00068290
00000000
00003D00
00003D00
00003D00
00003D00
00003D00
00003D00
00003D00
00003D00
00003D00
00003D00
00003D00
00003D00
7C003D00
7D007C00
2E41F800
1FFFF000
02FF8000
ENDCHAR
STARTCHAR jcircumflex
ENCODING 309
SWIDTH 251 0
DWIDTH 6 0
BBX 8 22 -1 -5
BITMAP
07D0
1EB8
2829
0000
03D0
03D0
03D0
03D0
03D0
03D0
03D0
03D0
03D0
03D0
03D0
03D0
03D0
03D0
03C0
07C0
AF40
BD00
ENDCHAR
STARTCHAR uni0136
ENCODING 310
SWIDTH 626 0
DWIDTH 15 0
BBX 13 22 2 -5
BITMAP
F4002F00
F400BD00
F401F400
F407D000
F41F4000
F47E0000
F4F80000
F7F00000
FFF80000
FF7D0000
FC2F0000
F40B8000
F403E000
F401F400
F400BD00
F4002F00
F4000F80
00780000
00780000
00B80000
00F00000
00900000
ENDCHAR
STARTCHAR uni0137
ENCODING 311
SWIDTH 506 0
DWIDTH 12 0
BBX 11 23 1 -5
BITMAP
780000
780000
780000
780000
780000
7802F4
7807D0
781F40
787D00
79F400
7FF000
7FF400
7E7D00
7C2E00
780F80
7807D0
7802F0
7800B8
00F400
00F000
00F000
01E000
018000
ENDCHAR
STARTCHAR kgreenlandic
ENCODING 312
SWIDTH 556 0
DWIDTH 13 0
BBX 12 13 1 0
BITMAP
7C00B8
7C02F0
7C0BC0
7C2F40
7C7D00
7FF400
7FF800
7C7D00
7C2F40
7C0BC0
7C03E0
7C01F8
7C007D
ENDCHAR
STARTCHAR Lacute
ENCODING 313
SWIDTH 538 0
DWIDTH 13 0
BBX 11 21 2 0
BITMAP
1F4000
7D0000
B40000
000000
F40000
F40000
F40000
F40000
F40000
F40000
F40000
F40000
F40000
F40000
F40000
F40000
F40000
F40000
F40000
FFFFF4
FFFFF4
ENDCHAR
STARTCHAR lacute
ENCODING 314
SWIDTH 242 0
DWIDTH 6 0
BBX 6 23 1 0
BITMAP
07D0
1F00
2C00
0000
0000
7C00
7C00
7C00
7C00
7C00
7C00
7C00
7C00
7C00
7C00
7C00
7C00
7C00
7C00
7C00
7C00
7C00
7C00
ENDCHAR
STARTCHAR uni013B
ENCODING 315
SWIDTH 538 0
DWIDTH 13 0
BBX 11 23 2 -6
BITMAP
F40000
F40000
F40000
F40000
F40000
F40000
F40000
F40000
F40000
F40000
F40000
F40000
F40000
F40000
F40000
FFFFF4
FFFFF4
000000
00B400
00F400
00F000
01E000
018000
ENDCHAR
STARTCHAR uni013C
ENCODING 316
SWIDTH 242 0
DWIDTH 6 0
BBX 3 24 1 -6
BITMAP
7C
7C
7C
7C
7C
7C
7C
7C
7C
7C
7C
7C
7C
7C
7C
7C
7C
7C
00
3C
3C
78
B4
60
ENDCHAR
STARTCHAR Lcaron
ENCODING 317
SWIDTH 538 0
DWIDTH 13 0
BBX 11 17 2 0
BITMAP
F42E00
F42D00
F42D00
F43C00
F42400
F40000
F40000
F40000
F40000
F40000
F40000
F40000
F40000
F40000
F40000
FFFFF4
FFFFF4
ENDCHAR
STARTCHAR lcaron
ENCODING 318
SWIDTH 315 0
DWIDTH 8 0
BBX 7 18 1 0
BITMAP
7C3C
7C3C
7C78
7CB4
7C60
7C00
7C00
7C00
7C00
7C00
7C00
7C00
7C00
7C00
7C00
7C00
7C00
7C00
ENDCHAR
STARTCHAR Ldot
ENCODING 319
SWIDTH 538 0
DWIDTH 13 0
BBX 11 17 2 0
BITMAP
F40000
F40000
F40000
F40000
F40000
F40000
F41400
F43D00
F42D00
F40000
F40000
F40000
F40000
F40000
F40000
FFFFF4
FFFFF4
ENDCHAR
STARTCHAR ldot
ENCODING 320
SWIDTH 350 0
DWIDTH 8 0
BBX 7 18 1 0
BITMAP
7C00
7C00
7C00
7C00
7C00
7C00
7C00
7C10
7CB8
7C78
7C00
7C00
7C00
7C00
7C00
7C00
7C00
7C00
ENDCHAR
STARTCHAR Lslash
ENCODING 321
SWIDTH 538 0
DWIDTH 13 0
BBX 13 17 0 0
BITMAP
0F400000
0F400000
0F400000
0F400000
0F400000
0F400000
0F590000
1FF80000
BF400000
5F400000
0F400000
0F400000
0F400000
0F400000
0F400000
0FFFFF40
0FFFFF40
ENDCHAR
STARTCHAR lslash
ENCODING 322
SWIDTH 270 0
DWIDTH 6 0
BBX 6 18 0 0
BITMAP
0F40
0F40
0F40
0F40
0F40
0F40
0F40
0FA0
1FE0
BF40
5F40
0F40
0F40
0F40
0F40
0F40
0F40
0F40
ENDCHAR
STARTCHAR Nacute
ENCODING 323
SWIDTH 712 0
DWIDTH 17 0
BBX 13 21 2 0
BITMAP
0002E000
000B8000
001E0000
00000000
F80003C0
FD0003C0
FF0003C0
FF8003C0
FBD003C0
F6E003C0
F4F803C0
F47D03C0
F42E03C0
F40F43C0
F407C3C0
F402E3C0
F400FBC0
F4007FC0
F4002FC0
F4001FC0
F4000BC0
ENDCHAR
STARTCHAR nacute
ENCODING 324
SWIDTH 551 0
DWIDTH 13 0
BBX 11 18 1 0
BITMAP
000B80
002E00
006800
000000
000000
78BF80
7AFFE0
7F41F4
7C00B8
7800B8
7800B8
7800B8
7800B8
7800B8
7800B8
7800B8
7800B8
7800B8
ENDCHAR
STARTCHAR uni0145
ENCODING 325
SWIDTH 712 0
DWIDTH 17 0
BBX 13 23 2 -6
BITMAP
F80003C0
FD0003C0
FF0003C0
FF8003C0
FBD003C0
F6E003C0
F4F803C0
F47D03C0
F42E03C0
F40F43C0
F407C3C0
F402E3C0
F400FBC0
F4007FC0
F4002FC0
F4001FC0
F4000BC0
00000000
002D0000
002D0000
003D0000
00780000
00240000
ENDCHAR
STARTCHAR uni0146
ENCODING 326
SWIDTH 551 0
DWIDTH 13 0
BBX 11 19 1 -6
BITMAP
78BF80
7AFFE0
7F41F4
7C00B8
7800B8
7800B8
7800B8
7800B8
7800B8
7800B8
7800B8
7800B8
7800B8
000000
007800
00B800
00B400
00F000
009000
ENDCHAR
STARTCHAR Ncaron
ENCODING 327
SWIDTH 712 0
DWIDTH 17 0
BBX 13 21 2 0
BITMAP
02D1E000
00B78000
002E0000
00000000
F80003C0
FD0003C0
FF0003C0
FF8003C0
FBD003C0
F6E003C0
F4F803C0
F47D03C0
F42E03C0
F40F43C0
F407C3C0
F402E3C0
F400FBC0
F4007FC0
F4002FC0
F4001FC0
F4000BC0
ENDCHAR
STARTCHAR ncaron
ENCODING 328
SWIDTH 551 0
DWIDTH 13 0
BBX 11 18 1 0
BITMAP
0B4380
01DE00
007800
000000
000000
78BF80
7AFFE0
7F41F4
7C00B8
7800B8
7800B8
7800B8
7800B8
7800B8
7800B8
7800B8
7800B8
7800B8
ENDCHAR
STARTCHAR napostrophe
ENCODING 329
SWIDTH 551 0
DWIDTH 13 0
BBX 13 18 -1 0
BITMAP
3C000000
3C000000
3C000000
B8000000
60000000
078BF800
07AFFE00
07F41F40
07C00B80
07800B80
07800B80
07800B80
07800B80
07800B80
07800B80
07800B80
07800B80
07800B80
ENDCHAR
STARTCHAR Eng
ENCODING 330
SWIDTH 692 0
DWIDTH 17 0
BBX 13 22 2 -5
BITMAP
F4000780
FC000780
FE000780
FF400780
FBC00780
F2E00780
F0F40780
F07C0780
F02E0780
F01F4780
F00B8780
F003D780
F001FB80
F000BF80
F0003F80
F0001F80
F0000B80
00000780
00000B80
00000F80
0001FF00
0001F900
ENDCHAR
STARTCHAR eng
ENCODING 331
SWIDTH 566 0
DWIDTH 14 0
BBX 11 18 1 -5
BITMAP
787F80
7AFFF0
7E01F4
7C00B8
7C0078
7C0078
7C0078
7C0078
7C0078
7C0078
7C0078
7C0078
7C0078
000078
000078
0000B8
001FF0
001F90
ENDCHAR
STARTCHAR Omacron
ENCODING 332
SWIDTH 687 0
DWIDTH 17 0
BBX 14 21 1 0
BITMAP
01AAA900
02FFFD00
00000000
00000000
006FE400
03FFFD00
0FD02F40
2F0007C0
3D0002E0
7C0001E0
780001F0
B80000F0
B80000F0
B80000F0
780001F0
7C0001E0
3D0002E0
2F0007C0
0F901F40
03FFFE00
006FE400
ENDCHAR
STARTCHAR omacron
ENCODING 333
SWIDTH 570 0
DWIDTH 14 0
BBX 12 17 1 0
BITMAP
0AAAA0
0FFFE0
000000
000000
01BE40
0FEFE0
2E01F8
7C007C
B8003D
F4002E
F4002E
F4002E
B8003D
7C007C
3E01F8
0FEFE0
02FE40
ENDCHAR
STARTCHAR Obreve
ENCODING 334
SWIDTH 687 0
DWIDTH 17 0
BBX 14 21 1 0
BITMAP
00E03800
00B9B400
002F9000
00000000
006FE400
03FFFD00
0FD02F40
2F0007C0
3D0002E0
7C0001E0
780001F0
B80000F0
B80000F0
B80000F0
780001F0
7C0001E0
3D0002E0
2F0007C0
0F901F40
03FFFE00
006FE400
ENDCHAR
STARTCHAR obreve
ENCODING 335
SWIDTH 570 0
DWIDTH 14 0
BBX 12 17 1 0
BITMAP
0B02C0
079B80
01BE00
000000
01BE40
0FEFE0
2E01F8
7C007C
B8003D
F4002E
F4002E
F4002E
B8003D
7C007C
3E01F8
0FEFE0
02FE40
ENDCHAR
STARTCHAR Ohungarumlaut
ENCODING 336
SWIDTH 687 0
DWIDTH 17 0
BBX 14 22 1 0
BITMAP
000F4F40
002E2E00
003CB800
0064B000
00000000
006FE400
03FFFD00
0FD02F40
2F0007C0
3D0002E0
7C0001E0
780001F0
B80000F0
B80000F0
B80000F0
780001F0
7C0001E0
3D0002E0
2F0007C0
0F901F40
03FFFE00
006FE400
ENDCHAR
STARTCHAR ohungarumlaut
ENCODING 337
SWIDTH 570 0
DWIDTH 14 0
BBX 12 19 1 0
BITMAP
0078B8
00F5F0
02E3D0
028740
000000
000000
01BE40
0FEFE0
2E01F8
7C007C
B8003D
F4002E
F4002E
F4002E
B8003D
7C007C
3E01F8
0FEFE0
02FE40
ENDCHAR
STARTCHAR OE
ENCODING 338
SWIDTH 953 0
DWIDTH 23 0
BBX 20 17 1 0
BITMAP
01BFFFFFFF
07FAFFFFFF
1F402E0000
3D002E0000
78002E0000
B8002E0000
B4002E0000
B4002FFFFC
B4002FFFF8
B4002E0000
B4002E0000
B8002E0000
78002E0000
3D002E0000
1F402E0000
07FAFFFFFF
01BFFFFFFF
ENDCHAR
STARTCHAR oe
ENCODING 339
SWIDTH 908 0
DWIDTH 22 0
BBX 20 13 1 0
BITMAP
01BE406F90
0FEFE2FFF8
2E01FBD07D
7C007F401E
B8003E001F
B4002FFFFF
F4002FAAAA
B4002E0000
B8003F0000
7C007F4000
2E01FBD018
0FEFE2FEFD
02FE406FE4
ENDCHAR
STARTCHAR Racute
ENCODING 340
SWIDTH 615 0
DWIDTH 15 0
BBX 13 21 2 0
BITMAP
001F4000
007D0000
00B40000
00000000
FFFE8000
FFFFF400
F401BC00
F4003D00
F4002E00
F4002E00
F4007D00
F401F800
FFFFE000
FFFF8000
F407C000
F403D000
F401F000
F400F800
F4007C00
F4002E00
F4001F40
ENDCHAR
STARTCHAR racute
ENCODING 341
SWIDTH 338 0
DWIDTH 8 0
BBX 7 18 1 0
BITMAP
00BC
02E0
0280
0000
0000
79B8
7FF8
7F40
7C00
7800
7800
7800
7800
7800
7800
7800
7800
7800
ENDCHAR
STARTCHAR uni0156
ENCODING 342
SWIDTH 615 0
DWIDTH 15 0
BBX 13 23 2 -6
BITMAP
FFFE8000
FFFFF400
F401BC00
F4003D00
F4002E00
F4002E00
F4007D00
F401F800
FFFFE000
FFFF8000
F407C000
F403D000
F401F000
F400F800
F4007C00
F4002E00
F4001F40
00000000
00F40000
00F00000
00F00000
02E00000
01800000
ENDCHAR
STARTCHAR uni0157
ENCODING 343
SWIDTH 338 0
DWIDTH 8 0
BBX 7 19 1 -6
BITMAP
79B8
7FF8
7F40
7C00
7800
7800
7800
7800
7800
7800
7800
7800
7800
0000
3C00
7C00
7800
B400
6000
ENDCHAR
STARTCHAR Rcaron
ENCODING 344
SWIDTH 615 0
DWIDTH 15 0
BBX 13 21 2 0
BITMAP
1E0B4000
03AD0000
00F40000
00000000
FFFE8000
FFFFF400
F401BC00
F4003D00
F4002E00
F4002E00
F4007D00
F401F800
FFFFE000
FFFF8000
F407C000
F403D000
F401F000
F400F800
F4007C00
F4002E00
F4001F40
ENDCHAR
STARTCHAR rcaron
ENCODING 345
SWIDTH 338 0
DWIDTH 8 0
BBX 7 18 1 0
BITMAP
743C
1EF0
07C0
0000
0000
79B8
7FF8
7F40
7C00
7800
7800
7800
7800
7800
7800
7800
7800
7800
ENDCHAR
STARTCHAR Sacute
ENCODING 346
SWIDTH 593 0
DWIDTH 14 0
BBX 13 21 1 0
BITMAP
0003D000
000F4000
001D0000
00000000
01BF9000
1FFFF800
3E407D00
7C001F00
78000F40
7C000100
3F400000
1FF90000
01FFE000
001BFC00
00007E00
50001F40
F4000F40
B8001F40
7E407E00
1FFFFC00
01BF9000
ENDCHAR
STARTCHAR sacute
ENCODING 347
SWIDTH 515 0
DWIDTH 12 0
BBX 10 18 1 0
BITMAP
000B80
002E00
006800
000000
000000
06FE00
2FEFC0
7D02E0
7801F0
7D0000
2FA400
07FF40
001BE0
0001F0
B400F0
7D02F0
2FEFD0
06FE40
ENDCHAR
STARTCHAR Scircumflex
ENCODING 348
SWIDTH 593 0
DWIDTH 14 0
BBX 13 21 1 0
BITMAP
003E0000
01FB8000
02C1D000
00000000
01BF9000
1FFFF800
3E407D00
7C001F00
78000F40
7C000100
3F400000
1FF90000
01FFE000
001BFC00
00007E00
50001F40
F4000F40
B8001F40
7E407E00
1FFFFC00
01BF9000
ENDCHAR
STARTCHAR scircumflex
ENCODING 349
SWIDTH 515 0
DWIDTH 12 0
BBX 10 18 1 0
BITMAP
00B800
02DF40
0B4780
000000
000000
06FE00
2FEFC0
7D02E0
7801F0
7D0000
2FA400
07FF40
001BE0
0001F0
B400F0
7D02F0
2FEFD0
06FE40
ENDCHAR
STARTCHAR Scedilla
ENCODING 350
SWIDTH 593 0
DWIDTH 14 0
BBX 13 22 1 -5
BITMAP
01BF9000
1FFFF800
3E407D00
7C001F00
78000F40
7C000100
3F400000
1FF90000
01FFE000
001BFC00
00007E00
50001F40
F4000F40
B8001F40
7E407E00
1FFFFC00
01BF9000
001D0000
001B8000
00038000
001B8000
002E0000
ENDCHAR
STARTCHAR scedilla
ENCODING 351
SWIDTH 515 0
DWIDTH 12 0
BBX 10 18 1 -5
BITMAP
06FE00
2FEFC0
7D02E0
7801F0
7D0000
2FA400
07FF40
001BE0
0001F0
B400F0
7D02F0
2FEFD0
06FE40
007800
006E00
000B00
001E00
007800
ENDCHAR
STARTCHAR Scaron
ENCODING 352
SWIDTH 593 0
DWIDTH 14 0
BBX 13 21 1 0
BITMAP
03C1D000
00BB4000
002D0000
00000000
01BF9000
1FFFF800
3E407D00
7C001F00
78000F40
7C000100
3F400000
1FF90000
01FFE000
001BFC00
00007E00
50001F40
F4000F40
B8001F40
7E407E00
1FFFFC00
01BF9000
ENDCHAR
STARTCHAR scaron
ENCODING 353
SWIDTH 515 0
DWIDTH 12 0
BBX 10 18 1 0
BITMAP
0B4780
02DE00
00B800
000000
000000
06FE00
2FEFC0
7D02E0
7801F0
7D0000
2FA400
07FF40
001BE0
0001F0
B400F0
7D02F0
2FEFD0
06FE40
ENDCHAR
STARTCHAR uni0162
ENCODING 354
SWIDTH 596 0
DWIDTH 14 0
BBX 14 22 0 -5
BITMAP
7FFFFFE0
7FFFFFE0
000F4000
000F4000
000F4000
000F4000
000F4000
000F4000
000F4000
000F4000
000F4000
000F4000
000F4000
000F4000
000F4000
000F4000
000F4000
000B4000
000BD000
0000E000
0006D000
000E4000
ENDCHAR
STARTCHAR uni0163
ENCODING 355
SWIDTH 326 0
DWIDTH 8 0
BBX 8 21 0 -5
BITMAP
0B80
0B80
0B80
FFFC
AFE8
0B80
0B80
0B80
0B80
0B80
0B80
0B80
0B80
0780
07FC
01FC
00B4
006D
000E
006E
00B8
ENDCHAR
STARTCHAR Tcaron
ENCODING 356
SWIDTH 596 0
DWIDTH 14 0
BBX 14 21 0 0
BITMAP
00E0B400
003AD000
000F4000
00000000
7FFFFFE0
7FFFFFE0
000F4000
000F4000
000F4000
000F4000
000F4000
000F4000
000F4000
000F4000
000F4000
000F4000
000F4000
000F4000
000F4000
000F4000
000F4000
ENDCHAR
STARTCHAR tcaron
ENCODING 357
SWIDTH 346 0
DWIDTH 8 0
BBX 9 20 0 0
BITMAP
000780
000780
000B80
000F00
0B8900
0B8000
0B8000
FFFC00
AFE800
0B8000
0B8000
0B8000
0B8000
0B8000
0B8000
0B8000
0B8000
078000
07FC00
01FC00
ENDCHAR
STARTCHAR Tbar
ENCODING 358
SWIDTH 596 0
DWIDTH 14 0
BBX 14 17 0 0
BITMAP
7FFFFFE0
7FFFFFE0
000F4000
000F4000
000F4000
000F4000
01FFFC00
01AFA800
000F4000
000F4000
000F4000
000F4000
000F4000
000F4000
000F4000
000F4000
000F4000
ENDCHAR
STARTCHAR tbar
ENCODING 359
SWIDTH 326 0
DWIDTH 8 0
BBX 8 16 0 0
BITMAP
0B80
0B80
0B80
FFFC
AFE8
0B80
0B80
FFFD
AFE9
0B80
0B80
0B80
0B80
0780
07FC
01FC
ENDCHAR
STARTCHAR Utilde
ENCODING 360
SWIDTH 648 0
DWIDTH 16 0
BBX 13 21 1 0
BITMAP
00A42800
03FFB800
0746E000
00000000
7C0007C0
7C0007C0
7C0007C0
7C0007C0
7C0007C0
7C0007C0
7C0007C0
7C0007C0
7C0007C0
7C0007C0
7C0007C0
7C0007C0
7C0007C0
3D000B80
1F402F00
0BFFFD00
01BFA000
ENDCHAR
STARTCHAR utilde
ENCODING 361
SWIDTH 551 0
DWIDTH 13 0
BBX 11 18 1 0
BITMAP
0290A0
0FFAE0
1D1F80
000000
000000
7800B8
7800B8
7800B8
7800B8
7800B8
7800B8
7800B8
7800B8
7800B8
7C00B8
3E02F8
2FFFF8
07F9B8
ENDCHAR
STARTCHAR Umacron
ENCODING 362
SWIDTH 648 0
DWIDTH 16 0
BBX 13 21 1 0
BITMAP
02AAA800
03FFF800
00000000
00000000
7C0007C0
7C0007C0
7C0007C0
7C0007C0
7C0007C0
7C0007C0
7C0007C0
7C0007C0
7C0007C0
7C0007C0
7C0007C0
7C0007C0
7C0007C0
3D000B80
1F402F00
0BFFFD00
01BFA000
ENDCHAR
STARTCHAR umacron
ENCODING 363
SWIDTH 551 0
DWIDTH 13 0
BBX 11 17 1 0
BITMAP
0AAA90
1FFFE0
000000
000000
7800B8
7800B8
7800B8
7800B8
7800B8
7800B8
7800B8
7800B8
7800B8
7C00B8
3E02F8
2FFFF8
07F9B8
ENDCHAR
STARTCHAR Ubreve
ENCODING 364
SWIDTH 648 0
DWIDTH 16 0
BBX 13 21 1 0
BITMAP
02D0B400
01E6F000
006F8000
00000000
7C0007C0
7C0007C0
7C0007C0
7C0007C0
7C0007C0
7C0007C0
7C0007C0
7C0007C0
7C0007C0
7C0007C0
7C0007C0
7C0007C0
7C0007C0
3D000B80
1F402F00
0BFFFD00
01BFA000
ENDCHAR
STARTCHAR ubreve
ENCODING 365
SWIDTH 551 0
DWIDTH 13 0
BBX 11 17 1 0
BITMAP
0B02C0
079B80
01BE00
000000
7800B8
7800B8
7800B8
7800B8
7800B8
7800B8
7800B8
7800B8
7800B8
7C00B8
3E02F8
2FFFF8
07F9B8
ENDCHAR
STARTCHAR Uring
ENCODING 366
SWIDTH 648 0
DWIDTH 16 0
BBX 13 23 1 0
BITMAP
002F4000
0071C000
0090D000
0061C000
002F4000
00000000
7C0007C0
7C0007C0
7C0007C0
7C0007C0
7C0007C0
7C0007C0
7C0007C0
7C0007C0
7C0007C0
7C0007C0
7C0007C0
7C0007C0
7C0007C0
3D000B80
1F402F00
0BFFFD00
01BFA000
ENDCHAR
STARTCHAR uring
ENCODING 367
SWIDTH 551 0
DWIDTH 13 0
BBX 11 19 1 0
BITMAP
00B900
028700
024300
028700
00B900
000000
7800B8
7800B8
7800B8
7800B8
7800B8
7800B8
7800B8
7800B8
7800B8
7C00B8
3E02F8
2FFFF8
07F9B8
ENDCHAR
STARTCHAR Uhungarumlaut
ENCODING 368
SWIDTH 648 0
DWIDTH 16 0
BBX 13 22 1 0
BITMAP
001F1F00
003D7D00
00B8F400
00B1E000
00000000
7C0007C0
7C0007C0
7C0007C0
7C0007C0
7C0007C0
7C0007C0
7C0007C0
7C0007C0
7C0007C0
7C0007C0
7C0007C0
7C0007C0
7C0007C0
3D000B80
1F402F00
0BFFFD00
01BFA000
ENDCHAR
STARTCHAR uhungarumlaut
ENCODING 369
SWIDTH 551 0
DWIDTH 13 0
BBX 11 19 1 0
BITMAP
00B8B8
00F1F0
02D7D0
028B40
000000
000000
7800B8
7800B8
7800B8
7800B8
7800B8
7800B8
7800B8
7800B8
7800B8
7C00B8
3E02F8
2FFFF8
07F9B8
ENDCHAR
STARTCHAR Uogonek
ENCODING 370
SWIDTH 648 0
DWIDTH 16 0
BBX 13 22 1 -5
BITMAP
7C0007C0
7C0007C0
7C0007C0
7C0007C0
7C0007C0
7C0007C0
7C0007C0
7C0007C0
7C0007C0
7C0007C0
7C0007C0
7C0007C0
7C0007C0
3D000B80
1F402F00
0BFFFD00
01BFE000
00078000
000B4000
000F0000
000BA000
0002E000
ENDCHAR
STARTCHAR uogonek
ENCODING 371
SWIDTH 551 0
DWIDTH 13 0
BBX 11 18 1 -5
BITMAP
7800B8
7800B8
7800B8
7800B8
7800B8
7800B8
7800B8
7800B8
7800B8
7C00B8
3E02F8
2FFFF8
07F9B8
0001E0
000380
000780
0007E8
0002F4
ENDCHAR
STARTCHAR Wcircumflex
ENCODING 372
SWIDTH 887 0
DWIDTH 21 0
BBX 20 21 1 0
BITMAP
00007D0000
0002EB4000
0007828000
0000000000
F0007C002E
F400BC002D
B800FD003D
7800FE007C
7C01EF00B8
3D02DB40B4
2D03C780F4
1E078381F0
1F0B42C1E0
0F0F02D2D0
0B4E01E3D0
079E00F3C0
07AD00B780
03FC007F40
02F8003F40
02F4003F00
01F0002E00
ENDCHAR
STARTCHAR wcircumflex
ENCODING 373
SWIDTH 751 0
DWIDTH 18 0
BBX 18 18 0 0
BITMAP
0001F40000
000BAD0000
001A0A4000
0000000000
0000000000
7800F002D0
3C01F403C0
2D02F80780
2E03FC0B40
1E07AD0B40
0F0B5E0F00
0B4F0E1E00
079E0B2D00
03DD076C00
02FC03B800
02F802F400
01F401F400
00F000F000
ENDCHAR
STARTCHAR Ycircumflex
ENCODING 374
SWIDTH 600 0
DWIDTH 14 0
BBX 14 21 0 0
BITMAP
000F4000
007EE000
00B07400
00000000
BC0002F0
3E0003D0
1F000B80
0F801F40
07C02E00
02E07C00
01F0B800
00B9F000
003FD000
002FC000
000F4000
000F4000
000F4000
000F4000
000F4000
000F4000
000F4000
ENDCHAR
STARTCHAR ycircumflex
ENCODING 375
SWIDTH 473 0
DWIDTH 11 0
BBX 11 23 0 -5
BITMAP
007D00
02EB40
068290
000000
000000
B8007C
7C00B8
3D00F4
1E01F0
0F02E0
0B43D0
078780
03CB40
02DF00
01FE00
00FD00
00BC00
007800
00B400
00F000
02E000
3FC000
3E0000
ENDCHAR
STARTCHAR Ydieresis
ENCODING 376
SWIDTH 600 0
DWIDTH 14 0
BBX 14 21 0 0
BITMAP
00501400
01F07C00
01E07800
00000000
BC0002F0
3E0003D0
1F000B80
0F801F40
07C02E00
02E07C00
01F0B800
00B9F000
003FD000
002FC000
000F4000
000F4000
000F4000
000F4000
000F4000
000F4000
000F4000
ENDCHAR
STARTCHAR Zacute
ENCODING 377
SWIDTH 598 0
DWIDTH 14 0
BBX 13 21 1 0
BITMAP
0007D000
000F4000
002D0000
00000000
FFFFFF00
BFFFFF00
00003D00
0000B800
0001F000
0007D000
000F8000
002F0000
007D0000
00F80000
02F00000
07D00000
0F800000
2E000000
7C000000
FFFFFF40
FFFFFF40
ENDCHAR
STARTCHAR zacute
ENCODING 378
SWIDTH 495 0
DWIDTH 12 0
BBX 10 18 1 0
BITMAP
001F40
007D00
00B400
000000
000000
FFFFE0
AAABE0
0007C0
001F40
003E00
00B800
01F400
03D000
0B8000
2F0000
7D0000
FEAAA0
FFFFF0
ENDCHAR
STARTCHAR Zdotaccent
ENCODING 379
SWIDTH 598 0
DWIDTH 14 0
BBX 13 21 1 0
BITMAP
00140000
003D0000
002D0000
00000000
FFFFFF00
BFFFFF00
00003D00
0000B800
0001F000
0007D000
000F8000
002F0000
007D0000
00F80000
02F00000
07D00000
0F800000
2E000000
7C000000
FFFFFF40
FFFFFF40
ENDCHAR
STARTCHAR zdotaccent
ENCODING 380
SWIDTH 495 0
DWIDTH 12 0
BBX 10 18 1 0
BITMAP
005000
01F400
00F000
000000
000000
FFFFE0
AAABE0
0007C0
001F40
003E00
00B800
01F400
03D000
0B8000
2F0000
7D0000
FEAAA0
FFFFF0
ENDCHAR
STARTCHAR Zcaron
ENCODING 381
SWIDTH 598 0
DWIDTH 14 0
BBX 13 21 1 0
BITMAP
03C2D000
00FB4000
003D0000
00000000
FFFFFF00
BFFFFF00
00003D00
0000B800
0001F000
0007D000
000F8000
002F0000
007D0000
00F80000
02F00000
07D00000
0F800000
2E000000
7C000000
FFFFFF40
FFFFFF40
ENDCHAR
STARTCHAR zcaron
ENCODING 382
SWIDTH 495 0
DWIDTH 12 0
BBX 10 18 1 0
BITMAP
1E0B40
07AD00
01F400
000000
000000
FFFFE0
AAABE0
0007C0
001F40
003E00
00B800
01F400
03D000
0B8000
2F0000
7D0000
FEAAA0
FFFFF0
ENDCHAR
STARTCHAR longs
ENCODING 383
SWIDTH 248 0
DWIDTH 6 0
BBX 6 18 2 0
BITMAP
1BD0
7F90
F800
F000
F000
F000
F000
F000
F000
F000
F000
F000
F000
F000
F000
F000
F000
F000
ENDCHAR
STARTCHAR uni018F
ENCODING 399
SWIDTH 690 0
DWIDTH 17 0
BBX 15 17 1 0
BITMAP
06BF9000
1FFFFD00
09006F40
00000BC0
000002E0
000001F0
000000F0
000000F4
FFFFFFF4
FEAAAAF4
F40001F0
B40001F0
780002E0
3D0007C0
1F402F40
07FFFD00
00BFE000
ENDCHAR
STARTCHAR florin
ENCODING 402
SWIDTH 340 0
DWIDTH 8 0
BBX 9 23 -1 -5
BITMAP
002FC0
00BFC0
01F400
01E000
01E000
1FFF00
1AFA00
01E000
01E000
01E000
01E000
01E000
01E000
01E000
01E000
01E000
01E000
01E000
01E000
02E000
02D000
6FC000
7E4000
ENDCHAR
STARTCHAR Ohorn
ENCODING 416
SWIDTH 686 0
DWIDTH 16 0
BBX 16 19 1 0
BITMAP
00000005
0000001E
006FE01E
07FFFD7C
1F906FF4
2E000BC0
7C0003D0
B80002E0
B80001E0
B40001F0
B40001F0
B40001F0
B80001E0
B80002E0
7C0003D0
2E000BC0
1F902F40
07FFFD00
006FA000
ENDCHAR
STARTCHAR ohorn
ENCODING 417
SWIDTH 571 0
DWIDTH 14 0
BBX 13 15 1 0
BITMAP
00000040
000002C0
01BE42C0
0FEFEB80
2E01FE00
7C007C00
B8003D00
F4002E00
F4002E00
F4002E00
B8003D00
7C007C00
2E01F800
0FEFE000
02FE4000
ENDCHAR
STARTCHAR Uhorn
ENCODING 431
SWIDTH 695 0
DWIDTH 17 0
BBX 18 18 1 0
BITMAP
00000002D0
7C0007C2D0
7C0007C7C0
7C0007EF40
7C0007F900
7C0007C000
7C0007C000
7C0007C000
7C0007C000
7C0007C000
7C0007C000
7C0007C000
7C0007C000
7C0007C000
3D000B8000
1F402F0000
0BFFFD0000
01BFA00000
ENDCHAR
STARTCHAR uhorn
ENCODING 432
SWIDTH 618 0
DWIDTH 15 0
BBX 14 14 1 0
BITMAP
000000B0
7800B8B0
7800BAE0
7800BE40
7800B800
7800B800
7800B800
7800B800
7800B800
7800B800
7C00B800
3E02F800
2FFFF800
07F9B800
ENDCHAR
STARTCHAR uni01F0
ENCODING 496
SWIDTH 251 0
DWIDTH 6 0
BBX 8 23 -1 -5
BITMAP
782D
1EB4
03D0
0000
0000
03D0
03D0
03D0
03D0
03D0
03D0
03D0
03D0
03D0
03D0
03D0
03D0
03D0
03D0
03C0
07C0
AF40
BD00
ENDCHAR
STARTCHAR Aringacute
ENCODING 506
SWIDTH 652 0
DWIDTH 16 0
BBX 15 23 0 0
BITMAP
00007800
0001D000
00000000
0007D000
000C6000
000C6000
000BD000
000BD000
000FE000
002EF000
003DB800
007C7C00
00B83D00
00F02E00
01E00F00
02D00B40
07C007C0
0BFFFFD0
0FFFFFE0
1F0001F0
2E0000F4
3D0000B8
7C00003C
ENDCHAR
STARTCHAR aringacute
ENCODING 507
SWIDTH 543 0
DWIDTH 13 0
BBX 11 20 1 0
BITMAP
000B80
001D00
000000
007D00
00C600
00C600
007D00
06FE40
1FEFD0
7D02F0
6400F4
0000F4
06FFF4
2FAAF4
7D00F4
B800F4
B800F4
7D07F4
3FFFF4
0BF8B8
ENDCHAR
STARTCHAR AEacute
ENCODING 508
SWIDTH 934 0
DWIDTH 22 0
BBX 22 21 0 0
BITMAP
000001F40000
000007D00000
00000B400000
000000000000
00001FFFFFD0
00002FEAAA90
00007FD00000
0000F7D00000
0002E3D00000
0007D2D00000
000B82D00000
001F02FFFF40
003E02FAAA40
00BC02E00000
01F402E00000
02FFFFE00000
07FFFFE00000
0F8002E00000
2F0001E00000
7D0001FAAAA0
F80001FFFFF0
ENDCHAR
STARTCHAR aeacute
ENCODING 509
SWIDTH 844 0
DWIDTH 20 0
BBX 19 18 1 0
BITMAP
00001F4000
00007D0000
0000B40000
0000000000
0000000000
06FE06FE00
3FEFDFEFD0
BD02FD02E0
6401F800F4
0001F000B4
0BFFFFFFF4
7FAAFAAAA4
B801F00000
F401F40000
F401F80000
F807FE0060
7FBF9FEFF0
1BF902FE80
ENDCHAR
STARTCHAR Oslashacute
ENCODING 510
SWIDTH 687 0
DWIDTH 17 0
BBX 14 22 1 -1
BITMAP
0000F800
0003D000
00074000
00000050
006FE4E0
03FFFEC0
0FD01F80
2F000FC0
3D002FE0
7C0079E0
7800B1F0
B801D0F0
B80380F0
B80B00F0
781D01F0
7C3801E0
3DB002E0
2FD007C0
0FD01F40
0BFFFE00
1D6FE400
28000000
ENDCHAR
STARTCHAR oslashacute
ENCODING 511
SWIDTH 566 0
DWIDTH 14 0
BBX 12 20 1 -2
BITMAP
001F40
003D00
007400
000010
000070
01BEE0
0FEFE0
2E02F8
7C077C
B80A3D
F41D2E
F4282E
F4702E
B8A03D
7DC07C
3F81F4
0FEFE0
0AFE40
1D0000
140000
ENDCHAR
STARTCHAR uni0218
ENCODING 536
SWIDTH 593 0
DWIDTH 14 0
BBX 13 23 1 -6
BITMAP
01BF9000
1FFFF800
3E407D00
7C001F00
78000F40
7C000100
3F400000
1FF90000
01FFE000
001BFC00
00007E00
50001F40
F4000F40
B8001F40
7E407E00
1FFFFC00
01BF9000
00000000
002D0000
002D0000
003C0000
00780000
00240000
ENDCHAR
STARTCHAR uni0219
ENCODING 537
SWIDTH 515 0
DWIDTH 12 0
BBX 10 19 1 -6
BITMAP
06FE00
2FEFC0
7D02E0
7801F0
7D0000
2FA400
07FF40
001BE0
0001F0
B400F0
7D02F0
2FEFD0
06FE40
000000
007800
00B800
00B400
00F000
009000
ENDCHAR
STARTCHAR uni021A
ENCODING 538
SWIDTH 596 0
DWIDTH 14 0
BBX 14 23 0 -6
BITMAP
7FFFFFE0
7FFFFFE0
000F4000
000F4000
000F4000
000F4000
000F4000
000F4000
000F4000
000F4000
000F4000
000F4000
000F4000
000F4000
000F4000
000F4000
000F4000
00000000
000F4000
000F0000
000F0000
001E0000
00180000
ENDCHAR
STARTCHAR uni021B
ENCODING 539
SWIDTH 326 0
DWIDTH 8 0
BBX 7 22 0 -6
BITMAP
0B80
0B80
0B80
FFFC
AFE8
0B80
0B80
0B80
0B80
0B80
0B80
0B80
0B80
0780
07FC
01FC
0000
00B4
00B4
00F0
01E0
0180
ENDCHAR
STARTCHAR uni0237
ENCODING 567
SWIDTH 251 0
DWIDTH 6 0
BBX 6 18 -1 -5
BITMAP
03D0
03D0
03D0
03D0
03D0
03D0
03D0
03D0
03D0
03D0
03D0
03D0
03D0
03D0
03C0
07C0
AF40
BD00
ENDCHAR
STARTCHAR uni0259
ENCODING 601
SWIDTH 526 0
DWIDTH 13 0
BBX 11 13 1 0
BITMAP
0BF900
7FAF80
2402E0
0001F4
0000B8
0000B8
FFFFF8
BEAAF8
B400B8
B800F0
7D02E0
1FEF80
06F900
ENDCHAR
STARTCHAR uni02BC
ENCODING 700
SWIDTH 199 0
DWIDTH 5 0
BBX 3 6 1 12
BITMAP
78
78
78
B4
F0
90
ENDCHAR
STARTCHAR circumflex
ENCODING 710
SWIDTH 470 0
DWIDTH 11 0
BBX 7 3 2 15
BITMAP
0B80
2DF0
B478
ENDCHAR
STARTCHAR caron
ENCODING 711
SWIDTH 443 0
DWIDTH 11 0
BBX 7 3 2 15
BITMAP
F074
3ED0
0B40
ENDCHAR
STARTCHAR uni02C9
ENCODING 713
SWIDTH 458 0
DWIDTH 11 0
BBX 9 2 1 15
BITMAP
7FFF80
7FFF80
ENDCHAR
STARTCHAR breve
ENCODING 728
SWIDTH 426 0
DWIDTH 10 0
BBX 8 3 1 14
BITMAP
741D
3D7C
1BE4
ENDCHAR
STARTCHAR dotaccent
ENCODING 729
SWIDTH 242 0
DWIDTH 6 0
BBX 3 3 1 15
BITMAP
14
7C
3C
ENDCHAR
STARTCHAR ring
ENCODING 730
SWIDTH 334 0
DWIDTH 8 0
BBX 6 5 1 14
BITMAP
1F40
75D0
A090
75D0
2F40
ENDCHAR
STARTCHAR ogonek
ENCODING 731
SWIDTH 270 0
DWIDTH 7 0
BBX 5 6 0 -5
BITMAP
0640
1E00
3800
7800
7E80
2F40
ENDCHAR
STARTCHAR tilde
ENCODING 732
SWIDTH 471 0
DWIDTH 11 0
BBX 9 3 1 15
BITMAP
1A4280
3FEB40
747E00
ENDCHAR
STARTCHAR hungarumlaut
ENCODING 733
SWIDTH 373 0
DWIDTH 9 0
BBX 9 4 1 14
BITMAP
1F1F40
2D3D00
78B800
75A000
ENDCHAR
STARTCHAR uni02F3
ENCODING 755
SWIDTH 293 0
DWIDTH 7 0
BBX 5 4 1 -5
BITMAP
2E00
6240
6240
2E00
ENDCHAR
STARTCHAR gravecomb
ENCODING 768
SWIDTH 0 0
DWIDTH 0 0
BBX 5 3 -10 15
BITMAP
BC00
2F00
0B40
ENDCHAR
STARTCHAR acutecomb
ENCODING 769
SWIDTH 0 0
DWIDTH 0 0
BBX 5 3 -8 15
BITMAP
0B80
2E00
7800
ENDCHAR
STARTCHAR tildecomb
ENCODING 771
SWIDTH 0 0
DWIDTH 0 0
BBX 9 3 -11 15
BITMAP
0A4280
3FEB80
747E00
ENDCHAR
STARTCHAR hookabovecomb
ENCODING 777
SWIDTH 0 0
DWIDTH 0 0
BBX 4 5 -8 15
BITMAP
B8
6D
0E
BD
B0
ENDCHAR
STARTCHAR uni030F
ENCODING 783
SWIDTH 0 0
DWIDTH 0 0
BBX 8 3 -11 15
BITMAP
B9F4
2E7D
0B5E
ENDCHAR
STARTCHAR dotbelowcomb
ENCODING 803
SWIDTH 0 0
DWIDTH 0 0
BBX 3 3 -9 -5
BITMAP
3C
7C
14
ENDCHAR
STARTCHAR tonos
ENCODING 900
SWIDTH 256 0
DWIDTH 6 0
BBX 3 4 2 15
BITMAP
78
74
B0
A0
ENDCHAR
STARTCHAR dieresistonos
ENCODING 901
SWIDTH 505 0
DWIDTH 12 0
BBX 10 5 1 15
BITMAP
007800
00B400
10A140
B803D0
7802D0
ENDCHAR
STARTCHAR Alphatonos
ENCODING 902
SWIDTH 652 0
DWIDTH 16 0
BBX 15 19 0 0
BITMAP
07800000
07400000
0B07C000
0A0BD000
000FE000
002EF000
003DB800
007C7C00
00B83D00
00F02E00
01E00F00
02D00B40
07C007C0
0BFFFFD0
0FFFFFE0
1F0001F0
2E0000F4
3D0000B8
7C00003C
ENDCHAR
STARTCHAR anoteleia
ENCODING 903
SWIDTH 261 0
DWIDTH 6 0
BBX 4 3 1 7
BITMAP
3C
7D
18
ENDCHAR
STARTCHAR Epsilontonos
ENCODING 904
SWIDTH 568 0
DWIDTH 14 0
BBX 16 19 -3 0
BITMAP
3C000000
38000000
743FFFFE
603FFFFE
003D0000
003D0000
003D0000
003D0000
003D0000
003FFFF8
003FFFF8
003D0000
003D0000
003D0000
003D0000
003D0000
003D0000
003FFFFE
003FFFFE
ENDCHAR
STARTCHAR Etatonos
ENCODING 905
SWIDTH 712 0
DWIDTH 17 0
BBX 18 19 -3 0
BITMAP
2C00000000
3800000000
743D0001F0
603D0001F0
003D0001F0
003D0001F0
003D0001F0
003D0001F0
003D0001F0
003FFFFFF0
003FFFFFF0
003D0001F0
003D0001F0
003D0001F0
003D0001F0
003D0001F0
003D0001F0
003D0001F0
003D0001F0
ENDCHAR
STARTCHAR Iotatonos
ENCODING 906
SWIDTH 271 0
DWIDTH 7 0
BBX 7 19 -2 0
BITMAP
B400
F000
E0F4
90F4
00F4
00F4
00F4
00F4
00F4
00F4
00F4
00F4
00F4
00F4
00F4
00F4
00F4
00F4
00F4
ENDCHAR
STARTCHAR Omicrontonos
ENCODING 908
SWIDTH 697 0
DWIDTH 17 0
BBX 16 19 0 0
BITMAP
B4000000
F0000000
E01BF900
90BFFF80
02F407E0
07D001F4
0B8000B8
0F40007C
1F00003D
1F00003D
1F00003D
1F00003D
1F00003D
0F40007C
0B8000B8
07D000F4
02F407E0
00BFFF80
001BF900
ENDCHAR
STARTCHAR Upsilontonos
ENCODING 910
SWIDTH 649 0
DWIDTH 16 0
BBX 18 19 -3 0
BITMAP
7800000000
7400000000
B07D0001F0
602E0003E0
001F4007C0
000B800F40
0007D02F00
0002E03D00
0000F4B800
0000B8F400
00003FE000
00001FC000
00000F8000
00000B4000
00000B4000
00000B4000
00000B4000
00000B4000
00000B4000
ENDCHAR
STARTCHAR Omegatonos
ENCODING 911
SWIDTH 674 0
DWIDTH 16 0
BBX 15 19 0 0
BITMAP
B4000000
F0000000
E01BE400
90FFFF40
03E40BC0
0B8002E0
0F4000F0
1F0000F4
1F0000B8
1F0000B8
1F0000B8
1F0000B8
1F0000B4
0F4000F0
0B8001E0
03C002D0
01F40B80
1FFD3FF4
1FFD3FF8
ENDCHAR
STARTCHAR iotadieresistonos
ENCODING 912
SWIDTH 323 0
DWIDTH 8 0
BBX 9 20 -1 0
BITMAP
00F000
01E000
519140
F407C0
F00780
000000
000000
02D000
02D000
02D000
02D000
02D000
02D000
02D000
02D000
02D000
02D000
02E000
01FE00
007E00
ENDCHAR
STARTCHAR Alpha
ENCODING 913
SWIDTH 652 0
DWIDTH 16 0
BBX 15 17 0 0
BITMAP
0007C000
000BD000
000FE000
002EF000
003DB800
007C7C00
00B83D00
00F02E00
01E00F00
02D00B40
07C007C0
0BFFFFD0
0FFFFFE0
1F0001F0
2E0000F4
3D0000B8
7C00003C
ENDCHAR
STARTCHAR Beta
ENCODING 914
SWIDTH 622 0
DWIDTH 15 0
BBX 12 17 2 0
BITMAP
FFFE80
FFFFF4
F401F8
F4007C
F4007C
F4007C
F401F4
FFFFD0
FEAFE0
F400BC
F4003D
F4002E
F4002E
F4003D
F401BC
FFFFF4
FFFF80
ENDCHAR
STARTCHAR Gamma
ENCODING 915
SWIDTH 556 0
DWIDTH 13 0
BBX 11 17 2 0
BITMAP
FFFFF8
FFFFF4
F40000
F40000
F40000
F40000
F40000
F40000
F40000
F40000
F40000
F40000
F40000
F40000
F40000
F40000
F40000
ENDCHAR
STARTCHAR uni0394
ENCODING 916
SWIDTH 705 0
DWIDTH 17 0
BBX 16 17 0 0
BITMAP
0002E000
0003F000
0007F800
000F7C00
001E2D00
002D1E00
007C0F00
00B80B80
00F407C0
01E003D0
03D001E0
07C000F0
0B8000B8
0F00007C
2E00003D
3FFFFFFE
7FFFFFFF
ENDCHAR
STARTCHAR Epsilon
ENCODING 917
SWIDTH 568 0
DWIDTH 14 0
BBX 11 17 2 0
BITMAP
FFFFF8
FFFFF8
F40000
F40000
F40000
F40000
F40000
FFFFE0
FFFFE0
F40000
F40000
F40000
F40000
F40000
F40000
FFFFF8
FFFFF8
ENDCHAR
STARTCHAR Zeta
ENCODING 918
SWIDTH 598 0
DWIDTH 14 0
BBX 13 17 1 0
BITMAP
FFFFFF00
BFFFFF00
00003D00
0000B800
0001F000
0007D000
000F8000
002F0000
007D0000
00F80000
02F00000
07D00000
0F800000
2E000000
7C000000
FFFFFF40
FFFFFF40
ENDCHAR
STARTCHAR Eta
ENCODING 919
SWIDTH 712 0
DWIDTH 17 0
BBX 13 17 2 0
BITMAP
F40007C0
F40007C0
F40007C0
F40007C0
F40007C0
F40007C0
F40007C0
FFFFFFC0
FFFFFFC0
F40007C0
F40007C0
F40007C0
F40007C0
F40007C0
F40007C0
F40007C0
F40007C0
ENDCHAR
STARTCHAR Theta
ENCODING 920
SWIDTH 680 0
DWIDTH 16 0
BBX 14 17 1 0
BITMAP
006FA000
07FFFD00
0F902F40
2E000BC0
7C0003D0
780002E0
B80001E0
B4BFF5F0
B4AAA5F0
B40001F0
B80001E0
B80002E0
7C0003D0
2E000BC0
0F902F40
07FFFD00
006FA000
ENDCHAR
STARTCHAR Iota
ENCODING 921
SWIDTH 271 0
DWIDTH 7 0
BBX 3 17 2 0
BITMAP
F4
F4
F4
F4
F4
F4
F4
F4
F4
F4
F4
F4
F4
F4
F4
F4
F4
ENDCHAR
STARTCHAR Kappa
ENCODING 922
SWIDTH 626 0
DWIDTH 15 0
BBX 13 17 2 0
BITMAP
F4002F00
F400BD00
F401F400
F407D000
F41F4000
F47E0000
F4F80000
F7F00000
FFF80000
FF7D0000
FC2F0000
F40B8000
F403E000
F401F400
F400BD00
F4002F00
F4000F80
ENDCHAR
STARTCHAR Lambda
ENCODING 923
SWIDTH 655 0
DWIDTH 16 0
BBX 15 17 0 0
BITMAP
0007C000
000BD000
000FE000
001FF000
003DB400
007C7800
00B83D00
00F42E00
01F01F00
02E00F40
03D00B80
07C007C0
0B8003D0
0F4002E0
1F0001F0
3E0000F4
7D0000BC
ENDCHAR
STARTCHAR Mu
ENCODING 924
SWIDTH 873 0
DWIDTH 21 0
BBX 17 17 2 0
BITMAP
FC00000FC0
FD00002FC0
FF00003FC0
FF40007FC0
FB8000BBC0
F7C000F7C0
F2E002E7C0
F1F003D7C0
F4F40787C0
F4780B47C0
F43C1F07C0
F42E2E07C0
F41F3C07C0
F40BB807C0
F407F407C0
F403F007C0
F402E007C0
ENDCHAR
STARTCHAR Nu
ENCODING 925
SWIDTH 712 0
DWIDTH 17 0
BBX 13 17 2 0
BITMAP
F80003C0
FD0003C0
FF0003C0
FF8003C0
FBD003C0
F6E003C0
F4F803C0
F47D03C0
F42E03C0
F40F43C0
F407C3C0
F402E3C0
F400FBC0
F4007FC0
F4002FC0
F4001FC0
F4000BC0
ENDCHAR
STARTCHAR Xi
ENCODING 926
SWIDTH 570 0
DWIDTH 14 0
BBX 12 17 1 0
BITMAP
BFFFFD
7FFFFC
000000
000000
000000
000000
000000
2FFFF4
1FFFF4
000000
000000
000000
000000
000000
000000
BFFFFD
BFFFFD
ENDCHAR
STARTCHAR Omicron
ENCODING 927
SWIDTH 687 0
DWIDTH 17 0
BBX 14 17 1 0
BITMAP
006FE400
03FFFD00
0FD02F40
2F0007C0
3D0002E0
7C0001E0
780001F0
B80000F0
B80000F0
B80000F0
780001F0
7C0001E0
3D0002E0
2F0007C0
0F901F40
03FFFE00
006FE400
ENDCHAR
STARTCHAR Pi
ENCODING 928
SWIDTH 713 0
DWIDTH 17 0
BBX 13 17 2 0
BITMAP
FFFFFFC0
FFFFFFC0
F40007C0
F40007C0
F40007C0
F40007C0
F40007C0
F40007C0
F40007C0
F40007C0
F40007C0
F40007C0
F40007C0
F40007C0
F40007C0
F40007C0
F40007C0
ENDCHAR
STARTCHAR Rho
ENCODING 929
SWIDTH 630 0
DWIDTH 15 0
BBX 13 17 2 0
BITMAP
FFFF9000
FFFFF800
F400BD00
F4002F00
F4000F00
F4000F40
F4000F00
F4002F00
F401BD00
FFFFF800
FFFA9000
F4000000
F4000000
F4000000
F4000000
F4000000
F4000000
ENDCHAR
STARTCHAR Sigma
ENCODING 931
SWIDTH 570 0
DWIDTH 14 0
BBX 13 17 0 0
BITMAP
7FFFFF40
3FFFFF40
2F400000
0BC00000
02E00000
00F80000
007D0000
001F4000
000B8000
001F4000
007D0000
00F80000
02E00000
0BC00000
2F400000
3FFFFF80
7FFFFF80
ENDCHAR
STARTCHAR Tau
ENCODING 932
SWIDTH 596 0
DWIDTH 14 0
BBX 14 17 0 0
BITMAP
7FFFFFE0
7FFFFFE0
000F4000
000F4000
000F4000
000F4000
000F4000
000F4000
000F4000
000F4000
000F4000
000F4000
000F4000
000F4000
000F4000
000F4000
000F4000
ENDCHAR
STARTCHAR Upsilon
ENCODING 933
SWIDTH 600 0
DWIDTH 14 0
BBX 14 17 0 0
BITMAP
BC0002F0
3E0003D0
1F000B80
0F801F40
07C02E00
02E07C00
01F0B800
00B9F000
003FD000
002FC000
000F4000
000F4000
000F4000
000F4000
000F4000
000F4000
000F4000
ENDCHAR
STARTCHAR Phi
ENCODING 934
SWIDTH 716 0
DWIDTH 17 0
BBX 16 17 1 0
BITMAP
000B8000
000B8000
01BFF900
0BFFFFD0
2F4B86F0
7C0B80B8
B40B807C
F40B803D
F00B803D
F40B803D
B40B807C
7C0B80B8
2F4B86F0
0BFFFFD0
01BFF900
000B8000
000B8000
ENDCHAR
STARTCHAR Chi
ENCODING 935
SWIDTH 626 0
DWIDTH 15 0
BBX 13 17 1 0
BITMAP
F8000BC0
7D001F40
2F003E00
0F80BC00
07D1F400
02F2E000
00FFC000
007F4000
003F0000
007F8000
00FBD000
02E2F000
07D0F800
0F807D00
2F002E00
7D001F40
F8000BC0
ENDCHAR
STARTCHAR Psi
ENCODING 936
SWIDTH 691 0
DWIDTH 17 0
BBX 15 17 1 0
BITMAP
F40F40F4
F40F40F4
F40F40F4
F40F40F4
F40F40F4
F40F40F4
F40F40F4
B40F40F4
B80F41F0
7D0F43E0
2F9F5FC0
0BFFFE00
01AFE400
000F4000
000F4000
000F4000
000F4000
ENDCHAR
STARTCHAR uni03A9
ENCODING 937
SWIDTH 665 0
DWIDTH 16 0
BBX 14 17 1 0
BITMAP
00AF9000
07FFF800
1F806F00
2E000F80
7C0007C0
780003D0
B80003D0
B80003D0
B80003D0
B80003D0
780003C0
7C0007C0
2D000B80
1E000F00
0B807D00
BFF1FFD0
BFF1FFD0
ENDCHAR
STARTCHAR Iotadieresis
ENCODING 938
SWIDTH 271 0
DWIDTH 7 0
BBX 8 21 -1 0
BITMAP
1405
7C1F
781E
0000
03D0
03D0
03D0
03D0
03D0
03D0
03D0
03D0
03D0
03D0
03D0
03D0
03D0
03D0
03D0
03D0
03D0
ENDCHAR
STARTCHAR Upsilondieresis
ENCODING 939
SWIDTH 600 0
DWIDTH 14 0
BBX 14 21 0 0
BITMAP
00501400
01F07C00
01E07800
00000000
BC0002F0
3E0003D0
1F000B80
0F801F40
07C02E00
02E07C00
01F0B800
00B9F000
003FD000
002FC000
000F4000
000F4000
000F4000
000F4000
000F4000
000F4000
000F4000
ENDCHAR
STARTCHAR alphatonos
ENCODING 940
SWIDTH 564 0
DWIDTH 14 0
BBX 13 19 1 0
BITMAP
000F0000
000E0000
001D0000
00180000
00000000
00000000
06F93800
1FEFB800
3E01F800
7C00B800
B8007800
B4007800
B4007800
B4007800
B8007800
7C00B800
3E01FC00
1FEFBF40
06F91F40
ENDCHAR
STARTCHAR epsilontonos
ENCODING 941
SWIDTH 539 0
DWIDTH 13 0
BBX 11 19 1 0
BITMAP
002C00
003800
007400
006000
000000
000000
06FE40
3FEFE0
7D01F4
B80054
7D0000
1FFE00
2FAA00
7C0000
B40000
B400B8
BD01F4
2FEFE0
06FE40
ENDCHAR
STARTCHAR etatonos
ENCODING 942
SWIDTH 566 0
DWIDTH 14 0
BBX 11 24 1 -5
BITMAP
001D00
002C00
003800
002400
000000
000000
78BF80
7AFFF0
7E01F4
7C00B8
7C0078
7C0078
7C0078
7C0078
7C0078
7C0078
7C0078
7C0078
7C0078
000078
000078
000078
000078
000078
ENDCHAR
STARTCHAR iotatonos
ENCODING 943
SWIDTH 323 0
DWIDTH 8 0
BBX 5 19 2 0
BITMAP
2C00
3800
7400
6000
0000
0000
B400
B400
B400
B400
B400
B400
B400
B400
B400
B400
B800
7F80
1F80
ENDCHAR
STARTCHAR upsilondieresistonos
ENCODING 944
SWIDTH 545 0
DWIDTH 13 0
BBX 11 20 1 0
BITMAP
003C00
007800
146440
7D02F0
3C01E0
000000
000000
7C02E0
7C01F0
7C00F4
7C00B8
7C0078
7C007C
7C007C
7C0078
7C00B8
3C01F4
2E03E0
1FEFC0
06FE00
ENDCHAR
STARTCHAR alpha
ENCODING 945
SWIDTH 564 0
DWIDTH 14 0
BBX 13 13 1 0
BITMAP
06F93800
1FEFB800
3E01F800
7C00B800
B8007800
B4007800
B4007800
B4007800
B8007800
7C00B800
3E01FC00
1FEFBF40
06F91F40
ENDCHAR
STARTCHAR beta
ENCODING 946
SWIDTH 592 0
DWIDTH 14 0
BBX 11 22 2 -5
BITMAP
06FE00
2FFFC0
7D03E0
F401F0
F000F0
F001F0
F007D0
F0FF40
F0AFD0
F001F4
F000B8
F0007C
F0007C
F000B8
F801F4
FFEFE0
F6FE40
F00000
F00000
F00000
F00000
F00000
ENDCHAR
STARTCHAR gamma
ENCODING 947
SWIDTH 500 0
DWIDTH 12 0
BBX 12 18 0 -5
BITMAP
7C002D
3D003C
2E0078
1F00B4
0B40F0
0781E0
03C2D0
02D3C0
01E780
00FF40
00BE00
007D00
003D00
003D00
003D00
003D00
003D00
003D00
ENDCHAR
STARTCHAR delta
ENCODING 948
SWIDTH 566 0
DWIDTH 14 0
BBX 12 18 1 0
BITMAP
01BF80
0BFFD0
1F0040
1F0000
0FD000
02FE00
06FFD0
1F46F4
3C00B8
B8007D
B4003D
F4002D
B4002D
B8003D
7C007C
3E01F4
1FEFE0
02FE40
ENDCHAR
STARTCHAR epsilon
ENCODING 949
SWIDTH 539 0
DWIDTH 13 0
BBX 11 13 1 0
BITMAP
06FE40
3FEFE0
7D01F4
B80054
7D0000
1FFE00
2FAA00
7C0000
B40000
B400B8
BD01F4
2FEFE0
06FE40
ENDCHAR
STARTCHAR zeta
ENCODING 950
SWIDTH 518 0
DWIDTH 12 0
BBX 11 21 1 -4
BITMAP
BFFFF4
AAABF0
0002D0
000B80
002E00
00BC00
01F000
03D000
0B8000
0F0000
1E0000
2D0000
2D0000
2E0000
1F4000
0BF900
01BFD0
0006E0
0001E0
0003C0
000240
ENDCHAR
STARTCHAR eta
ENCODING 951
SWIDTH 566 0
DWIDTH 14 0
BBX 11 18 1 -5
BITMAP
78BF80
7AFFF0
7E01F4
7C00B8
7C0078
7C0078
7C0078
7C0078
7C0078
7C0078
7C0078
7C0078
7C0078
000078
000078
000078
000078
000078
ENDCHAR
STARTCHAR theta
ENCODING 952
SWIDTH 569 0
DWIDTH 14 0
BBX 12 17 1 0
BITMAP
01BE40
0BEFD0
2E01F4
3C00B8
78007C
78003C
B8003D
BFFFFD
BEAABD
B8003D
B8003C
78003C
7C007C
3D00B8
1F41F4
0BEFD0
01BE40
ENDCHAR
STARTCHAR iota
ENCODING 953
SWIDTH 323 0
DWIDTH 8 0
BBX 5 13 2 0
BITMAP
B400
B400
B400
B400
B400
B400
B400
B400
B400
B400
B800
7F80
1F80
ENDCHAR
STARTCHAR kappa
ENCODING 954
SWIDTH 556 0
DWIDTH 13 0
BBX 12 13 1 0
BITMAP
7C00B8
7C02F0
7C0BC0
7C2F40
7C7D00
7FF400
7FF800
7C7D00
7C2F40
7C0BC0
7C03E0
7C01F8
7C007D
ENDCHAR
STARTCHAR lambda
ENCODING 955
SWIDTH 553 0
DWIDTH 13 0
BBX 13 18 0 0
BITMAP
0F800000
0BE00000
01F40000
00F80000
007C0000
003D0000
007E0000
00BF0000
00FF4000
01F7C000
02E3D000
03D2E000
0781F000
0F40F400
1F00B800
2E003D00
3D002F80
7C000B80
ENDCHAR
STARTCHAR uni03BC
ENCODING 956
SWIDTH 566 0
DWIDTH 14 0
BBX 11 18 1 -5
BITMAP
7C0078
7C0078
7C0078
7C0078
7C0078
7C0078
7C0078
7C0078
7C0078
7D0078
7E01F8
7FEFF8
7DFE68
7C0000
7C0000
7C0000
7C0000
7C0000
ENDCHAR
STARTCHAR nu
ENCODING 957
SWIDTH 484 0
DWIDTH 12 0
BBX 11 13 0 0
BITMAP
78007C
3C00B8
2D00B4
1E00F0
0F01E0
0B42D0
0783C0
03C780
02DB40
01EF00
00FE00
00BC00
007800
ENDCHAR
STARTCHAR xi
ENCODING 958
SWIDTH 490 0
DWIDTH 12 0
BBX 10 22 1 -5
BITMAP
01BF90
1FFBD0
2E0000
3D0000
3D0000
1F4000
06FF80
07FA40
2E4000
7C0000
B80000
B40000
B40000
BC0000
3E0000
1FE400
02FF80
0006E0
0000F0
0001E0
0003D0
000240
ENDCHAR
STARTCHAR omicron
ENCODING 959
SWIDTH 570 0
DWIDTH 14 0
BBX 12 13 1 0
BITMAP
01BE40
0FEFE0
2E01F8
7C007C
B8003D
F4002E
F4002E
F4002E
B8003D
7C007C
3E01F8
0FEFE0
02FE40
ENDCHAR
STARTCHAR pi
ENCODING 960
SWIDTH 595 0
DWIDTH 14 0
BBX 14 13 0 0
BITMAP
BFFFFFD0
6FEABF90
0B802E00
0B802E00
0B802E00
0B802E00
0B802E00
0B802E00
0B802E00
0B802E00
0B802E00
0B801FF0
0B8007E0
ENDCHAR
STARTCHAR rho
ENCODING 961
SWIDTH 566 0
DWIDTH 14 0
BBX 12 18 1 -5
BITMAP
01BE40
0BFFE0
1F41F4
2E007C
3C003C
7C003D
7C002D
7C003D
7C003D
7C007C
7E01F8
7FEFE0
7CBF80
7C0000
7C0000
7C0000
7C0000
7C0000
ENDCHAR
STARTCHAR sigma1
ENCODING 962
SWIDTH 537 0
DWIDTH 13 0
BBX 11 17 1 -4
BITMAP
01FE40
0FEFD0
2E01F4
7C00B8
B80064
B40000
B40000
B40000
B80000
7D0000
2F8000
0BFA00
01BFD0
0002E0
0001E0
0003C0
000240
ENDCHAR
STARTCHAR sigma
ENCODING 963
SWIDTH 566 0
DWIDTH 14 0
BBX 13 13 1 0
BITMAP
02FFFF40
0FEFFA40
2E01E000
7C007800
B8003C00
B4002D00
F4002D00
B4002D00
B8003D00
7C007C00
2E01F400
0FEFE000
02FE4000
ENDCHAR
STARTCHAR tau
ENCODING 964
SWIDTH 521 0
DWIDTH 13 0
BBX 11 13 1 0
BITMAP
FFFFF8
AAFAA4
00F400
00F400
00F400
00F400
00F400
00F400
00F400
00F400
00F400
00BF80
002F80
ENDCHAR
STARTCHAR upsilon
ENCODING 965
SWIDTH 545 0
DWIDTH 13 0
BBX 11 13 1 0
BITMAP
7C02E0
7C01F0
7C00F4
7C00B8
7C0078
7C007C
7C007C
7C0078
7C00B8
3C01F4
2E03E0
1FEFC0
06FE00
ENDCHAR
STARTCHAR phi
ENCODING 966
SWIDTH 704 0
DWIDTH 17 0
BBX 15 19 1 -6
BITMAP
0901F900
2F07FF80
3D0B82E0
B80B40F4
B40B40B8
F40B4078
F40B407C
F40B4078
B80B40B8
7D0B41F4
2F4B4BE0
0BFFFF80
01BFF900
000B4000
000B4000
000B4000
000B4000
000B4000
000B4000
ENDCHAR
STARTCHAR chi
ENCODING 967
SWIDTH 495 0
DWIDTH 12 0
BBX 13 18 0 -5
BITMAP
7D002D00
7F407C00
0BC0B800
03D1F000
01E2E000
00F7C000
00BF8000
003F0000
002E0000
003F0000
00BF4000
00FB8000
02E3D000
03D1E000
0780F000
0F40B800
1E003F80
3D001B40
ENDCHAR
STARTCHAR psi
ENCODING 968
SWIDTH 700 0
DWIDTH 17 0
BBX 15 19 1 -6
BITMAP
F40F42E0
F40F41F0
F40F40F4
F40F40B8
F40F40B8
F40F4078
F40F4078
B40F40B8
B80F40F4
3D0F42F0
2F4F4BD0
0BFFFF40
01BFE800
000F4000
000F4000
000F4000
000F4000
000F4000
000F4000
ENDCHAR
STARTCHAR omega
ENCODING 969
SWIDTH 823 0
DWIDTH 20 0
BBX 18 13 1 0
BITMAP
1F00001F00
2E00000F40
3D00000B80
7C005007C0
7801F003D0
B801F003D0
B801F003D0
7801F003D0
7801F003C0
3C02F407C0
2E07BC0F40
0FEF5FBE00
02F906F800
ENDCHAR
STARTCHAR iotadieresis
ENCODING 970
SWIDTH 323 0
DWIDTH 8 0
BBX 9 18 -1 0
BITMAP
140500
7D1F40
3C0F00
000000
000000
02D000
02D000
02D000
02D000
02D000
02D000
02D000
02D000
02D000
02D000
02E000
01FE00
007E00
ENDCHAR
STARTCHAR upsilondieresis
ENCODING 971
SWIDTH 545 0
DWIDTH 13 0
BBX 11 18 1 0
BITMAP
050140
1F07C0
1E0380
000000
000000
7C02E0
7C01F0
7C00F4
7C00B8
7C0078
7C007C
7C007C
7C0078
7C00B8
3C01F4
2E03E0
1FEFC0
06FE00
ENDCHAR
STARTCHAR omicrontonos
ENCODING 972
SWIDTH 570 0
DWIDTH 14 0
BBX 12 19 1 0
BITMAP
002D00
002C00
003800
002400
000000
000000
01BE40
0FEFE0
2E01F8
7C007C
B8003D
F4002E
F4002E
F4002E
B8003D
7C007C
3E01F8
0FEFE0
02FE40
ENDCHAR
STARTCHAR upsilontonos
ENCODING 973
SWIDTH 545 0
DWIDTH 13 0
BBX 11 19 1 0
BITMAP
003C00
003800
007400
006000
000000
000000
7C02E0
7C01F0
7C00F4
7C00B8
7C0078
7C007C
7C007C
7C0078
7C00B8
3C01F4
2E03E0
1FEFC0
06FE00
ENDCHAR
STARTCHAR omegatonos
ENCODING 974
SWIDTH 823 0
DWIDTH 20 0
BBX 18 19 1 0
BITMAP
0000780000
0000B40000
0000B00000
0000A00000
0000000000
0000000000
1F00001F00
2E00000F40
3D00000B80
7C005007C0
7801F003D0
B801F003D0
B801F003D0
7801F003D0
7801F003C0
3C02F407C0
2E07BC0F40
0FEF5FBE00
02F906F800
ENDCHAR
STARTCHAR theta1
ENCODING 977
SWIDTH 578 0
DWIDTH 14 0
BBX 13 17 1 0
BITMAP
006F8000
01FFF000
03E0F400
03C07800
03C07800
03D07800
02F07800
00BDB800
B82FFF40
B806BE40
B8007800
B8007800
B800B800
7C00B800
3E01F000
1FFFD000
02FE4000
ENDCHAR
STARTCHAR Upsilon1
ENCODING 978
SWIDTH 532 0
DWIDTH 13 0
BBX 14 17 -1 0
BITMAP
7E0002F0
7F400BF0
0BC00F40
03D02E00
01F03D00
00F47800
00B8F400
003EF000
002FD000
000FC000
000B8000
000B8000
000B8000
000B8000
000B8000
000B8000
000B8000
ENDCHAR
STARTCHAR omega1
ENCODING 982
SWIDTH 785 0
DWIDTH 19 0
BBX 18 13 1 0
BITMAP
FFFFFFFFD0
BFAAAABF90
3D00001F00
7C00000F40
7C01900F40
7802E00B40
7802E00B40
7802E00B40
7802E00F40
3C03F00F00
2E0BB82E00
1FFE2FFC00
06F80BE400
ENDCHAR
STARTCHAR uni0400
ENCODING 1024
SWIDTH 568 0
DWIDTH 14 0
BBX 11 21 2 0
BITMAP
0B8000
02E000
00A400
000000
FFFFF8
FFFFF8
F40000
F40000
F40000
F40000
F40000
FFFFE0
FFFFE0
F40000
F40000
F40000
F40000
F40000
F40000
FFFFF8
FFFFF8
ENDCHAR
STARTCHAR uni0401
ENCODING 1025
SWIDTH 568 0
DWIDTH 14 0
BBX 11 21 2 0
BITMAP
050140
1F07C0
1E0780
000000
FFFFF8
FFFFF8
F40000
F40000
F40000
F40000
F40000
FFFFE0
FFFFE0
F40000
F40000
F40000
F40000
F40000
F40000
FFFFF8
FFFFF8
ENDCHAR
STARTCHAR uni0402
ENCODING 1026
SWIDTH 749 0
DWIDTH 18 0
BBX 17 18 0 -1
BITMAP
BFFFFFE000
7FFFFFE000
002E000000
002E000000
002E000000
002E000000
002E000000
002EBFE400
002FFFFE00
002E402F40
002E000BC0
002E0007C0
002E0007C0
002E0007C0
002E001F80
002E02FE00
002E02E400
0015000000
ENDCHAR
STARTCHAR uni0403
ENCODING 1027
SWIDTH 556 0
DWIDTH 13 0
BBX 11 21 2 0
BITMAP
000F40
003D00
007400
000000
FFFFF8
FFFFF4
F40000
F40000
F40000
F40000
F40000
F40000
F40000
F40000
F40000
F40000
F40000
F40000
F40000
F40000
F40000
ENDCHAR
STARTCHAR uni0404
ENCODING 1028
SWIDTH 673 0
DWIDTH 16 0
BBX 14 17 1 0
BITMAP
006FE400
03FFFE00
0F901F40
2E0007C0
3D0003D0
7C000290
78000000
BFFFD000
BFFFD000
B8000000
78000000
7C000190
3D0003D0
2F0007C0
0F901F40
07FFFE00
006FE400
ENDCHAR
STARTCHAR uni0405
ENCODING 1029
SWIDTH 593 0
DWIDTH 14 0
BBX 13 17 1 0
BITMAP
01BF9000
1FFFF800
3E407D00
7C001F00
78000F40
7C000100
3F400000
1FF90000
01FFE000
001BFC00
00007E00
50001F40
F4000F40
B8001F40
7E407E00
1FFFFC00
01BF9000
ENDCHAR
STARTCHAR uni0406
ENCODING 1030
SWIDTH 271 0
DWIDTH 7 0
BBX 3 17 2 0
BITMAP
F4
F4
F4
F4
F4
F4
F4
F4
F4
F4
F4
F4
F4
F4
F4
F4
F4
ENDCHAR
STARTCHAR uni0407
ENCODING 1031
SWIDTH 271 0
DWIDTH 7 0
BBX 8 21 -1 0
BITMAP
1405
7C1F
781E
0000
03D0
03D0
03D0
03D0
03D0
03D0
03D0
03D0
03D0
03D0
03D0
03D0
03D0
03D0
03D0
03D0
03D0
ENDCHAR
STARTCHAR uni0408
ENCODING 1032
SWIDTH 551 0
DWIDTH 13 0
BBX 12 17 0 0
BITMAP
00003D
00003D
00003D
00003D
00003D
00003D
00003D
00003D
00003D
00003D
00003D
00003D
7C003D
7D007C
2E41F8
1FFFF0
02FF80
ENDCHAR
STARTCHAR uni0409
ENCODING 1033
SWIDTH 1070 0
DWIDTH 26 0
BBX 25 17 0 0
BITMAP
00BFFFF8000000
00BFFFF8000000
00B80078000000
00B40078000000
00B40078000000
00F40078000000
00F40078000000
00F4007FFFE000
00F4007FFFFD00
00F40078006F00
00F00078000F40
01F00078000B80
01E00078000B80
02E00078000F40
07D00078002F00
7F80007FFFFD00
7900007FFFE000
ENDCHAR
STARTCHAR uni040A
ENCODING 1034
SWIDTH 1080 0
DWIDTH 26 0
BBX 23 17 2 0
BITMAP
F40007C00000
F40007C00000
F40007C00000
F40007C00000
F40007C00000
F40007C00000
F40007C00000
FFFFFFFFFE40
FFFFFFFFFFD0
F40007C002F4
F40007C000B8
F40007C0007C
F40007C0007C
F40007C000B8
F40007C006F4
F40007FFFFD0
F40007FFFE40
ENDCHAR
STARTCHAR uni040B
ENCODING 1035
SWIDTH 813 0
DWIDTH 20 0
BBX 18 17 0 0
BITMAP
7FFFFFF000
7FFFFFE000
001E000000
001E000000
001E000000
001E000000
001FBFE800
001FFFFF40
001F400BC0
001E0003D0
001E0003D0
001E0002D0
001E0002D0
001E0002D0
001E0002D0
001E0002D0
001E0002D0
ENDCHAR
STARTCHAR uni040C
ENCODING 1036
SWIDTH 626 0
DWIDTH 15 0
BBX 13 21 2 0
BITMAP
001F4000
007D0000
00B40000
00000000
F4002F00
F400BD00
F401F400
F407D000
F41F4000
F47E0000
F4F80000
F7F00000
FFF80000
FF7D0000
FC2F0000
F40B8000
F403E000
F401F400
F400BD00
F4002F00
F4000F80
ENDCHAR
STARTCHAR uni040D
ENCODING 1037
SWIDTH 712 0
DWIDTH 17 0
BBX 13 21 2 0
BITMAP
02F00000
00BC0000
002D0000
00000000
F4000BC0
F4001FC0
F4003FC0
F400BFC0
F401FBC0
F402E7C0
F407C7C0
F40F47C0
F42E07C0
F47D07C0
F4F807C0
F6F007C0
FBD007C0
FF8007C0
FF0007C0
FD0007C0
F80007C0
ENDCHAR
STARTCHAR uni040E
ENCODING 1038
SWIDTH 628 0
DWIDTH 15 0
BBX 13 21 1 0
BITMAP
02C0B000
01E6E000
007F8000
00000000
F80007C0
7C000F80
3E001F40
1F002F00
0F403D00
0BC07C00
03D0F800
02E1F000
00F6E000
00BBD000
007FC000
002F4000
001F0000
002E0000
007C0000
0BF40000
0F900000
ENDCHAR
STARTCHAR uni040F
ENCODING 1039
SWIDTH 712 0
DWIDTH 17 0
BBX 13 21 2 -4
BITMAP
F40007C0
F40007C0
F40007C0
F40007C0
F40007C0
F40007C0
F40007C0
F40007C0
F40007C0
F40007C0
F40007C0
F40007C0
F40007C0
F40007C0
F40007C0
FFFFFFC0
FFFFFFC0
002E0000
002E0000
002E0000
002E0000
ENDCHAR
STARTCHAR uni0410
ENCODING 1040
SWIDTH 652 0
DWIDTH 16 0
BBX 15 17 0 0
BITMAP
0007C000
000BD000
000FE000
002EF000
003DB800
007C7C00
00B83D00
00F02E00
01E00F00
02D00B40
07C007C0
0BFFFFD0
0FFFFFE0
1F0001F0
2E0000F4
3D0000B8
7C00003C
ENDCHAR
STARTCHAR uni0411
ENCODING 1041
SWIDTH 630 0
DWIDTH 15 0
BBX 12 17 2 0
BITMAP
FFFFF4
FFFFF4
F00000
F00000
F00000
F00000
F00000
FFFF90
FFFFF8
F0007D
F0002F
F0001F
F0001F
F0002F
F000BD
FFFFF8
FFFF90
ENDCHAR
STARTCHAR uni0412
ENCODING 1042
SWIDTH 622 0
DWIDTH 15 0
BBX 12 17 2 0
BITMAP
FFFE80
FFFFF4
F401F8
F4007C
F4007C
F4007C
F401F4
FFFFD0
FEAFE0
F400BC
F4003D
F4002E
F4002E
F4003D
F401BC
FFFFF4
FFFF80
ENDCHAR
STARTCHAR uni0413
ENCODING 1043
SWIDTH 556 0
DWIDTH 13 0
BBX 11 17 2 0
BITMAP
FFFFF8
FFFFF4
F40000
F40000
F40000
F40000
F40000
F40000
F40000
F40000
F40000
F40000
F40000
F40000
F40000
F40000
F40000
ENDCHAR
STARTCHAR uni0414
ENCODING 1044
SWIDTH 751 0
DWIDTH 18 0
BBX 18 21 0 -4
BITMAP
003FFFFC00
003FFFFC00
007C003C00
007C003C00
007C003C00
007C003C00
007C003C00
0078003C00
00B8003C00
00B8003C00
00F4003C00
01F0003C00
02E0003C00
03D0003C00
0BC0003C00
7FFFFFFFD0
7FFFFFFFD0
7C000003D0
7C000003D0
7C000003D0
7C000003D0
ENDCHAR
STARTCHAR uni0415
ENCODING 1045
SWIDTH 568 0
DWIDTH 14 0
BBX 11 17 2 0
BITMAP
FFFFF8
FFFFF8
F40000
F40000
F40000
F40000
F40000
FFFFE0
FFFFE0
F40000
F40000
F40000
F40000
F40000
F40000
FFFFF8
FFFFF8
ENDCHAR
STARTCHAR uni0416
ENCODING 1046
SWIDTH 907 0
DWIDTH 22 0
BBX 22 17 0 0
BITMAP
3E000F000B80
1F400F001F00
0BC00F003D00
02E00F00B800
00F40F01F000
007C0F03D000
002E0F0B8000
000FFFFF0000
001FFFFF4000
003E0F0BC000
00BC0F03E000
01F40F01F400
03E00F00FC00
0BD00F007D00
1F800F002F00
2F000F000F80
7D000F0007D0
ENDCHAR
STARTCHAR uni0417
ENCODING 1047
SWIDTH 593 0
DWIDTH 14 0
BBX 13 17 1 0
BITMAP
02FF9000
1FFFF800
7E007E00
B8002F00
A4001F00
00002E00
0000BD00
00BFE400
00BFF400
00007D00
00001F00
00000F40
F4000F40
B8001F00
7E00BE00
2FFFF800
06FF9000
ENDCHAR
STARTCHAR uni0418
ENCODING 1048
SWIDTH 712 0
DWIDTH 17 0
BBX 13 17 2 0
BITMAP
F4000BC0
F4001FC0
F4003FC0
F400BFC0
F401FBC0
F402E7C0
F407C7C0
F40F47C0
F42E07C0
F47D07C0
F4F807C0
F6F007C0
FBD007C0
FF8007C0
FF0007C0
FD0007C0
F80007C0
ENDCHAR
STARTCHAR uni0419
ENCODING 1049
SWIDTH 712 0
DWIDTH 17 0
BBX 13 21 2 0
BITMAP
02C0B000
01E6E000
007F8000
00000000
F4000BC0
F4001FC0
F4003FC0
F400BFC0
F401FBC0
F402E7C0
F407C7C0
F40F47C0
F42E07C0
F47D07C0
F4F807C0
F6F007C0
FBD007C0
FF8007C0
FF0007C0
FD0007C0
F80007C0
ENDCHAR
STARTCHAR uni041A
ENCODING 1050
SWIDTH 642 0
DWIDTH 15 0
BBX 13 17 2 0
BITMAP
F4001F40
F4007E00
F400F800
F403F000
F40BC000
F42F4000
F47D0000
FFF80000
FFFC0000
F43E0000
F41F4000
F40BD000
F402F000
F400F800
F4007D00
F4002F40
F4000BC0
ENDCHAR
STARTCHAR uni041B
ENCODING 1051
SWIDTH 707 0
DWIDTH 17 0
BBX 15 17 0 0
BITMAP
00BFFFFC
00BFFFFC
00B4007C
00B4007C
00B4007C
00F4007C
00F4007C
00F4007C
00F4007C
00F0007C
00F0007C
01F0007C
01E0007C
02E0007C
07C0007C
7F80007C
7900007C
ENDCHAR
STARTCHAR uni041C
ENCODING 1052
SWIDTH 873 0
DWIDTH 21 0
BBX 17 17 2 0
BITMAP
FC00000FC0
FD00002FC0
FF00003FC0
FF40007FC0
FB8000BBC0
F7C000F7C0
F2E002E7C0
F1F003D7C0
F4F40787C0
F4780B47C0
F43C1F07C0
F42E2E07C0
F41F3C07C0
F40BB807C0
F407F407C0
F403F007C0
F402E007C0
ENDCHAR
STARTCHAR uni041D
ENCODING 1053
SWIDTH 712 0
DWIDTH 17 0
BBX 13 17 2 0
BITMAP
F40007C0
F40007C0
F40007C0
F40007C0
F40007C0
F40007C0
F40007C0
FFFFFFC0
FFFFFFC0
F40007C0
F40007C0
F40007C0
F40007C0
F40007C0
F40007C0
F40007C0
F40007C0
ENDCHAR
STARTCHAR uni041E
ENCODING 1054
SWIDTH 687 0
DWIDTH 17 0
BBX 14 17 1 0
BITMAP
006FE400
03FFFD00
0FD02F40
2F0007C0
3D0002E0
7C0001E0
780001F0
B80000F0
B80000F0
B80000F0
780001F0
7C0001E0
3D0002E0
2F0007C0
0F901F40
03FFFE00
006FE400
ENDCHAR
STARTCHAR uni041F
ENCODING 1055
SWIDTH 713 0
DWIDTH 17 0
BBX 13 17 2 0
BITMAP
FFFFFFC0
FFFFFFC0
F40007C0
F40007C0
F40007C0
F40007C0
F40007C0
F40007C0
F40007C0
F40007C0
F40007C0
F40007C0
F40007C0
F40007C0
F40007C0
F40007C0
F40007C0
ENDCHAR
STARTCHAR uni0420
ENCODING 1056
SWIDTH 630 0
DWIDTH 15 0
BBX 13 17 2 0
BITMAP
FFFF9000
FFFFF800
F400BD00
F4002F00
F4000F00
F4000F40
F4000F00
F4002F00
F401BD00
FFFFF800
FFFA9000
F4000000
F4000000
F4000000
F4000000
F4000000
F4000000
ENDCHAR
STARTCHAR uni0421
ENCODING 1057
SWIDTH 650 0
DWIDTH 16 0
BBX 14 17 1 0
BITMAP
006FE400
03FFFE00
0F901F40
2E0007C0
3D0003D0
7C000290
78000000
B8000000
B8000000
B8000000
B8000000
7C000290
3D0003D0
2E0007C0
0F801F40
07FFFE00
00AFE400
ENDCHAR
STARTCHAR uni0422
ENCODING 1058
SWIDTH 596 0
DWIDTH 14 0
BBX 14 17 0 0
BITMAP
7FFFFFE0
7FFFFFE0
000F4000
000F4000
000F4000
000F4000
000F4000
000F4000
000F4000
000F4000
000F4000
000F4000
000F4000
000F4000
000F4000
000F4000
000F4000
ENDCHAR
STARTCHAR uni0423
ENCODING 1059
SWIDTH 628 0
DWIDTH 15 0
BBX 13 17 1 0
BITMAP
F80007C0
7C000F80
3E001F40
1F002F00
0F403D00
0BC07C00
03D0F800
02E1F000
00F6E000
00BBD000
007FC000
002F4000
001F0000
002E0000
007C0000
0BF40000
0F900000
ENDCHAR
STARTCHAR uni0424
ENCODING 1060
SWIDTH 771 0
DWIDTH 19 0
BBX 17 19 1 -1
BITMAP
0002D00000
0002D00000
00AFFE4000
07FBFFE000
1F42D0BC00
3D02D02E00
7802D00F00
B402D00B40
F402D00B80
F002D00B80
F402D00B80
B402D00B40
7802D00F00
3D02D02E00
1F42D0BC00
07FBFFE000
00AFFE4000
0002D00000
0002D00000
ENDCHAR
STARTCHAR uni0425
ENCODING 1061
SWIDTH 626 0
DWIDTH 15 0
BBX 13 17 1 0
BITMAP
F8000BC0
7D001F40
2F003E00
0F80BC00
07D1F400
02F2E000
00FFC000
007F4000
003F0000
007F8000
00FBD000
02E2F000
07D0F800
0F807D00
2F002E00
7D001F40
F8000BC0
ENDCHAR
STARTCHAR uni0426
ENCODING 1062
SWIDTH 730 0
DWIDTH 18 0
BBX 15 21 2 -4
BITMAP
F40007C0
F40007C0
F40007C0
F40007C0
F40007C0
F40007C0
F40007C0
F40007C0
F40007C0
F40007C0
F40007C0
F40007C0
F40007C0
F40007C0
F40007C0
FFFFFFF8
FFFFFFF8
00000078
00000078
00000078
00000078
ENDCHAR
STARTCHAR uni0427
ENCODING 1063
SWIDTH 684 0
DWIDTH 16 0
BBX 14 17 1 0
BITMAP
7C0003D0
7C0003D0
7C0003D0
7C0003D0
7C0003D0
7C0003D0
3C0003D0
3D0003D0
2F401BD0
0BFFFFD0
01AFA7D0
000003D0
000003D0
000003D0
000003D0
000003D0
000003D0
ENDCHAR
STARTCHAR uni0428
ENCODING 1064
SWIDTH 940 0
DWIDTH 23 0
BBX 19 17 2 0
BITMAP
F400B400B8
F400B400B8
F400B400B8
F400B400B8
F400B400B8
F400B400B8
F400B400B8
F400B400B8
F400B400B8
F400B400B8
F400B400B8
F400B400B8
F400B400B8
F400B400B8
F400B400B8
FFFFFFFFF8
FFFFFFFFF8
ENDCHAR
STARTCHAR uni0429
ENCODING 1065
SWIDTH 968 0
DWIDTH 23 0
BBX 21 21 2 -4
BITMAP
F400B400B800
F400B400B800
F400B400B800
F400B400B800
F400B400B800
F400B400B800
F400B400B800
F400B400B800
F400B400B800
F400B400B800
F400B400B800
F400B400B800
F400B400B800
F400B400B800
F400B400B800
FFFFFFFFFE40
FFFFFFFFFF40
000000000F00
000000000F00
000000000F00
000000000F00
ENDCHAR
STARTCHAR uni042A
ENCODING 1066
SWIDTH 758 0
DWIDTH 18 0
BBX 17 17 0 0
BITMAP
BFFD000000
AABD000000
003D000000
003D000000
003D000000
003D000000
003D000000
003FFFE400
003FFFFE00
003D001F80
003D0007C0
003D0007C0
003D0007C0
003D000BC0
003D001F80
003FFFFE00
003FFFE400
ENDCHAR
STARTCHAR uni042B
ENCODING 1067
SWIDTH 864 0
DWIDTH 21 0
BBX 17 17 2 0
BITMAP
F400000B80
F400000B80
F400000B80
F400000B80
F400000B80
F400000B80
F400000B80
FFFF900B80
FFFFF80B80
F4007E0B80
F4001F0B80
F4000F4B80
F4000F4B80
F4001F0B80
F4007E0B80
FFFFF80B80
FFFF900B80
ENDCHAR
STARTCHAR uni042C
ENCODING 1068
SWIDTH 627 0
DWIDTH 15 0
BBX 12 17 2 0
BITMAP
F00000
F00000
F00000
F00000
F00000
F00000
F00000
FFFF90
FFFFF8
F0007D
F0002F
F0001F
F0001F
F0002F
F000BD
FFFFF8
FFFF90
ENDCHAR
STARTCHAR uni042D
ENCODING 1069
SWIDTH 673 0
DWIDTH 16 0
BBX 13 17 2 0
BITMAP
02FE8000
1FFFF400
7E00BD00
B8001F00
F4000F40
A0000B80
00000780
00FFFFC0
00FFFFC0
000007C0
00000B80
A0000B80
F4000F40
B8002F00
7E00BD00
1FFFF400
02BF8000
ENDCHAR
STARTCHAR uni042E
ENCODING 1070
SWIDTH 894 0
DWIDTH 21 0
BBX 19 17 2 0
BITMAP
F4006FE400
F402FFFE00
F40BE01FC0
F41F4003E0
F42E0001F0
F43D0000F4
F43D0000B4
FFFC0000B8
FEBC0000B8
F43C0000B8
F43D0000B4
F42D0000F4
F41E0001F0
F40F4003E0
F407D01BC0
F401FFFF00
F4002FE400
ENDCHAR
STARTCHAR uni042F
ENCODING 1071
SWIDTH 636 0
DWIDTH 15 0
BBX 13 17 1 0
BITMAP
01BFFF40
0BFFFF40
2F400F40
3D000F40
7C000F40
7C000F40
3C000F40
3E000F40
1F900F40
07FFFF40
01FFFF40
02E00F40
07C00F40
0F400F40
2F000F40
3D000F40
B8000F40
ENDCHAR
STARTCHAR uni0430
ENCODING 1072
SWIDTH 543 0
DWIDTH 13 0
BBX 11 13 1 0
BITMAP
06FE40
1FEFD0
7D02F0
6400F4
0000F4
06FFF4
2FAAF4
7D00F4
B800F4
B800F4
7D07F4
3FFFF4
0BF8B8
ENDCHAR
STARTCHAR uni0431
ENCODING 1073
SWIDTH 552 0
DWIDTH 13 0
BBX 12 18 1 0
BITMAP
000074
0006F4
01BFE0
07F900
1F4000
2C0000
75BF80
BBEFE0
BE01F8
BC007C
F4003D
F4002D
B4002D
B8003D
7C007C
3E01F4
1FEFE0
02FE40
ENDCHAR
STARTCHAR uni0432
ENCODING 1074
SWIDTH 571 0
DWIDTH 14 0
BBX 11 13 2 0
BITMAP
FFFE40
FAAFD0
F002F0
F001F0
F006E0
FFFF80
FAAFD0
F001F0
F000B4
F000B4
F001F4
FAAFE0
FFFE40
ENDCHAR
STARTCHAR uni0433
ENCODING 1075
SWIDTH 419 0
DWIDTH 10 0
BBX 9 13 1 0
BITMAP
7FFF80
7EAA80
7C0000
7C0000
7C0000
7C0000
7C0000
7C0000
7C0000
7C0000
7C0000
7C0000
7C0000
ENDCHAR
STARTCHAR uni0434
ENCODING 1076
SWIDTH 603 0
DWIDTH 14 0
BBX 14 17 0 -4
BITMAP
00FFFF00
00FFFF00
01F00F00
01F00F00
01F00F00
01F00F00
01E00F00
02E00F00
03D00F00
07C00F00
0F800F00
7FAAAFA0
7FFFFFE0
780001E0
780001E0
780001E0
780001E0
ENDCHAR
STARTCHAR uni0435
ENCODING 1077
SWIDTH 529 0
DWIDTH 13 0
BBX 11 13 1 0
BITMAP
01BE40
0BEFD0
2E01F0
7800B8
B40078
BFFFF8
FEAAA8
F40000
B80000
7C0010
3E00B4
1FEBE0
02FE40
ENDCHAR
STARTCHAR uni0436
ENCODING 1078
SWIDTH 765 0
DWIDTH 18 0
BBX 18 13 0 0
BITMAP
3E00F407D0
1F40F40F80
0BC0F42F00
03E0F47D00
01F4F4F400
007FFFE000
00BFFFF000
01F4F4F800
03E0F47D00
0BC0F42E00
1F40F41F40
2F00F40BC0
7D00F403E0
ENDCHAR
STARTCHAR uni0437
ENCODING 1079
SWIDTH 507 0
DWIDTH 12 0
BBX 10 13 1 0
BITMAP
06FE00
3FEFD0
B802E0
5401E0
0006D0
03FF40
02BF80
0002E0
0001F0
F401F0
BC02E0
3FAFC0
0AFE00
ENDCHAR
STARTCHAR uni0438
ENCODING 1080
SWIDTH 577 0
DWIDTH 14 0
BBX 11 13 1 0
BITMAP
7C007C
7C00FC
7C02FC
7C07FC
7C0F7C
7C2E3C
7C7C3C
7CB43C
7DE03C
7FD03C
7F803C
7F003C
7D003C
ENDCHAR
STARTCHAR uni0439
ENCODING 1081
SWIDTH 577 0
DWIDTH 14 0
BBX 11 17 1 0
BITMAP
0741D0
03D7C0
01BE00
000000
7C007C
7C00FC
7C02FC
7C07FC
7C0F7C
7C2E3C
7C7C3C
7CB43C
7DE03C
7FD03C
7F803C
7F003C
7D003C
ENDCHAR
STARTCHAR uni043A
ENCODING 1082
SWIDTH 540 0
DWIDTH 13 0
BBX 12 13 1 0
BITMAP
7C00B8
7C02F0
7C07D0
7C1F40
7C7D00
7FF800
7FFC00
7C3E00
7C1F40
7C0BC0
7C02E0
7C00F8
7C007D
ENDCHAR
STARTCHAR uni043B
ENCODING 1083
SWIDTH 578 0
DWIDTH 14 0
BBX 12 13 0 0
BITMAP
02FFFF
02FAAF
02E00F
02D00F
02D00F
02D00F
02D00F
03D00F
03C00F
07C00F
0B800F
7F400F
79000F
ENDCHAR
STARTCHAR uni043C
ENCODING 1084
SWIDTH 741 0
DWIDTH 18 0
BBX 14 13 2 0
BITMAP
FC0003F0
FD0007F0
FE000BF0
FF001FF0
FB802EF0
F3C03DF0
F2D0B9F0
F1F0F1F0
F0B5E1F0
F07AD1F0
F03F81F0
F01F41F0
F00F01F0
ENDCHAR
STARTCHAR uni043D
ENCODING 1085
SWIDTH 576 0
DWIDTH 14 0
BBX 11 13 1 0
BITMAP
7C007C
7C007C
7C007C
7C007C
7C007C
7FFFFC
7EAABC
7C007C
7C007C
7C007C
7C007C
7C007C
7C007C
ENDCHAR
STARTCHAR uni043E
ENCODING 1086
SWIDTH 570 0
DWIDTH 14 0
BBX 12 13 1 0
BITMAP
01BE40
0FEFE0
2E01F8
7C007C
B8003D
F4002E
F4002E
F4002E
B8003D
7C007C
3E01F8
0FEFE0
02FE40
ENDCHAR
STARTCHAR uni043F
ENCODING 1087
SWIDTH 577 0
DWIDTH 14 0
BBX 11 13 1 0
BITMAP
7FFFFC
7EAABC
7C003C
7C003C
7C003C
7C003C
7C003C
7C003C
7C003C
7C003C
7C003C
7C003C
7C003C
ENDCHAR
STARTCHAR uni0440
ENCODING 1088
SWIDTH 561 0
DWIDTH 13 0
BBX 12 18 1 -5
BITMAP
78BF80
7FFFE0
7E01F4
7C00BC
78003D
78003D
78003D
78003D
78003D
7C007C
7E01F4
7FEFE0
78BF80
780000
780000
780000
780000
780000
ENDCHAR
STARTCHAR uni0441
ENCODING 1089
SWIDTH 523 0
DWIDTH 13 0
BBX 11 13 1 0
BITMAP
02FE40
1FEFD0
3E01F4
7800B8
B40064
F40000
F40000
F40000
B40014
7C00B8
3E01F4
1FEFD0
02FE40
ENDCHAR
STARTCHAR uni0442
ENCODING 1090
SWIDTH 480 0
DWIDTH 12 0
BBX 11 13 0 0
BITMAP
BFFFFC
6AFEA8
007800
007800
007800
007800
007800
007800
007800
007800
007800
007800
007800
ENDCHAR
STARTCHAR uni0443
ENCODING 1091
SWIDTH 473 0
DWIDTH 11 0
BBX 11 18 0 -5
BITMAP
B8007C
7C00B8
3D00F4
1E01F0
0F02E0
0B43D0
078780
03CB40
02DF00
01FE00
00FD00
00BC00
007800
00B400
00F000
02E000
3FC000
3E0000
ENDCHAR
STARTCHAR uni0444
ENCODING 1092
SWIDTH 725 0
DWIDTH 17 0
BBX 16 23 1 -5
BITMAP
00078000
00078000
00078000
00078000
00078000
06FFFF80
1FEFFFE0
3E0781F4
7C0780B8
B807807C
B407803C
B407803D
B407803D
B807803C
7807807C
3D0781F8
1FEFFBE0
06FFFF80
00078000
00078000
00078000
00078000
00078000
ENDCHAR
STARTCHAR uni0445
ENCODING 1093
SWIDTH 495 0
DWIDTH 12 0
BBX 11 13 0 0
BITMAP
3D00BC
1F01F4
0B82E0
03D7C0
01EF40
00BE00
007D00
00FE00
02EB40
07C7C0
0F82E0
2F00F4
7D007C
ENDCHAR
STARTCHAR uni0446
ENCODING 1094
SWIDTH 592 0
DWIDTH 14 0
BBX 13 17 1 -4
BITMAP
7C003C00
7C003C00
7C003C00
7C003C00
7C003C00
7C003C00
7C003C00
7C003C00
7C003C00
7C003C00
7C003C00
7EAABE40
7FFFFF40
00000B40
00000B40
00000B40
00000B40
ENDCHAR
STARTCHAR uni0447
ENCODING 1095
SWIDTH 543 0
DWIDTH 13 0
BBX 11 13 1 0
BITMAP
B400F4
B400F4
B400F4
B400F4
B400F4
B800F4
7D01F4
1FFFF4
06AAF4
0000F4
0000F4
0000F4
0000F4
ENDCHAR
STARTCHAR uni0448
ENCODING 1096
SWIDTH 808 0
DWIDTH 19 0
BBX 17 13 1 0
BITMAP
7C01E00B80
7C01E00B80
7C01E00B80
7C01E00B80
7C01E00B80
7C01E00B80
7C01E00B80
7C01E00B80
7C01E00B80
7C01E00B80
7C01E00B80
7EABFAAF80
7FFFFFFF80
ENDCHAR
STARTCHAR uni0449
ENCODING 1097
SWIDTH 827 0
DWIDTH 20 0
BBX 19 17 1 -4
BITMAP
7C01E00B80
7C01E00B80
7C01E00B80
7C01E00B80
7C01E00B80
7C01E00B80
7C01E00B80
7C01E00B80
7C01E00B80
7C01E00B80
7C01E00B80
7EABFAAFE4
7FFFFFFFF4
00000000F4
00000000F0
00000000F0
00000000F0
ENDCHAR
STARTCHAR uni044A
ENCODING 1098
SWIDTH 620 0
DWIDTH 15 0
BBX 15 13 0 0
BITMAP
BFF40000
AAF40000
00F40000
00F40000
00FFFE40
00FAAFD0
00F402F0
00F400F0
00F400F4
00F400F0
00F402E0
00FAAFD0
00FFFE00
ENDCHAR
STARTCHAR uni044B
ENCODING 1099
SWIDTH 776 0
DWIDTH 19 0
BBX 15 13 2 0
BITMAP
F00000B4
F00000B4
F00000B4
F00000B4
FFFE00B4
FAAFC0B4
F003E0B4
F001F0B4
F001F0B4
F001F0B4
F003E0B4
FAAF80B4
FFFE00B4
ENDCHAR
STARTCHAR uni044C
ENCODING 1100
SWIDTH 542 0
DWIDTH 13 0
BBX 10 13 2 0
BITMAP
F00000
F00000
F00000
F00000
FFFE00
FAAFC0
F003E0
F001F0
F001F0
F001F0
F003E0
FAAF80
FFFE00
ENDCHAR
STARTCHAR uni044D
ENCODING 1101
SWIDTH 537 0
DWIDTH 13 0
BBX 11 13 1 0
BITMAP
06F900
2FFF80
7D02E0
A400F0
0000B4
01FFF8
01AAF8
0000B8
6000F4
B401F0
7D07E0
2FEF80
06F900
ENDCHAR
STARTCHAR uni044E
ENCODING 1102
SWIDTH 815 0
DWIDTH 20 0
BBX 17 13 2 0
BITMAP
F000BF9000
F007FBF800
F00F807D00
F02F001F00
F03D000F40
FFFD000B40
FABD000B80
F03D000B40
F02D000F40
F01F001F00
F00B807D00
F003FBF800
F000BF9000
ENDCHAR
STARTCHAR uni044F
ENCODING 1103
SWIDTH 548 0
DWIDTH 13 0
BBX 12 13 0 0
BITMAP
01BFFD
0BFABD
2F403D
2D003D
2E003D
1F403D
0BFFFD
02FABD
03D03D
07C03D
0F403D
2E003D
7D003D
ENDCHAR
STARTCHAR uni0450
ENCODING 1104
SWIDTH 529 0
DWIDTH 13 0
BBX 11 18 1 0
BITMAP
0BC000
02F000
00B400
000000
000000
01BE40
0BEFD0
2E01F0
7800B8
B40078
BFFFF8
FEAAA8
F40000
B80000
7C0010
3E00B4
1FEBE0
02FE40
ENDCHAR
STARTCHAR uni0451
ENCODING 1105
SWIDTH 529 0
DWIDTH 13 0
BBX 11 18 1 0
BITMAP
050140
0F43D0
0B42D0
000000
000000
01BE40
0BEFD0
2E01F0
7800B8
B40078
BFFFF8
FEAAA8
F40000
B80000
7C0010
3E00B4
1FEBE0
02FE40
ENDCHAR
STARTCHAR uni0452
ENCODING 1106
SWIDTH 550 0
DWIDTH 13 0
BBX 13 23 -1 -5
BITMAP
07800000
07800000
7FFF0000
6FEA0000
07800000
078BF800
07EFFE00
07F41F40
07C00B80
07800B80
07800B80
07800B80
07800B80
07800B80
07800B80
07800B80
07800B80
07800B80
00000B80
00000B80
00000F40
0001BF00
0001F800
ENDCHAR
STARTCHAR uni0453
ENCODING 1107
SWIDTH 419 0
DWIDTH 10 0
BBX 9 18 1 0
BITMAP
007D00
01F400
02D000
000000
000000
7FFF80
7EAA80
7C0000
7C0000
7C0000
7C0000
7C0000
7C0000
7C0000
7C0000
7C0000
7C0000
7C0000
ENDCHAR
STARTCHAR uni0454
ENCODING 1108
SWIDTH 537 0
DWIDTH 13 0
BBX 11 13 1 0
BITMAP
01BE40
0FFFE0
2E01F4
780078
B80000
BFFC00
BEA800
B80000
B80010
7C0078
2E01F4
0FEFE0
02FE40
ENDCHAR
STARTCHAR uni0455
ENCODING 1109
SWIDTH 515 0
DWIDTH 12 0
BBX 10 13 1 0
BITMAP
06FE00
2FEFC0
7D02E0
7801F0
7D0000
2FA400
07FF40
001BE0
0001F0
B400F0
7D02F0
2FEFD0
06FE40
ENDCHAR
STARTCHAR uni0456
ENCODING 1110
SWIDTH 242 0
DWIDTH 6 0
BBX 3 18 1 0
BITMAP
14
7C
3C
00
00
7C
7C
7C
7C
7C
7C
7C
7C
7C
7C
7C
7C
7C
ENDCHAR
STARTCHAR uni0457
ENCODING 1111
SWIDTH 247 0
DWIDTH 6 0
BBX 8 18 -1 0
BITMAP
1004
B82E
B41D
0000
0000
07C0
07C0
07C0
07C0
07C0
07C0
07C0
07C0
07C0
07C0
07C0
07C0
07C0
ENDCHAR
STARTCHAR uni0458
ENCODING 1112
SWIDTH 238 0
DWIDTH 6 0
BBX 5 23 -1 -5
BITMAP
0140
07C0
0780
0000
0000
07C0
07C0
07C0
07C0
07C0
07C0
07C0
07C0
07C0
07C0
07C0
07C0
07C0
07C0
07C0
0B80
BF40
BD00
ENDCHAR
STARTCHAR uni0459
ENCODING 1113
SWIDTH 848 0
DWIDTH 20 0
BBX 20 13 0 0
BITMAP
02FFFE0000
02FABE0000
02D02E0000
02D02E0000
02D02E0000
02D02FFF90
03D02FABF8
03C02E007D
03C02E002E
07C02E002E
0F802E007D
BF002FABF8
B9002FFF90
ENDCHAR
STARTCHAR uni045A
ENCODING 1114
SWIDTH 861 0
DWIDTH 21 0
BBX 19 13 1 0
BITMAP
7C007C0000
7C007C0000
7C007C0000
7C007C0000
7C007C0000
7FFFFFFE80
7EAABEAFF0
7C007C00B8
7C007C007C
7C007C007C
7C007C00B8
7C007EABF0
7C007FFF80
ENDCHAR
STARTCHAR uni045B
ENCODING 1115
SWIDTH 566 0
DWIDTH 14 0
BBX 12 18 0 0
BITMAP
1E0000
1E0000
FFFD00
BFA900
1E0000
1E2FE0
1FBFF8
1FD07D
1F002E
1E002E
1E002E
1E002E
1E002E
1E002E
1E002E
1E002E
1E002E
1E002E
ENDCHAR
STARTCHAR uni045C
ENCODING 1116
SWIDTH 540 0
DWIDTH 13 0
BBX 12 18 1 0
BITMAP
000F40
003D00
007400
000000
000000
7C00B8
7C02F0
7C07D0
7C1F40
7C7D00
7FF800
7FFC00
7C3E00
7C1F40
7C0BC0
7C02E0
7C00F8
7C007D
ENDCHAR
STARTCHAR uni045D
ENCODING 1117
SWIDTH 577 0
DWIDTH 14 0
BBX 11 18 1 0
BITMAP
07D000
01F400
007800
000000
000000
7C007C
7C00FC
7C02FC
7C07FC
7C0F7C
7C2E3C
7C7C3C
7CB43C
7DE03C
7FD03C
7F803C
7F003C
7D003C
ENDCHAR
STARTCHAR uni045E
ENCODING 1118
SWIDTH 473 0
DWIDTH 11 0
BBX 11 22 0 -5
BITMAP
0741D0
03D7C0
01BE40
000000
B8007C
7C00B8
3D00F4
1E01F0
0F02E0
0B43D0
078780
03CB40
02DF00
01FE00
00FD00
00BC00
007800
00B400
00F000
02E000
3FC000
3E0000
ENDCHAR
STARTCHAR uni045F
ENCODING 1119
SWIDTH 577 0
DWIDTH 14 0
BBX 11 17 1 -4
BITMAP
7C003C
7C003C
7C003C
7C003C
7C003C
7C003C
7C003C
7C003C
7C003C
7C003C
7C003C
7EAABC
7FFFFC
003C00
003C00
003C00
003C00
ENDCHAR
STARTCHAR uni0460
ENCODING 1120
SWIDTH 878 0
DWIDTH 21 0
BBX 19 17 1 0
BITMAP
7C00B800F4
7C00B800F4
7C00B800F4
7C00B800F4
7C00B800F4
7C00B800F4
7C00B800F4
7C00B800F4
7C00B800F4
7C00B800F4
7C00B800F4
7C00B800F4
3C00B800F4
3D00BC00F4
2F02FE02F0
0FFFDFFFD0
02FE02FE40
ENDCHAR
STARTCHAR uni0461
ENCODING 1121
SWIDTH 770 0
DWIDTH 19 0
BBX 16 13 1 0
BITMAP
7802D00F
7802D00F
7802D00F
7802D00F
7802D00F
7802D00F
7802D00F
7802D00F
7802D00F
7803D01F
3D0BF02E
2FBFBEFC
07F81FE0
ENDCHAR
STARTCHAR uni0462
ENCODING 1122
SWIDTH 627 0
DWIDTH 15 0
BBX 15 17 -1 0
BITMAP
03C00000
03C00000
BFFF0000
6BEA0000
03C00000
03C00000
03C00000
03FFFE40
03FFFFE0
03C001F4
03C000BC
03C0007C
03C0007C
03C000BC
03C002F4
03FFFFE0
03FFFE40
ENDCHAR
STARTCHAR uni0463
ENCODING 1123
SWIDTH 541 0
DWIDTH 13 0
BBX 13 18 -1 0
BITMAP
07C00000
07C00000
07C00000
07C00000
7FFF8000
6BEA8000
07C00000
07C00000
07C00000
07FFF800
07EAFF00
07C00F80
07C007C0
07C007C0
07C007C0
07C00F80
07EABE00
07FFF800
ENDCHAR
STARTCHAR uni0464
ENCODING 1124
SWIDTH 895 0
DWIDTH 22 0
BBX 18 17 2 0
BITMAP
F4006FE400
F402FFFE00
F40BD01F80
F41F0003D0
F42E0002E0
F43D0001A0
F47C000000
FFFFFFD000
FEBEAA9000
F47C000000
F43C000000
F43D0001A0
F42E0002E0
F41F4003D0
F40BD01F80
F402FFFE00
F4006FE400
ENDCHAR
STARTCHAR uni0465
ENCODING 1125
SWIDTH 746 0
DWIDTH 18 0
BBX 16 13 1 0
BITMAP
7C00BF90
7C07FFF8
7C0F807D
7C1E001E
7C2E0000
7FFFFF80
7EBFAA40
7C2E0000
7C2E0004
7C1F001E
7C0B807D
7C02FBF8
7C006F90
ENDCHAR
STARTCHAR uni0466
ENCODING 1126
SWIDTH 602 0
DWIDTH 14 0
BBX 15 17 0 0
BITMAP
000B8000
000FC000
001FE000
002EF000
003CF400
0078B800
00B47C00
00F03D00
01E02E00
02D01F00
07FFFF40
0BFFFF80
0F4B87C0
1F0B83D0
2E0B82E0
3D0B80F0
7C0B80B4
ENDCHAR
STARTCHAR uni0467
ENCODING 1127
SWIDTH 534 0
DWIDTH 13 0
BBX 13 13 0 0
BITMAP
003D0000
007E0000
00BF4000
00FB8000
01E7C000
03D3D000
07C2E000
0B80F400
0FFFF800
1FBFBC00
2D2D3D00
7C2D1F00
B82D0F40
ENDCHAR
STARTCHAR uni0468
ENCODING 1128
SWIDTH 880 0
DWIDTH 21 0
BBX 19 17 2 0
BITMAP
B80007C000
B8000BD000
B8000FE000
B8001EF000
B8002DB400
B8003C7800
B800B83C00
B800F42D00
B801F01F00
B802E00F40
BFFFFFFF80
BFFFFFFFC0
B80B8783D0
B80F4782E0
B81F0781F0
B82E0780F4
B83C0780B8
ENDCHAR
STARTCHAR uni0469
ENCODING 1129
SWIDTH 755 0
DWIDTH 18 0
BBX 16 13 2 0
BITMAP
B400B800
B400FC00
B401FD00
B402EF00
B403CF40
B4078B80
B40F47C0
B41F03D0
BFFFFFF0
BEFEFEF4
B478B8B8
B4F4B87C
B5F0B82D
ENDCHAR
STARTCHAR uni046A
ENCODING 1130
SWIDTH 852 0
DWIDTH 20 0
BBX 18 17 1 0
BITMAP
07FFFFFF00
03FFFFFD00
01F400BC00
00B801F400
003D02E000
002F07D000
000F4B8000
0007DF0000
02BFFFF900
1FFFFFFF80
2E00F407D0
3D00F402E0
7C00F402E0
7C00F402E0
7C00F402E0
7C00F402E0
7C00F402E0
ENDCHAR
STARTCHAR uni046B
ENCODING 1131
SWIDTH 734 0
DWIDTH 18 0
BBX 15 13 1 0
BITMAP
07FFFFD0
03FAAF80
01F01F00
00B82E00
007C7C00
002EB400
02FFFE40
1FFFEFE0
2E07C1F4
3D07C0B8
7C07C07C
7C07C07C
7C07C07C
ENDCHAR
STARTCHAR uni046C
ENCODING 1132
SWIDTH 1126 0
DWIDTH 27 0
BBX 24 17 2 0
BITMAP
F400FFFFFFE0
F4007FFFFFC0
F4002E000F80
F4000F402F00
F4000BC03D00
F40003D0B800
F40001F1F400
F40000FAE000
FFFFFFFFFE80
FEABFFFFFFF4
F403E01F00BC
F407801F007D
F40B801F003D
F40B801F003D
F40B801F003D
F40B801F003D
F40B801F003D
ENDCHAR
STARTCHAR uni046D
ENCODING 1133
SWIDTH 977 0
DWIDTH 23 0
BBX 21 13 1 0
BITMAP
7C00BFFFFC00
7C003FAAF400
7C002F01F000
7C000F43D000
7C0007C78000
7C0002DF4000
7FFFFFFFE400
7EABFEFEFE00
7C03E0781F40
7C07C0780B80
7C0780780B80
7C0780780780
7C0780780780
ENDCHAR
STARTCHAR uni046E
ENCODING 1134
SWIDTH 517 0
DWIDTH 12 0
BBX 10 27 1 -5
BITMAP
0B4780
02DE00
00B800
000000
000000
7FF900
6ABF40
0007D0
0002E0
0001E0
0002D0
001B80
0BFE00
0AFF40
0007D0
0002E0
0001F0
0001F0
0002E0
0007D0
1ABF80
7FF900
F40000
F00000
B40000
3E0000
090000
ENDCHAR
STARTCHAR uni046F
ENCODING 1135
SWIDTH 481 0
DWIDTH 12 0
BBX 10 23 1 -5
BITMAP
2D1E00
0B7800
02E000
000000
000000
7FF900
6AFF40
000BC0
0003C0
001B80
0FFE00
0AFF40
000BC0
0003D0
0003D0
000BC0
1ABF40
BFF900
F40000
F00000
B40000
7E0000
090000
ENDCHAR
STARTCHAR uni0470
ENCODING 1136
SWIDTH 691 0
DWIDTH 17 0
BBX 15 17 1 0
BITMAP
F40F40F4
F40F40F4
F40F40F4
F40F40F4
F40F40F4
F40F40F4
F40F40F4
B40F40F4
B80F41F0
7D0F43E0
2F9F5FC0
0BFFFE00
01AFE400
000F4000
000F4000
000F4000
000F4000
ENDCHAR
STARTCHAR uni0471
ENCODING 1137
SWIDTH 700 0
DWIDTH 17 0
BBX 15 19 1 -6
BITMAP
F40F42E0
F40F41F0
F40F40F4
F40F40B8
F40F40B8
F40F4078
F40F4078
B40F40B8
B80F40F4
3D0F42F0
2F4F4BD0
0BFFFF40
01BFE800
000F4000
000F4000
000F4000
000F4000
000F4000
000F4000
ENDCHAR
STARTCHAR uni0472
ENCODING 1138
SWIDTH 680 0
DWIDTH 16 0
BBX 14 17 1 0
BITMAP
006FA000
07FFFD00
0F902F40
2E0007C0
7C0002D0
780001E0
B40001E0
BFFFFFF0
BEAAABF0
B80001F0
B80001E0
BC0002E0
7D0003D0
2E000BC0
0F902F40
07FFFD00
006FA000
ENDCHAR
STARTCHAR uni0473
ENCODING 1139
SWIDTH 567 0
DWIDTH 14 0
BBX 12 13 1 0
BITMAP
01BE40
0FFFE0
2E01F8
78007C
B4002D
FFFFFE
FEAABE
F4002E
B8003D
7C007C
2E01F4
0FEFE0
02FE40
ENDCHAR
STARTCHAR uni0474
ENCODING 1140
SWIDTH 629 0
DWIDTH 15 0
BBX 15 17 0 0
BITMAP
BC0000B8
7D0002F8
3E0003D0
2E000780
1F000B40
0B400F00
07801E00
03C02D00
02D03C00
01E07800
00F0B400
00B4F000
0079E000
003ED000
002FC000
001F8000
000F4000
ENDCHAR
STARTCHAR uni0475
ENCODING 1141
SWIDTH 501 0
DWIDTH 12 0
BBX 12 13 0 0
BITMAP
7C002F
3D007F
2E00F4
1E01F0
0F02E0
0B42D0
0783C0
03C780
02DB40
01EF00
00FE00
00BD00
007800
ENDCHAR
STARTCHAR uni0476
ENCODING 1142
SWIDTH 629 0
DWIDTH 15 0
BBX 15 21 0 0
BITMAP
1F5F0000
07E78000
00A5D000
00000000
BC0000B8
7D0002F8
3E0003D0
2E000780
1F000B40
0B400F00
07801E00
03C02D00
02D03C00
01E07800
00F0B400
00B4F000
0079E000
003ED000
002FC000
001F8000
000F4000
ENDCHAR
STARTCHAR uni0477
ENCODING 1143
SWIDTH 501 0
DWIDTH 12 0
BBX 12 18 0 0
BITMAP
7DB800
1F6E00
078A40
000000
000000
7C002F
3D007F
2E00F4
1E01F0
0F02E0
0B42D0
0783C0
03C780
02DB40
01EF00
00FE00
00BD00
007800
ENDCHAR
STARTCHAR uni0478
ENCODING 1144
SWIDTH 1160 0
DWIDTH 28 0
BBX 27 22 1 -5
BITMAP
006FE400000000
03FFFD00000000
0FD02F40000000
2F0007C0000000
3D0002E0F400F4
7C0001E0B801F0
780001F07C02E0
B80000F03D02D0
B80000F02E03C0
B80000F01F0780
780001F00F4B40
7C0001E00B8F00
3D0002E007DE00
2F0007C003FD00
0F901F4001FC00
03FFFE0000F800
006FE40000B400
0000000000F000
0000000001E000
0000000007C000
000000007F8000
000000007D0000
ENDCHAR
STARTCHAR uni0479
ENCODING 1145
SWIDTH 1043 0
DWIDTH 25 0
BBX 24 18 1 -5
BITMAP
01BE403D002E
0FEFE02E003D
2E01F80F007C
7C007C0B40B8
B8003D0780F4
F4002E03C1F0
F4002E02D2E0
F4002E01E3C0
B8003D00F780
7C007C00BF40
3E01F8007F00
0FEFE0003E00
02FE40002D00
000000003C00
000000007800
00000000F400
0000001FE000
0000001F8000
ENDCHAR
STARTCHAR uni047A
ENCODING 1146
SWIDTH 680 0
DWIDTH 16 0
BBX 14 21 1 -2
BITMAP
00050000
000F4000
00BFE400
07FFFD00
1F9F6F40
2E000BC0
7D0003D0
B80002E0
B80001E0
B80001F0
B40001F0
B40001F0
B80001F0
B80002E0
7C0003D0
2E0007C0
1F8F6F40
07FFFD00
00BFE400
000F4000
00060000
ENDCHAR
STARTCHAR uni047B
ENCODING 1147
SWIDTH 566 0
DWIDTH 14 0
BBX 12 17 1 -2
BITMAP
001400
007C00
02FF40
1FFFE0
3E7DF8
7C007C
B8003D
F4002E
F4002E
F4002E
B8003D
7C007C
3E7CF8
1FFFE0
02FF40
007C00
001400
ENDCHAR
STARTCHAR uni047C
ENCODING 1148
SWIDTH 875 0
DWIDTH 21 0
BBX 19 23 1 0
BITMAP
0001500000
0007FD0000
000E1BE400
000D01B800
00003C0000
0000380000
02E0601E00
0FE0001FC0
2F400003E0
3D000001F0
3D000000F4
7C000000F4
7C000000F4
7C006800F4
7C00B800F4
7C00B800F4
7C00B800F4
7C00B800F4
3D00B800F4
3D00FC01F0
2F42FE02E0
0FFFDFFFC0
02FE02FE00
ENDCHAR
STARTCHAR uni047D
ENCODING 1149
SWIDTH 767 0
DWIDTH 18 0
BBX 16 18 1 0
BITMAP
00055000
002FFE90
00381BE0
0000F000
0000F000
0781E1E0
2F8181FC
3D00002E
7800001F
7800001F
B800001F
B803D01F
B803D01F
B803D01F
7803D01F
3D0BF02E
2FBFBEFC
07F81BE0
ENDCHAR
STARTCHAR uni047E
ENCODING 1150
SWIDTH 878 0
DWIDTH 21 0
BBX 19 21 1 0
BITMAP
0015555000
003FFFF400
0000780000
0000000000
7C00B800F4
7C00B800F4
7C00B800F4
7C00B800F4
7C00B800F4
7C00B800F4
7C00B800F4
7C00B800F4
7C00B800F4
7C00B800F4
7C00B800F4
7C00B800F4
3C00B800F4
3D00BC00F4
2F02FE02F0
0FFFDFFFD0
02FE02FE40
ENDCHAR
STARTCHAR uni047F
ENCODING 1151
SWIDTH 770 0
DWIDTH 19 0
BBX 16 19 1 0
BITMAP
00555540
01FFFFC0
0002D000
0002D000
00000000
00000000
7802D00F
7802D00F
7802D00F
7802D00F
7802D00F
7802D00F
7802D00F
7802D00F
7802D00F
7803D01F
3D0BF02E
2FBFBEFC
07F81FE0
ENDCHAR
STARTCHAR uni0480
ENCODING 1152
SWIDTH 649 0
DWIDTH 16 0
BBX 13 21 1 -4
BITMAP
00AFE000
07FFFD00
1F802F40
2E000B80
7C0007C0
7C000280
B8000000
B8000000
B8000000
B8000000
B8000000
78000000
7C000000
2E000000
1F800000
07FA4000
00BF4000
000F4000
000F4000
000F4000
000F4000
ENDCHAR
STARTCHAR uni0481
ENCODING 1153
SWIDTH 534 0
DWIDTH 13 0
BBX 11 17 1 -4
BITMAP
01FE40
0FEFD0
2E01F0
7C00B4
B80064
B40000
B40000
B40000
B80000
7C0000
3E0000
1FE800
02FC00
007C00
007C00
007C00
007C00
ENDCHAR
STARTCHAR uni0482
ENCODING 1154
SWIDTH 623 0
DWIDTH 15 0
BBX 13 16 1 0
BITMAP
00001E00
00002C00
00907800
00F9F000
002FD000
0007F400
000BBE40
000E0B40
742D0000
7F780000
0BF40000
01FD0000
03DF8000
0B42C000
0F000000
2D000000
ENDCHAR
STARTCHAR uni0483
ENCODING 1155
SWIDTH 0 0
DWIDTH 0 0
BBX 9 5 -11 13
BITMAP
000640
555B40
BFFF40
B00000
500000
ENDCHAR
STARTCHAR uni0484
ENCODING 1156
SWIDTH 0 0
DWIDTH 0 0
BBX 9 3 -11 15
BITMAP
005500
6BFF80
BE42C0
ENDCHAR
STARTCHAR uni0485
ENCODING 1157
SWIDTH 0 0
DWIDTH 0 0
BBX 3 4 -8 15
BITMAP
B4
B4
38
18
ENDCHAR
STARTCHAR uni0486
ENCODING 1158
SWIDTH 0 0
DWIDTH 0 0
BBX 3 4 -7 15
BITMAP
78
78
B0
90
ENDCHAR
STARTCHAR uni0488
ENCODING 1160
SWIDTH 0 0
DWIDTH 0 0
BBX 23 22 -18 -5
BITMAP
00000B900000
000028B00000
000010100000
02F400006E40
071D0000A280
000400004040
000000000000
000000000000
000000000000
2F40000002F4
B1C000000A1C
004000000004
000000000000
000000000000
000000000000
02F400007E00
0A1C0000D280
000400004000
000000000000
00000B900000
000028B00000
000000100000
ENDCHAR
STARTCHAR uni0489
ENCODING 1161
SWIDTH 0 0
DWIDTH 0 0
BBX 22 22 -18 -5
BITMAP
000002800000
000003400000
008007400000
00E00B001A00
00740001B800
00380001D000
001000000000
000000000000
000000000000
690000000A40
2F8000000BE0
014000000050
000000000000
000000000000
000000000000
000000005000
00280000E000
01F800007400
028007802800
000007001800
00000A000000
000009000000
ENDCHAR
STARTCHAR uni048A
ENCODING 1162
SWIDTH 754 0
DWIDTH 18 0
BBX 15 25 2 -4
BITMAP
02C0B000
01E6E000
007F8000
00000000
F4000BC0
F4001FC0
F4003FC0
F400BFC0
F401FBC0
F402E7C0
F407C7C0
F40F47C0
F42E07C0
F47D07C0
F4F807C0
F6F007C0
FBD007C0
FF8007C0
FF0007C0
FD0007E8
F80007FC
0000003C
00000078
000000B4
000000A0
ENDCHAR
STARTCHAR uni048B
ENCODING 1163
SWIDTH 615 0
DWIDTH 15 0
BBX 13 21 1 -4
BITMAP
0741D000
03D7C000
01BE0000
00000000
7C007C00
7C00FC00
7C02FC00
7C07FC00
7C0F7C00
7C2E3C00
7C7C3C00
7CB43C00
7DE03C00
7FD03C00
7F803C00
7F003E80
7D003FC0
000003C0
00000780
00000B40
00000A00
ENDCHAR
STARTCHAR uni048C
ENCODING 1164
SWIDTH 627 0
DWIDTH 15 0
BBX 15 17 -1 0
BITMAP
03C00000
03C00000
BFFF0000
6BEA0000
03C00000
03C00000
03C00000
03FFFE40
03FFFFE0
03C001F4
03C000BC
03C0007C
03C0007C
03C000BC
03C002F4
03FFFFE0
03FFFE40
ENDCHAR
STARTCHAR uni048D
ENCODING 1165
SWIDTH 541 0
DWIDTH 13 0
BBX 13 20 -1 0
BITMAP
01400000
07C00000
07C00000
7FFF8000
6BEA8000
07C00000
07C00000
07C00000
07C00000
07C00000
07C00000
07FFF800
07EAFF00
07C00F80
07C007C0
07C007C0
07C007C0
07C00F80
07EABE00
07FFF800
ENDCHAR
STARTCHAR uni048E
ENCODING 1166
SWIDTH 638 0
DWIDTH 15 0
BBX 13 17 2 0
BITMAP
FFFF9000
FFFFF800
F400BD00
F4002F00
F4001F00
F4000F40
F4019F00
F402FF00
F401FD00
FFFFFD00
FFFA9F40
F4000600
F4000000
F4000000
F4000000
F4000000
F4000000
ENDCHAR
STARTCHAR uni048F
ENCODING 1167
SWIDTH 566 0
DWIDTH 14 0
BBX 12 18 1 -5
BITMAP
78BF80
7FFFE0
7E01F4
7C00BC
78003D
78003D
78003D
78003D
78013D
7C0BFC
7E03F4
7FEFF4
78BFBD
780014
780000
780000
780000
780000
ENDCHAR
STARTCHAR uni0490
ENCODING 1168
SWIDTH 548 0
DWIDTH 13 0
BBX 11 21 2 0
BITMAP
0000B4
0000B4
0000B4
0000B4
FFFFF4
FFFFF4
F00000
F00000
F00000
F00000
F00000
F00000
F00000
F00000
F00000
F00000
F00000
F00000
F00000
F00000
F00000
ENDCHAR
STARTCHAR uni0491
ENCODING 1169
SWIDTH 445 0
DWIDTH 11 0
BBX 9 16 1 0
BITMAP
000780
000780
000780
7FFF80
7EAA80
7C0000
7C0000
7C0000
7C0000
7C0000
7C0000
7C0000
7C0000
7C0000
7C0000
7C0000
ENDCHAR
STARTCHAR uni0492
ENCODING 1170
SWIDTH 556 0
DWIDTH 13 0
BBX 13 17 0 0
BITMAP
0FFFFF80
0FFFFF40
0F400000
0F400000
0F400000
0F400000
0F400000
FFFD0000
AFE90000
0F400000
0F400000
0F400000
0F400000
0F400000
0F400000
0F400000
0F400000
ENDCHAR
STARTCHAR uni0493
ENCODING 1171
SWIDTH 419 0
DWIDTH 10 0
BBX 10 13 0 0
BITMAP
1FFFE0
1FAAA0
1F0000
1F0000
1F0000
FFFD00
AFA900
1F0000
1F0000
1F0000
1F0000
1F0000
1F0000
ENDCHAR
STARTCHAR uni0494
ENCODING 1172
SWIDTH 606 0
DWIDTH 15 0
BBX 12 20 2 -3
BITMAP
FFFFF8
FFFFF4
F40000
F40000
F40000
F40000
F40000
FFF900
FFFFD0
F406F4
F400B8
F4003C
F4003D
F4002D
F4002D
F4003D
F4007C
0000B8
000BE0
000E40
ENDCHAR
STARTCHAR uni0495
ENCODING 1173
SWIDTH 502 0
DWIDTH 12 0
BBX 11 16 1 -3
BITMAP
7FFF80
7EAA80
7C0000
7C0000
7C0000
7FF900
7FFF40
7C0BD0
7C02F0
7C00F0
7C00F4
7C00F0
7C01F0
0007D0
002F80
001900
ENDCHAR
STARTCHAR uni0496
ENCODING 1174
SWIDTH 954 0
DWIDTH 23 0
BBX 23 21 0 -4
BITMAP
3E000F000B80
1F400F001F00
0BC00F003D00
02E00F00B800
00F40F01F000
007C0F03D000
002E0F0B8000
000FFFFF0000
001FFFFF4000
003E0F0BC000
00BC0F03E000
01F40F01F400
03E00F00FC00
0BD00F007D00
1F800F002F00
2F000F000FF8
7D000F0007F8
0000000000B8
0000000000B8
0000000000B8
0000000000B8
ENDCHAR
STARTCHAR uni0497
ENCODING 1175
SWIDTH 797 0
DWIDTH 19 0
BBX 19 17 0 -4
BITMAP
3E00F407D0
1F40F40F80
0BC0F42F00
03E0F47D00
01F4F4F400
007FFFE000
00BFFFF000
01F4F4F800
03E0F47D00
0BC0F42E00
1F40F41F40
2F00F40BF8
7D00F403F8
0000000078
0000000078
0000000078
0000000078
ENDCHAR
STARTCHAR uni0498
ENCODING 1176
SWIDTH 593 0
DWIDTH 14 0
BBX 13 22 1 -5
BITMAP
02FF9000
1FFFF800
7E007E00
B8002F00
A4001F00
00002E00
0000BD00
00BFE400
00BFF400
00007D00
00001F00
00000F40
F4000F40
B8001F00
7E00BE00
2FFFF800
06FF9000
003D0000
003D0000
003D0000
003D0000
003D0000
ENDCHAR
STARTCHAR uni0499
ENCODING 1177
SWIDTH 507 0
DWIDTH 12 0
BBX 10 18 1 -5
BITMAP
06FE00
3FEFD0
B802E0
5401E0
0006D0
03FF40
02BF80
0002E0
0001F0
F401F0
BC02E0
3FAFC0
0BFE00
00F400
00F400
00F400
00F400
00F400
ENDCHAR
STARTCHAR uni049A
ENCODING 1178
SWIDTH 700 0
DWIDTH 17 0
BBX 14 21 2 -4
BITMAP
F4001F40
F4007E00
F400F800
F403F000
F40BC000
F42F4000
F47D0000
FFF80000
FFFC0000
F43E0000
F41F4000
F40BD000
F402F000
F400F800
F4007D00
F4002FE0
F4000BF0
000001E0
000001E0
000001E0
000001E0
ENDCHAR
STARTCHAR uni049B
ENCODING 1179
SWIDTH 589 0
DWIDTH 14 0
BBX 13 17 1 -4
BITMAP
7C00B800
7C02F000
7C07D000
7C1F4000
7C7D0000
7FF80000
7FFC0000
7C3E0000
7C1F4000
7C0BC000
7C02E000
7C00FF80
7C007F80
00000B80
00000B80
00000B80
00000B80
ENDCHAR
STARTCHAR uni049C
ENCODING 1180
SWIDTH 629 0
DWIDTH 15 0
BBX 13 17 2 0
BITMAP
F4001F40
F4003E00
F400BC00
F400F400
F6C2E000
F6C7C000
F6CB4000
FFFF0000
FFFF4000
F6CB8000
F6C3D000
F582F000
F400F400
F400BC00
F4003E00
F4002F00
F4000F80
ENDCHAR
STARTCHAR uni049D
ENCODING 1181
SWIDTH 561 0
DWIDTH 13 0
BBX 13 13 1 0
BITMAP
7C003E00
7C007C00
7C50F400
7CB2E000
7CB7C000
7FFF4000
7FFF8000
7CB7D000
7CB2E000
7C10F400
7C00BC00
7C003E00
7C002F40
ENDCHAR
STARTCHAR uni049E
ENCODING 1182
SWIDTH 652 0
DWIDTH 16 0
BBX 16 17 0 0
BITMAP
0B8001F8
0B8003E0
0B800BC0
FFFD2F40
AFE9BD00
0B81F400
0B87E000
0BFF8000
0BFFD000
0B83F000
0B80F800
0B807D00
0B802F40
0B800BC0
0B8003E0
0B8001F4
0B8000BD
ENDCHAR
STARTCHAR uni049F
ENCODING 1183
SWIDTH 519 0
DWIDTH 12 0
BBX 13 18 -1 0
BITMAP
03C00000
03C00000
BFFE0000
ABEA0000
03C00000
03C00F40
03C02E00
03C0BC00
03C1F400
03C3D000
03FF8000
03EFC000
03C3E000
03C1F400
03C0BC00
03C02E00
03C00F40
03C007C0
ENDCHAR
STARTCHAR uni04A0
ENCODING 1184
SWIDTH 818 0
DWIDTH 20 0
BBX 20 17 0 0
BITMAP
7FFF8000F8
2AAF8003E0
000B800BC0
000B802F40
000B807D00
000B81F800
000B87E000
000BFFC000
000BFFD000
000B82F000
000B80F800
000B807D00
000B802F40
000B800BC0
000B8003E0
000B8001F4
000B8000BD
ENDCHAR
STARTCHAR uni04A1
ENCODING 1185
SWIDTH 688 0
DWIDTH 17 0
BBX 16 13 0 0
BITMAP
7FFE003E
6ABE00B8
001E02E0
001E0BC0
001E1F00
001FFD00
001FFE00
001E1F40
001E0BC0
001E02E0
001E00F8
001E007D
001E002F
ENDCHAR
STARTCHAR uni04A2
ENCODING 1186
SWIDTH 749 0
DWIDTH 18 0
BBX 15 21 2 -4
BITMAP
F40007C0
F40007C0
F40007C0
F40007C0
F40007C0
F40007C0
F40007C0
FFFFFFC0
FFFFFFC0
F40007C0
F40007C0
F40007C0
F40007C0
F40007C0
F40007C0
F40007FC
F40007FC
0000007C
0000007C
0000007C
0000007C
ENDCHAR
STARTCHAR uni04A3
ENCODING 1187
SWIDTH 605 0
DWIDTH 15 0
BBX 13 17 1 -4
BITMAP
7C007C00
7C007C00
7C007C00
7C007C00
7C007C00
7FFFFC00
7EAABC00
7C007C00
7C007C00
7C007C00
7C007C00
7C007FC0
7C007FC0
000007C0
000007C0
000007C0
000007C0
ENDCHAR
STARTCHAR uni04A4
ENCODING 1188
SWIDTH 976 0
DWIDTH 23 0
BBX 21 17 2 0
BITMAP
F40007FFFF80
F40007EAAA40
F40007C00000
F40007C00000
F40007C00000
F40007C00000
F40007C00000
FFFFFFC00000
FFFFFFC00000
F40007C00000
F40007C00000
F40007C00000
F40007C00000
F40007C00000
F40007C00000
F40007C00000
F40007C00000
ENDCHAR
STARTCHAR uni04A5
ENCODING 1189
SWIDTH 712 0
DWIDTH 17 0
BBX 16 13 1 0
BITMAP
7C007FFD
7C007EA9
7C007C00
7C007C00
7C007C00
7FFFFC00
7EAAFC00
7C007C00
7C007C00
7C007C00
7C007C00
7C007C00
7C007C00
ENDCHAR
STARTCHAR uni04A6
ENCODING 1190
SWIDTH 1023 0
DWIDTH 25 0
BBX 22 20 2 -3
BITMAP
FFFFFFC00000
FFFFFFC00000
F40007C00000
F40007C00000
F40007C00000
F40007C00000
F40007C00000
F40007FF9000
F40007FFFD00
F40007C06F40
F40007C00B80
F40007C003C0
F40007C003D0
F40007C002D0
F40007C002D0
F40007C003D0
F40007C007C0
000000000F80
00000000BE00
00000000E400
ENDCHAR
STARTCHAR uni04A7
ENCODING 1191
SWIDTH 869 0
DWIDTH 21 0
BBX 19 16 1 -3
BITMAP
7FFFFC0000
7EAAFC0000
7C007C0000
7C007C0000
7C007C0000
7C007FFA00
7C007FFFD0
7C007C06F4
7C007C00B8
7C007C007C
7C007C003C
7C007C007C
7C007C00B8
00000001F0
0000000BD0
0000000A40
ENDCHAR
STARTCHAR uni04A8
ENCODING 1192
SWIDTH 741 0
DWIDTH 18 0
BBX 16 17 1 0
BITMAP
01A06F90
0BE1FFF4
1F43E0BC
3D07C03D
7C0B802E
B80F402E
B80F401E
B80F401E
B80F401E
B80B402E
B80B802E
7C07C03D
3D02E0BC
2F01FAF4
0BD07FE0
02FFFFFF
006FE46F
ENDCHAR
STARTCHAR uni04A9
ENCODING 1193
SWIDTH 603 0
DWIDTH 14 0
BBX 13 13 1 0
BITMAP
0746E400
1F5FFD00
3D2E2E00
783C0F00
B83C0F40
B43C0F40
B43C0F40
B83D0F40
7C2E1F00
3D1FBE00
1F47FC00
0BFFFF80
01BE5B80
ENDCHAR
STARTCHAR uni04AA
ENCODING 1194
SWIDTH 650 0
DWIDTH 16 0
BBX 14 22 1 -5
BITMAP
006FE400
03FFFE00
0F901F40
2E0007C0
3D0003D0
7C000290
78000000
B8000000
B8000000
B8000000
B8000000
7C000290
3D0003D0
2E0007C0
0F801F40
07FFFE00
00BFE400
000F0000
000F0000
000F0000
000F0000
000F0000
ENDCHAR
STARTCHAR uni04AB
ENCODING 1195
SWIDTH 523 0
DWIDTH 13 0
BBX 11 18 1 -5
BITMAP
02FE40
1FEFD0
3E01F4
7800B8
B40064
F40000
F40000
F40000
B40014
7C00B8
3E01F4
1FEFD0
02FE40
00B400
00B400
00B400
00B400
00B400
ENDCHAR
STARTCHAR uni04AC
ENCODING 1196
SWIDTH 596 0
DWIDTH 14 0
BBX 14 21 0 -4
BITMAP
7FFFFFE0
7FFFFFE0
000F4000
000F4000
000F4000
000F4000
000F4000
000F4000
000F4000
000F4000
000F4000
000F4000
000F4000
000F4000
000F4000
000FF000
000FF000
0000F000
0000F000
0000F000
0000F000
ENDCHAR
STARTCHAR uni04AD
ENCODING 1197
SWIDTH 480 0
DWIDTH 12 0
BBX 11 17 0 -4
BITMAP
BFFFFC
6AFEA8
007800
007800
007800
007800
007800
007800
007800
007800
007800
007F80
007F80
000780
000780
000780
000780
ENDCHAR
STARTCHAR uni04AE
ENCODING 1198
SWIDTH 600 0
DWIDTH 14 0
BBX 14 17 0 0
BITMAP
BC0002F0
3E0003D0
1F000B80
0F801F40
07C02E00
02E07C00
01F0B800
00B9F000
003FD000
002FC000
000F4000
000F4000
000F4000
000F4000
000F4000
000F4000
000F4000
ENDCHAR
STARTCHAR uni04AF
ENCODING 1199
SWIDTH 500 0
DWIDTH 12 0
BBX 12 18 0 -5
BITMAP
7C002D
3D003C
2E0078
1F00B4
0B40F0
0781E0
03C2D0
02D3C0
01E780
00FF40
00BE00
007D00
003D00
003D00
003D00
003D00
003D00
003D00
ENDCHAR
STARTCHAR uni04B0
ENCODING 1200
SWIDTH 600 0
DWIDTH 14 0
BBX 14 17 0 0
BITMAP
BC0002F0
3E0003D0
1F000B80
0F801F40
07C02E00
02E07C00
01F0B800
00B9F000
003FD000
02FFFC00
01AFE800
000F4000
000F4000
000F4000
000F4000
000F4000
000F4000
ENDCHAR
STARTCHAR uni04B1
ENCODING 1201
SWIDTH 500 0
DWIDTH 12 0
BBX 12 18 0 -5
BITMAP
7C002D
3D003C
2E0078
1F00B4
0B40F0
0781E0
03C2D0
02D3C0
01EB80
00FF00
00BE00
06FFA0
0BFFF0
003D00
003D00
003D00
003D00
003D00
ENDCHAR
STARTCHAR uni04B2
ENCODING 1202
SWIDTH 636 0
DWIDTH 15 0
BBX 14 21 1 -4
BITMAP
F8000BC0
7D001F40
2F003E00
0F80BC00
07D1F400
02F2E000
00FFC000
007F4000
003F0000
007F8000
00FBD000
02E2F000
07D0F800
0F807D00
2F002E00
7D001FF0
F8000BF0
000001F0
000001F0
000001F0
000001F0
ENDCHAR
STARTCHAR uni04B3
ENCODING 1203
SWIDTH 520 0
DWIDTH 13 0
BBX 12 17 0 -4
BITMAP
3D00BC
1F01F4
0B82E0
03D7C0
01EF40
00BE00
007D00
00FE00
02EB40
07C7C0
0F82E0
2F00FF
7D007F
00000F
00000F
00000F
00000F
ENDCHAR
STARTCHAR uni04B4
ENCODING 1204
SWIDTH 896 0
DWIDTH 22 0
BBX 20 21 0 -4
BITMAP
7FFFFE01F0
6ABEAA01F0
003D0001F0
003D0001F0
003D0001F0
003D0001F0
003D0001F0
003D0001F0
003D0001F0
003D0001F0
003D0001F0
003D0001F0
003D0001F0
003D0001F0
003D0001F0
003FFFFFFE
003FFFFFFE
000000002E
000000002E
000000002E
000000002E
ENDCHAR
STARTCHAR uni04B5
ENCODING 1205
SWIDTH 669 0
DWIDTH 16 0
BBX 16 17 0 -4
BITMAP
BFFF81E0
6BFA81E0
01E001E0
01E001E0
01E001E0
01E001E0
01E001E0
01E001E0
01E001E0
01E001E0
01E001E0
01FAABF9
01FFFFFD
0000003D
0000003C
0000003C
0000003C
ENDCHAR
STARTCHAR uni04B6
ENCODING 1206
SWIDTH 716 0
DWIDTH 17 0
BBX 16 21 1 -4
BITMAP
7C0003D0
7C0003D0
7C0003D0
7C0003D0
7C0003D0
7C0003D0
3C0003D0
3D0003D0
2F401BD0
0BFFFFD0
01AFA7D0
000003D0
000003D0
000003D0
000003D0
000003FD
000003FD
0000003D
0000003D
0000003D
0000003D
ENDCHAR
STARTCHAR uni04B7
ENCODING 1207
SWIDTH 573 0
DWIDTH 14 0
BBX 12 17 1 -4
BITMAP
B400F4
B400F4
B400F4
B400F4
B400F4
B800F4
7D01F4
1FFFF4
06AAF4
0000F4
0000F4
0000FF
0000FF
00000F
00000F
00000F
00000F
ENDCHAR
STARTCHAR uni04B8
ENCODING 1208
SWIDTH 679 0
DWIDTH 16 0
BBX 14 17 1 0
BITMAP
7C0003D0
7C0003D0
7C0003D0
7C0003D0
7C0003D0
7C0603D0
3C0743D0
3D0743D0
2F4757D0
0BFFFFD0
01BFE7D0
000743D0
000743D0
000643D0
000003D0
000003D0
000003D0
ENDCHAR
STARTCHAR uni04B9
ENCODING 1209
SWIDTH 551 0
DWIDTH 13 0
BBX 11 13 1 0
BITMAP
7800B8
7800B8
7800B8
7810B8
7878B8
7C78B8
3E79B8
1FFFF8
02BEB8
0078B8
0014B8
0000B8
0000B8
ENDCHAR
STARTCHAR uni04BA
ENCODING 1210
SWIDTH 679 0
DWIDTH 16 0
BBX 14 17 1 0
BITMAP
7C000000
7C000000
7C000000
7C000000
7C000000
7C000000
7EBFE400
7FFFFE00
7D401F80
7C0007C0
7C0003C0
7C0003D0
7C0003D0
7C0003D0
7C0003D0
7C0003D0
7C0003D0
ENDCHAR
STARTCHAR uni04BB
ENCODING 1211
SWIDTH 550 0
DWIDTH 13 0
BBX 11 18 1 0
BITMAP
780000
780000
780000
780000
780000
78BF80
7EFFE0
7F41F4
7C00B8
7800B8
7800B8
7800B8
7800B8
7800B8
7800B8
7800B8
7800B8
7800B8
ENDCHAR
STARTCHAR uni04BC
ENCODING 1212
SWIDTH 772 0
DWIDTH 19 0
BBX 18 17 0 0
BITMAP
00006FA000
0007FFFD00
000F802F00
002E000B40
743D0007C0
387C0003C0
2EB80003C0
0BFFFFFFD0
01BEAAAA80
00B8000000
0078000000
007C000000
003D000000
002F000000
000F900600
0003FFFF40
00006FF900
ENDCHAR
STARTCHAR uni04BD
ENCODING 1213
SWIDTH 592 0
DWIDTH 14 0
BBX 14 13 -1 0
BITMAP
0006F900
002FFF80
64BD07D0
74F001E0
3EE000F0
1FFFFFF0
02FAAAA0
02E00000
01F00000
00F40040
00BD01E0
002FEFD0
0006FE00
ENDCHAR
STARTCHAR uni04BE
ENCODING 1214
SWIDTH 772 0
DWIDTH 19 0
BBX 18 22 0 -5
BITMAP
00006FA000
0007FFFD00
000F802F00
002E000B40
743D0007C0
387C0003C0
2EB80003C0
0BFFFFFFD0
01BEAAAA80
00B8000000
0078000000
007C000000
003D000000
002F000000
000F900600
0003FFFF40
00006FF900
00000B4000
00000B4000
00000B4000
00000B4000
00000B4000
ENDCHAR
STARTCHAR uni04BF
ENCODING 1215
SWIDTH 592 0
DWIDTH 14 0
BBX 14 18 -1 -5
BITMAP
0006F900
002FFF80
64BD07D0
74F001E0
3EE000F0
1FFFFFF0
02FAAAA0
02E00000
01F00000
00F40040
00BD01E0
002FEFD0
0006FE00
0000B400
0000B400
0000B400
0000B400
0000B400
ENDCHAR
STARTCHAR uni04C0
ENCODING 1216
SWIDTH 271 0
DWIDTH 7 0
BBX 3 17 2 0
BITMAP
F4
F4
F4
F4
F4
F4
F4
F4
F4
F4
F4
F4
F4
F4
F4
F4
F4
ENDCHAR
STARTCHAR uni04C1
ENCODING 1217
SWIDTH 907 0
DWIDTH 22 0
BBX 22 21 0 0
BITMAP
0001D0740000
0000F5F00000
00006F800000
000000000000
3E000F000B80
1F400F001F00
0BC00F003D00
02E00F00B800
00F40F01F000
007C0F03D000
002E0F0B8000
000FFFFF0000
001FFFFF4000
003E0F0BC000
00BC0F03E000
01F40F01F400
03E00F00FC00
0BD00F007D00
1F800F002F00
2F000F000F80
7D000F0007D0
ENDCHAR
STARTCHAR uni04C2
ENCODING 1218
SWIDTH 765 0
DWIDTH 18 0
BBX 18 17 0 0
BITMAP
001D078000
000F9F4000
0002F90000
0000000000
3E00F407D0
1F40F40F80
0BC0F42F00
03E0F47D00
01F4F4F400
007FFFE000
00BFFFF000
01F4F4F800
03E0F47D00
0BC0F42E00
1F40F41F40
2F00F40BC0
7D00F403E0
ENDCHAR
STARTCHAR uni04C3
ENCODING 1219
SWIDTH 629 0
DWIDTH 15 0
BBX 13 21 2 -4
BITMAP
F4002F00
F400BC00
F401F400
F407D000
F41F8000
F43E0000
F4B80000
FFFE4000
FFFFF000
F401FC00
F4003E00
F4001F00
F4000F40
F4000F40
F4000F40
F4000F40
F4000F00
00001E00
00007D00
0007F800
00079000
ENDCHAR
STARTCHAR uni04C4
ENCODING 1220
SWIDTH 543 0
DWIDTH 13 0
BBX 11 16 1 -3
BITMAP
7C00B8
7C02E0
7C0BC0
7C2F00
7C7C00
7FFE40
7FFFE0
7C02F4
7C00BC
7C003C
7C003C
7C003C
7C0078
0001F4
000BE0
000640
ENDCHAR
STARTCHAR uni04C5
ENCODING 1221
SWIDTH 749 0
DWIDTH 18 0
BBX 17 21 0 -4
BITMAP
00BFFFFC00
00BFFFFC00
00B4007C00
00B4007C00
00B4007C00
00F4007C00
00F4007C00
00F4007C00
00F4007C00
00F0007C00
00F0007C00
01F0007C00
01E0007C00
02E0007C00
07C0007C00
7F80007E80
7900007FC0
00000007C0
0000000780
0000000B40
0000000900
ENDCHAR
STARTCHAR uni04C6
ENCODING 1222
SWIDTH 616 0
DWIDTH 15 0
BBX 14 17 0 -4
BITMAP
02FFFF00
02FAAF00
02E00F00
02D00F00
02D00F00
02D00F00
02D00F00
03D00F00
03C00F00
07C00F00
0B800F00
7F400FA0
79000FF0
000000F0
000001F0
000002D0
00000280
ENDCHAR
STARTCHAR uni04C7
ENCODING 1223
SWIDTH 711 0
DWIDTH 17 0
BBX 13 22 2 -5
BITMAP
F40007C0
F40007C0
F40007C0
F40007C0
F40007C0
F40007C0
F40007C0
FFFFFFC0
FFFFFFC0
F40007C0
F40007C0
F40007C0
F40007C0
F40007C0
F40007C0
F40007C0
F40007C0
000007C0
000007C0
00000B80
0000FF40
0000F900
ENDCHAR
STARTCHAR uni04C8
ENCODING 1224
SWIDTH 566 0
DWIDTH 14 0
BBX 11 18 1 -5
BITMAP
7C007C
7C007C
7C007C
7C007C
7C007C
7FFFFC
7EAAFC
7C007C
7C007C
7C007C
7C007C
7C007C
7C007C
00007C
000078
0000B8
000FF0
000F90
ENDCHAR
STARTCHAR uni04C9
ENCODING 1225
SWIDTH 758 0
DWIDTH 18 0
BBX 16 21 2 -4
BITMAP
F40007C0
F40007C0
F40007C0
F40007C0
F40007C0
F40007C0
F40007C0
FFFFFFC0
FFFFFFC0
F40007C0
F40007C0
F40007C0
F40007C0
F40007C0
F40007C0
F40007E8
F40007FD
0000003C
0000007C
000000B4
000000A0
ENDCHAR
STARTCHAR uni04CA
ENCODING 1226
SWIDTH 615 0
DWIDTH 15 0
BBX 13 17 1 -4
BITMAP
7C007C00
7C007C00
7C007C00
7C007C00
7C007C00
7FFFFC00
7EAABC00
7C007C00
7C007C00
7C007C00
7C007C00
7C007E80
7C007FC0
000003C0
00000780
00000B40
00000A00
ENDCHAR
STARTCHAR uni04CB
ENCODING 1227
SWIDTH 684 0
DWIDTH 16 0
BBX 14 21 1 -4
BITMAP
7C0003D0
7C0003D0
7C0003D0
7C0003D0
7C0003D0
7C0003D0
3C0003D0
3D0003D0
2F401BD0
0BFFFFD0
01AFA7D0
000003D0
000003D0
000003D0
000003D0
00002FD0
00002FD0
00002D00
00002D00
00002D00
00002D00
ENDCHAR
STARTCHAR uni04CC
ENCODING 1228
SWIDTH 543 0
DWIDTH 13 0
BBX 11 17 1 -4
BITMAP
B400F4
B400F4
B400F4
B400F4
B400F4
B800F4
7D01F4
1FFFF4
06AAF4
0000F4
0000F4
000FF4
000FF4
000F40
000F40
000F40
000F40
ENDCHAR
STARTCHAR uni04CD
ENCODING 1229
SWIDTH 913 0
DWIDTH 22 0
BBX 19 21 2 -4
BITMAP
FC00000FC0
FD00002FC0
FF00003FC0
FF40007FC0
FB8000BBC0
F7C000F7C0
F2E002E7C0
F1F003D7C0
F4F40787C0
F4780B47C0
F43C1F07C0
F42E2E07C0
F41F3C07C0
F40BB807C0
F407F407C0
F403F007E8
F402E007FC
000000007C
0000000078
00000000F4
0000000090
ENDCHAR
STARTCHAR uni04CE
ENCODING 1230
SWIDTH 780 0
DWIDTH 19 0
BBX 16 17 2 -4
BITMAP
FC0003F0
FD0007F0
FE000BF0
FF001FF0
FB802EF0
F3C03DF0
F2D0B9F0
F1F0F1F0
F0B5E1F0
F07AD1F0
F03F81F0
F01F41FA
F00F01FF
0000000F
0000001E
0000002D
00000028
ENDCHAR
STARTCHAR uni04CF
ENCODING 1231
SWIDTH 271 0
DWIDTH 7 0
BBX 3 17 2 0
BITMAP
F4
F4
F4
F4
F4
F4
F4
F4
F4
F4
F4
F4
F4
F4
F4
F4
F4
ENDCHAR
STARTCHAR uni04D0
ENCODING 1232
SWIDTH 652 0
DWIDTH 16 0
BBX 15 21 0 0
BITMAP
00B41D00
007DBC00
001BE000
00000000
0007C000
000BD000
000FE000
002EF000
003DB800
007C7C00
00B83D00
00F02E00
01E00F00
02D00B40
07C007C0
0BFFFFD0
0FFFFFE0
1F0001F0
2E0000F4
3D0000B8
7C00003C
ENDCHAR
STARTCHAR uni04D1
ENCODING 1233
SWIDTH 543 0
DWIDTH 13 0
BBX 11 17 1 0
BITMAP
0B42D0
079BC0
01BE00
000000
06FE40
1FEFD0
7D02F0
6400F4
0000F4
06FFF4
2FAAF4
7D00F4
B800F4
B800F4
7D07F4
3FFFF4
0BF8B8
ENDCHAR
STARTCHAR uni04D2
ENCODING 1234
SWIDTH 652 0
DWIDTH 16 0
BBX 15 21 0 0
BITMAP
00500400
00B82E00
00B42D00
00000000
0007C000
000BD000
000FE000
002EF000
003DB800
007C7C00
00B83D00
00F02E00
01E00F00
02D00B40
07C007C0
0BFFFFD0
0FFFFFE0
1F0001F0
2E0000F4
3D0000B8
7C00003C
ENDCHAR
STARTCHAR uni04D3
ENCODING 1235
SWIDTH 543 0
DWIDTH 13 0
BBX 11 18 1 0
BITMAP
050040
0F83E0
0B42D0
000000
000000
06FE40
1FEFD0
7D02F0
6400F4
0000F4
06FFF4
2FAAF4
7D00F4
B800F4
B800F4
7D07F4
3FFFF4
0BF8B8
ENDCHAR
STARTCHAR uni04D4
ENCODING 1236
SWIDTH 934 0
DWIDTH 22 0
BBX 22 17 0 0
BITMAP
00001FFFFFD0
00002FEAAA90
00007FD00000
0000F7D00000
0002E3D00000
0007D2D00000
000B82D00000
001F02FFFF40
003E02FAAA40
00BC02E00000
01F402E00000
02FFFFE00000
07FFFFE00000
0F8002E00000
2F0001E00000
7D0001FAAAA0
F80001FFFFF0
ENDCHAR
STARTCHAR uni04D5
ENCODING 1237
SWIDTH 844 0
DWIDTH 20 0
BBX 19 13 1 0
BITMAP
06FE06FE00
3FEFDFEFD0
BD02FD02E0
6401F800F4
0001F000B4
0BFFFFFFF4
7FAAFAAAA4
B801F00000
F401F40000
F401F80000
F807FE0060
7FBF9FEFF0
1BF902FE80
ENDCHAR
STARTCHAR uni04D6
ENCODING 1238
SWIDTH 568 0
DWIDTH 14 0
BBX 11 21 2 0
BITMAP
0E0380
0B9B40
02F900
000000
FFFFF8
FFFFF8
F40000
F40000
F40000
F40000
F40000
FFFFE0
FFFFE0
F40000
F40000
F40000
F40000
F40000
F40000
FFFFF8
FFFFF8
ENDCHAR
STARTCHAR uni04D7
ENCODING 1239
SWIDTH 529 0
DWIDTH 13 0
BBX 11 17 1 0
BITMAP
0B02C0
079B80
01BE00
000000
01BE40
0BEFD0
2E01F0
7800B8
B40078
BFFFF8
FEAAA8
F40000
B80000
7C0010
3E00B4
1FEBE0
02FE40
ENDCHAR
STARTCHAR uni04D8
ENCODING 1240
SWIDTH 690 0
DWIDTH 17 0
BBX 15 17 1 0
BITMAP
06BF9000
1FFFFD00
09006F40
00000BC0
000002E0
000001F0
000000F0
000000F4
FFFFFFF4
FEAAAAF4
F40001F0
B40001F0
780002E0
3D0007C0
1F402F40
07FFFD00
00BFE000
ENDCHAR
STARTCHAR uni04D9
ENCODING 1241
SWIDTH 526 0
DWIDTH 13 0
BBX 11 13 1 0
BITMAP
0BF900
7FAF80
2402E0
0001F4
0000B8
0000B8
FFFFF8
BEAAF8
B400B8
B800F0
7D02E0
1FEF80
06F900
ENDCHAR
STARTCHAR uni04DA
ENCODING 1242
SWIDTH 690 0
DWIDTH 17 0
BBX 15 21 1 0
BITMAP
01405000
07C1F400
03C0F000
00000000
06BF9000
1FFFFD00
09006F40
00000BC0
000002E0
000001F0
000000F0
000000F4
FFFFFFF4
FEAAAAF4
F40001F0
B40001F0
780002E0
3D0007C0
1F402F40
07FFFD00
00BFE000
ENDCHAR
STARTCHAR uni04DB
ENCODING 1243
SWIDTH 526 0
DWIDTH 13 0
BBX 11 18 1 0
BITMAP
050140
0F43D0
0F03C0
000000
000000
0BF900
7FAF80
2402E0
0001F4
0000B8
0000B8
FFFFF8
BEAAF8
B400B8
B800F0
7D02E0
1FEF80
06F900
ENDCHAR
STARTCHAR uni04DC
ENCODING 1244
SWIDTH 907 0
DWIDTH 22 0
BBX 22 21 0 0
BITMAP
000040100000
0002E0B80000
0002D0B40000
000000000000
3E000F000B80
1F400F001F00
0BC00F003D00
02E00F00B800
00F40F01F000
007C0F03D000
002E0F0B8000
000FFFFF0000
001FFFFF4000
003E0F0BC000
00BC0F03E000
01F40F01F400
03E00F00FC00
0BD00F007D00
1F800F002F00
2F000F000F80
7D000F0007D0
ENDCHAR
STARTCHAR uni04DD
ENCODING 1245
SWIDTH 765 0
DWIDTH 18 0
BBX 18 18 0 0
BITMAP
0005014000
002F0BC000
001E078000
0000000000
0000000000
3E00F407D0
1F40F40F80
0BC0F42F00
03E0F47D00
01F4F4F400
007FFFE000
00BFFFF000
01F4F4F800
03E0F47D00
0BC0F42E00
1F40F41F40
2F00F40BC0
7D00F403E0
ENDCHAR
STARTCHAR uni04DE
ENCODING 1246
SWIDTH 593 0
DWIDTH 14 0
BBX 13 21 1 0
BITMAP
01005000
0B82F000
0781E000
00000000
02FF9000
1FFFF800
7E007E00
B8002F00
A4001F00
00002E00
0000BD00
00BFE400
00BFF400
00007D00
00001F00
00000F40
F4000F40
B8001F00
7E00BE00
2FFFF800
06FF9000
ENDCHAR
STARTCHAR uni04DF
ENCODING 1247
SWIDTH 507 0
DWIDTH 12 0
BBX 10 18 1 0
BITMAP
040100
2E0B80
1E0780
000000
000000
06FE00
3FEFD0
B802E0
5401E0
0006D0
03FF40
02BF80
0002E0
0001F0
F401F0
BC02E0
3FAFC0
0AFE00
ENDCHAR
STARTCHAR uni04E0
ENCODING 1248
SWIDTH 582 0
DWIDTH 14 0
BBX 12 17 1 0
BITMAP
7FFFFC
7FFFFC
0001F0
0007D0
000F40
002E00
00B800
01FE80
00AFF4
0000BC
00003D
00003D
B8002D
BC003D
3E01FC
1FFFF4
02FE40
ENDCHAR
STARTCHAR uni04E1
ENCODING 1249
SWIDTH 582 0
DWIDTH 14 0
BBX 12 18 1 -5
BITMAP
7FFFFC
6AAAF8
0001F0
0007D0
001F40
003E00
00B800
01FE40
00AFE0
0001B8
00007C
00003D
00002D
B4003D
B8007C
3E01F8
1FFFE0
02FE40
ENDCHAR
STARTCHAR uni04E2
ENCODING 1250
SWIDTH 712 0
DWIDTH 17 0
BBX 13 21 2 0
BITMAP
06AAA400
07FFF800
00000000
00000000
F4000BC0
F4001FC0
F4003FC0
F400BFC0
F401FBC0
F402E7C0
F407C7C0
F40F47C0
F42E07C0
F47D07C0
F4F807C0
F6F007C0
FBD007C0
FF8007C0
FF0007C0
FD0007C0
F80007C0
ENDCHAR
STARTCHAR uni04E3
ENCODING 1251
SWIDTH 577 0
DWIDTH 14 0
BBX 11 17 1 0
BITMAP
0AAAA0
0FFFF0
000000
000000
7C007C
7C00FC
7C02FC
7C07FC
7C0F7C
7C2E3C
7C7C3C
7CB43C
7DE03C
7FD03C
7F803C
7F003C
7D003C
ENDCHAR
STARTCHAR uni04E4
ENCODING 1252
SWIDTH 712 0
DWIDTH 17 0
BBX 13 21 2 0
BITMAP
01405000
03D0F400
02C0B400
00000000
F4000BC0
F4001FC0
F4003FC0
F400BFC0
F401FBC0
F402E7C0
F407C7C0
F40F47C0
F42E07C0
F47D07C0
F4F807C0
F6F007C0
FBD007C0
FF8007C0
FF0007C0
FD0007C0
F80007C0
ENDCHAR
STARTCHAR uni04E5
ENCODING 1253
SWIDTH 577 0
DWIDTH 14 0
BBX 11 18 1 0
BITMAP
010040
0B82E0
0B42D0
000000
000000
7C007C
7C00FC
7C02FC
7C07FC
7C0F7C
7C2E3C
7C7C3C
7CB43C
7DE03C
7FD03C
7F803C
7F003C
7D003C
ENDCHAR
STARTCHAR uni04E6
ENCODING 1254
SWIDTH 687 0
DWIDTH 17 0
BBX 14 21 1 0
BITMAP
00501400
01F07C00
01E07800
00000000
006FE400
03FFFD00
0FD02F40
2F0007C0
3D0002E0
7C0001E0
780001F0
B80000F0
B80000F0
B80000F0
780001F0
7C0001E0
3D0002E0
2F0007C0
0F901F40
03FFFE00
006FE400
ENDCHAR
STARTCHAR uni04E7
ENCODING 1255
SWIDTH 570 0
DWIDTH 14 0
BBX 12 18 1 0
BITMAP
050140
0F43D0
0B42D0
000000
000000
01BE40
0FEFE0
2E01F8
7C007C
B8003D
F4002E
F4002E
F4002E
B8003D
7C007C
3E01F8
0FEFE0
02FE40
ENDCHAR
STARTCHAR uni04E8
ENCODING 1256
SWIDTH 680 0
DWIDTH 16 0
BBX 14 17 1 0
BITMAP
006FA000
07FFFD00
0F902F40
2E0007C0
7C0002D0
780001E0
B40001E0
BFFFFFF0
BEAAABF0
B80001F0
B80001E0
BC0002E0
7D0003D0
2E000BC0
0F902F40
07FFFD00
006FA000
ENDCHAR
STARTCHAR uni04E9
ENCODING 1257
SWIDTH 567 0
DWIDTH 14 0
BBX 12 13 1 0
BITMAP
01BE40
0FFFE0
2E01F8
78007C
B4002D
FFFFFE
FEAABE
F4002E
B8003D
7C007C
2E01F4
0FEFE0
02FE40
ENDCHAR
STARTCHAR uni04EA
ENCODING 1258
SWIDTH 680 0
DWIDTH 16 0
BBX 14 21 1 0
BITMAP
00501400
01F07D00
00F03C00
00000000
006FA000
07FFFD00
0F902F40
2E0007C0
7C0002D0
780001E0
B40001E0
BFFFFFF0
BEAAABF0
B80001F0
B80001E0
BC0002E0
7D0003D0
2E000BC0
0F902F40
07FFFD00
006FA000
ENDCHAR
STARTCHAR uni04EB
ENCODING 1259
SWIDTH 567 0
DWIDTH 14 0
BBX 12 18 1 0
BITMAP
050140
0F43D0
0F02C0
000000
000000
01BE40
0FFFE0
2E01F8
78007C
B4002D
FFFFFE
FEAABE
F4002E
B8003D
7C007C
2E01F4
0FEFE0
02FE40
ENDCHAR
STARTCHAR uni04EC
ENCODING 1260
SWIDTH 673 0
DWIDTH 16 0
BBX 13 21 2 0
BITMAP
01405000
0B82F000
0781E000
00000000
02FE8000
1FFFF400
7E00BD00
B8001F00
F4000F40
A0000B80
00000780
00FFFFC0
00FFFFC0
000007C0
00000B80
A0000B80
F4000F40
B8002F00
7E00BD00
1FFFF400
02BF8000
ENDCHAR
STARTCHAR uni04ED
ENCODING 1261
SWIDTH 537 0
DWIDTH 13 0
BBX 11 18 1 0
BITMAP
050140
1F07D0
0F03C0
000000
000000
06F900
2FFF80
7D02E0
A400F0
0000B4
01FFF8
01AAF8
0000B8
6000F4
B401F0
7D07E0
2FEF80
06F900
ENDCHAR
STARTCHAR uni04EE
ENCODING 1262
SWIDTH 628 0
DWIDTH 15 0
BBX 13 21 1 0
BITMAP
06AAA400
07FFF800
00000000
00000000
F80007C0
7C000F80
3E001F40
1F002F00
0F403D00
0BC07C00
03D0F800
02E1F000
00F6E000
00BBD000
007FC000
002F4000
001F0000
002E0000
007C0000
0BF40000
0F900000
ENDCHAR
STARTCHAR uni04EF
ENCODING 1263
SWIDTH 473 0
DWIDTH 11 0
BBX 11 22 0 -5
BITMAP
0AAAA0
0FFFF0
000000
000000
B8007C
7C00B8
3D00F4
1E01F0
0F02E0
0B43D0
078780
03CB40
02DF00
01FE00
00FD00
00BC00
007800
00B400
00F000
02E000
3FC000
3E0000
ENDCHAR
STARTCHAR uni04F0
ENCODING 1264
SWIDTH 628 0
DWIDTH 15 0
BBX 13 21 1 0
BITMAP
01405000
03D0F400
03C0B400
00000000
F80007C0
7C000F80
3E001F40
1F002F00
0F403D00
0BC07C00
03D0F800
02E1F000
00F6E000
00BBD000
007FC000
002F4000
001F0000
002E0000
007C0000
0BF40000
0F900000
ENDCHAR
STARTCHAR uni04F1
ENCODING 1265
SWIDTH 473 0
DWIDTH 11 0
BBX 11 23 0 -5
BITMAP
010040
0B82E0
0B41D0
000000
000000
B8007C
7C00B8
3D00F4
1E01F0
0F02E0
0B43D0
078780
03CB40
02DF00
01FE00
00FD00
00BC00
007800
00B400
00F000
02E000
3FC000
3E0000
ENDCHAR
STARTCHAR uni04F2
ENCODING 1266
SWIDTH 628 0
DWIDTH 15 0
BBX 13 22 1 0
BITMAP
002E2E00
007CB800
00B5F000
00A2D000
00000000
F80007C0
7C000F80
3E001F40
1F002F00
0F403D00
0BC07C00
03D0F800
02E1F000
00F6E000
00BBD000
007FC000
002F4000
001F0000
002E0000
007C0000
0BF40000
0F900000
ENDCHAR
STARTCHAR uni04F3
ENCODING 1267
SWIDTH 473 0
DWIDTH 11 0
BBX 11 24 0 -5
BITMAP
007C7C
00B5F4
01E3D0
02C680
000000
000000
B8007C
7C00B8
3D00F4
1E01F0
0F02E0
0B43D0
078780
03CB40
02DF00
01FE00
00FD00
00BC00
007800
00B400
00F000
02E000
3FC000
3E0000
ENDCHAR
STARTCHAR uni04F4
ENCODING 1268
SWIDTH 684 0
DWIDTH 16 0
BBX 14 21 1 0
BITMAP
00401000
02E0B800
01E07800
00000000
7C0003D0
7C0003D0
7C0003D0
7C0003D0
7C0003D0
7C0003D0
3C0003D0
3D0003D0
2F401BD0
0BFFFFD0
01AFA7D0
000003D0
000003D0
000003D0
000003D0
000003D0
000003D0
ENDCHAR
STARTCHAR uni04F5
ENCODING 1269
SWIDTH 543 0
DWIDTH 13 0
BBX 11 18 1 0
BITMAP
050140
2F0BC0
1E0780
000000
000000
B400F4
B400F4
B400F4
B400F4
B400F4
B800F4
7D01F4
1FFFF4
06AAF4
0000F4
0000F4
0000F4
0000F4
ENDCHAR
STARTCHAR uni04F6
ENCODING 1270
SWIDTH 556 0
DWIDTH 13 0
BBX 11 21 2 -4
BITMAP
FFFFF8
FFFFF4
F40000
F40000
F40000
F40000
F40000
F40000
F40000
F40000
F40000
F40000
F40000
F40000
F40000
FF4000
FF4000
0F4000
0F4000
0F4000
0F4000
ENDCHAR
STARTCHAR uni04F7
ENCODING 1271
SWIDTH 419 0
DWIDTH 10 0
BBX 9 17 1 -4
BITMAP
7FFF80
7EAA80
7C0000
7C0000
7C0000
7C0000
7C0000
7C0000
7C0000
7C0000
7C0000
7FC000
7FC000
07C000
07C000
07C000
07C000
ENDCHAR
STARTCHAR uni04F8
ENCODING 1272
SWIDTH 864 0
DWIDTH 21 0
BBX 17 21 2 0
BITMAP
0014050000
007C1F4000
003C0F0000
0000000000
F400000B80
F400000B80
F400000B80
F400000B80
F400000B80
F400000B80
F400000B80
FFFF900B80
FFFFF80B80
F4007E0B80
F4001F0B80
F4000F4B80
F4000F4B80
F4001F0B80
F4007E0B80
FFFFF80B80
FFFF900B80
ENDCHAR
STARTCHAR uni04F9
ENCODING 1273
SWIDTH 776 0
DWIDTH 19 0
BBX 15 18 2 0
BITMAP
00501400
01F07C00
01E07800
00000000
00000000
F00000B8
F00000B8
F00000B8
F00000B8
FFFE00B8
FAAFC0B8
F003E0B8
F001F0B8
F001F0B8
F001F0B8
F003E0B8
FAAF80B8
FFFE00B8
ENDCHAR
STARTCHAR uni04FA
ENCODING 1274
SWIDTH 589 0
DWIDTH 14 0
BBX 14 22 0 -5
BITMAP
03FFFFD0
03FFFFD0
03C00000
03C00000
03C00000
03C00000
03C00000
7FFF0000
6FFA0000
03C00000
03C00000
03C00000
03C00000
03C00000
03C00000
03FC0000
03FC0000
003C0000
007C0000
00B80000
0FF40000
0F900000
ENDCHAR
STARTCHAR uni04FB
ENCODING 1275
SWIDTH 458 0
DWIDTH 11 0
BBX 11 18 0 -5
BITMAP
07FFF8
07EAA8
07C000
07C000
07C000
7FFF00
6FEA00
07C000
07C000
07C000
07C000
07FC00
07FC00
007C00
007800
00B800
0FF000
0F9000
ENDCHAR
STARTCHAR uni04FC
ENCODING 1276
SWIDTH 647 0
DWIDTH 16 0
BBX 14 22 1 -5
BITMAP
F8000BC0
7D001F40
2F003E00
0F80BC00
07D1F400
02F2E000
00FFC000
007F4000
003F0000
007F8000
00FBD000
02E2F000
07D0F800
0F807D00
2F002E00
7D001FF0
F8000BF0
000000F0
000000F0
000001F0
00002FD0
00002F40
ENDCHAR
STARTCHAR uni04FD
ENCODING 1277
SWIDTH 531 0
DWIDTH 13 0
BBX 13 18 0 -5
BITMAP
3D00BC00
1F01F400
0B82E000
03D7C000
01EF4000
00BE0000
007D0000
00FE0000
02EB4000
07C7C000
0F82E000
2F00FF40
7D007F40
00000B40
00000F40
00001F00
0002FE00
0002F800
ENDCHAR
STARTCHAR uni04FE
ENCODING 1278
SWIDTH 626 0
DWIDTH 15 0
BBX 13 17 1 0
BITMAP
F8000BC0
7D001F40
2F003E00
0B80BC00
07D1F400
01F2E000
00BFC000
03FFF400
02FFE400
00BF8000
01FBD000
03E2F000
0BD0F800
1F807D00
2F002F00
7D001F80
F8000BC0
ENDCHAR
STARTCHAR uni04FF
ENCODING 1279
SWIDTH 495 0
DWIDTH 12 0
BBX 11 13 0 0
BITMAP
3D00BC
1F01F4
0B82D0
03D780
01EF00
0BFFE0
0AFFA0
01FF00
02EB80
07C7D0
0F82F0
2F00F4
7D007C
ENDCHAR
STARTCHAR uni0500
ENCODING 1280
SWIDTH 620 0
DWIDTH 15 0
BBX 13 17 1 0
BITMAP
00000F40
00000F40
00000F40
00000F40
00000F40
00000F40
00000F40
06FFFF40
2FFFFF40
7E000F40
B8000F40
F4000F40
F4000F40
B8000F40
7E000F40
2FFFFF40
06FFFF40
ENDCHAR
STARTCHAR uni0501
ENCODING 1281
SWIDTH 563 0
DWIDTH 14 0
BBX 11 18 1 0
BITMAP
000078
000078
000078
000078
000078
06F978
1FFFF8
3E01F8
7C0078
B80078
F40078
F40078
B40078
B80078
7C00B8
3E01F8
1FFFB8
06F978
ENDCHAR
STARTCHAR uni0502
ENCODING 1282
SWIDTH 822 0
DWIDTH 20 0
BBX 18 17 1 0
BITMAP
00000F4000
00000F4000
00000F4000
00000F4000
00000F4000
00000F4000
00000F4000
06FFFF4000
2FFFFF4290
7E000F41E0
B8000F41F0
F4000F40F0
F4000F40F0
B8000F41F0
7E000F47E0
1FFFFFFF80
06FFFFFE00
ENDCHAR
STARTCHAR uni0503
ENCODING 1283
SWIDTH 861 0
DWIDTH 21 0
BBX 19 18 1 0
BITMAP
0000B80000
0000B80000
0000B80000
0000B80000
0000B80000
06F9B80000
1FFFF80000
3E01F801E0
7C00B801F0
B800B800F0
B400B800F4
B400B800F4
B400B800F4
B8007801F0
7C00B802E0
3E01FD07D0
1FFF6FBF40
06F90BF900
ENDCHAR
STARTCHAR uni0504
ENCODING 1284
SWIDTH 791 0
DWIDTH 19 0
BBX 18 17 0 0
BITMAP
7FFE400000
7FFFD00000
0002F00000
0000F40000
0000B80000
0000B80000
0000F40780
0006E007C0
03FF8003D0
03FF9003D0
0002F002D0
0000F403D0
0000B403D0
0000B807C0
0000BC1F40
00003FFE00
00001BE400
ENDCHAR
STARTCHAR uni0505
ENCODING 1285
SWIDTH 645 0
DWIDTH 16 0
BBX 15 13 0 0
BITMAP
7FE40000
6AFE0000
001F4000
000B8000
000B80F0
001F40B4
1FFD00B8
1ABE0078
000B80B8
000780B4
000781F0
0007EFD0
0001FE40
ENDCHAR
STARTCHAR uni0506
ENCODING 1286
SWIDTH 535 0
DWIDTH 13 0
BBX 11 20 1 -3
BITMAP
FFE400
AAFE00
001F40
000B80
0007C0
0007C0
000B80
002F00
3FF800
2AFE00
001F40
000B80
0007C0
0007C0
0007D4
0007FC
0003F8
000078
0000F0
000090
ENDCHAR
STARTCHAR uni0507
ENCODING 1287
SWIDTH 503 0
DWIDTH 12 0
BBX 11 17 1 -4
BITMAP
BFE400
6AFE00
001F40
000B80
000B80
001F40
2FFD00
2ABE00
000F40
000780
000790
0007F8
0003F8
0000B4
0000F0
0001E0
000180
ENDCHAR
STARTCHAR uni0508
ENCODING 1288
SWIDTH 969 0
DWIDTH 23 0
BBX 23 17 0 0
BITMAP
007FFFF80000
007FFFF80000
007800B80000
00B800B80000
00B800B80000
00B800B80000
00B800B802E0
00B800B801F0
00B400B800F0
00B400B800F4
00F400B800F4
00F400B800F4
01F000B801F0
02E0007C02E0
07D0007D07D0
7F80002FFF40
7E00000BF900
ENDCHAR
STARTCHAR uni0509
ENCODING 1289
SWIDTH 807 0
DWIDTH 19 0
BBX 19 13 0 0
BITMAP
01FFFE0000
01FABE0000
01E01E0050
01E01E00F0
02E01E00B4
02E01E00B8
02E01E00B8
02D01E00B8
02D01E00B4
03C01F00F4
0BC00F42E0
7F400BEFD0
7D0002FE00
ENDCHAR
STARTCHAR uni050A
ENCODING 1290
SWIDTH 997 0
DWIDTH 24 0
BBX 21 17 2 0
BITMAP
F4000B800000
F4000B800000
F4000B800000
F4000B800000
F4000B800000
F4000B800000
F4000B802E00
FFFFFF801F00
FFFFFF800F00
F4000B800F40
F4000B800F40
F4000B800F40
F4000B801F00
F40007C02E00
F40007D07D00
F40002FFF400
F40000BF9000
ENDCHAR
STARTCHAR uni050B
ENCODING 1291
SWIDTH 828 0
DWIDTH 20 0
BBX 18 13 1 0
BITMAP
7C007C0000
7C007C0000
7C007C0140
7C007C02D0
7C007C02E0
7FFFFC01E0
7EAABC01F0
7C007C01F0
7C007C01E0
7C003C02D0
7C002E07C0
7C001FFF40
7C0006F900
ENDCHAR
STARTCHAR uni050C
ENCODING 1292
SWIDTH 620 0
DWIDTH 15 0
BBX 13 17 1 0
BITMAP
006FE400
07FFFC00
0F901400
2E000000
3D000000
7C000000
B8000000
B8000000
B8000F40
B8000B80
B8000780
7C000780
7D000B80
2E000B80
0F902F40
07FFFD00
006FE000
ENDCHAR
STARTCHAR uni050D
ENCODING 1293
SWIDTH 514 0
DWIDTH 12 0
BBX 11 13 1 0
BITMAP
01FE40
0FEF80
2E0040
7C0000
B80000
B40000
B40050
B400F0
B800F4
7C00F4
2E01F0
0BEFE0
01BE40
ENDCHAR
STARTCHAR uni050E
ENCODING 1294
SWIDTH 709 0
DWIDTH 17 0
BBX 16 17 0 0
BITMAP
BFFFFFF0
BFFFFFE0
000F4000
000F4000
000F4000
000F4000
000F403C
000F402D
000F402E
000F402E
000F401E
000F402E
000F402E
000F403D
000B80B8
0007FFF0
0001BE40
ENDCHAR
STARTCHAR uni050F
ENCODING 1295
SWIDTH 640 0
DWIDTH 15 0
BBX 14 13 0 0
BITMAP
7FFFFD00
2ABEA900
003D0000
003D0000
003D02E0
003D01E0
003D00F0
003D00F0
003D00F0
003D01F0
002E07D0
001FFF80
0006FD00
ENDCHAR
STARTCHAR uni0510
ENCODING 1296
SWIDTH 673 0
DWIDTH 16 0
BBX 14 17 1 0
BITMAP
01AFE400
0BFFFF40
1F801BC0
3E0003E0
3D0001A0
2E000000
1F900000
02FFE000
07FFD000
1F400000
3D000000
7C000000
7C0001F0
3E0002E0
1F801BD0
0BFFFF40
01AFE800
ENDCHAR
STARTCHAR uni0511
ENCODING 1297
SWIDTH 539 0
DWIDTH 13 0
BBX 11 13 1 0
BITMAP
06FE40
3FEFE0
7D01F4
B80054
7D0000
1FFE00
2FAA00
7C0000
B40000
B400B8
BD01F4
2FEFE0
06FE40
ENDCHAR
STARTCHAR uni0512
ENCODING 1298
SWIDTH 750 0
DWIDTH 18 0
BBX 17 22 0 -5
BITMAP
00BFFFFC00
00BFFFFC00
00B4007C00
00B4007C00
00B4007C00
00F4007C00
00F4007C00
00F4007C00
00F4007C00
00F0007C00
00F0007C00
01F0007C00
01E0007C00
02E0007C00
07C0007C00
7F80007FC0
7900007FC0
00000003C0
00000007C0
0000000B80
000000FF40
000000F900
ENDCHAR
STARTCHAR uni0513
ENCODING 1299
SWIDTH 618 0
DWIDTH 15 0
BBX 15 18 0 -5
BITMAP
02FFFF00
02FAAF00
02E00F00
02D00F00
02D00F00
02D00F00
02D00F00
03D00F00
03C00F00
07C00F00
0B800F00
7F400FF4
79000FF4
000000F4
000000F0
000001F0
00002FD0
00002F40
ENDCHAR
STARTCHAR uni1E00
ENCODING 7680
SWIDTH 652 0
DWIDTH 16 0
BBX 15 22 0 -5
BITMAP
0007C000
000BD000
000FE000
002EF000
003DB800
007C7C00
00B83D00
00F02E00
01E00F00
02D00B40
07C007C0
0BFFFFD0
0FFFFFE0
1F0001F0
2E0000F4
3D0000B8
7C00003C
00000000
0007D000
000D7000
000D7000
0007D000
ENDCHAR
STARTCHAR uni1E01
ENCODING 7681
SWIDTH 543 0
DWIDTH 13 0
BBX 11 18 1 -5
BITMAP
06FE40
1FEFD0
7D02F0
6400F4
0000F4
06FFF4
2FAAF4
7D00F4
B800F4
B800F4
7D07F4
3FFFF4
0BF8B8
000000
01F400
031800
031800
01F400
ENDCHAR
STARTCHAR uni1E3E
ENCODING 7742
SWIDTH 873 0
DWIDTH 21 0
BBX 17 21 2 0
BITMAP
00003E0000
0000B80000
0001E00000
0000000000
FC00000FC0
FD00002FC0
FF00003FC0
FF40007FC0
FB8000BBC0
F7C000F7C0
F2E002E7C0
F1F003D7C0
F4F40787C0
F4780B47C0
F43C1F07C0
F42E2E07C0
F41F3C07C0
F40BB807C0
F407F407C0
F403F007C0
F402E007C0
ENDCHAR
STARTCHAR uni1E3F
ENCODING 7743
SWIDTH 876 0
DWIDTH 21 0
BBX 19 18 1 0
BITMAP
00000B8000
00002E0000
0000680000
0000000000
0000000000
78BF81BF40
7FFFE7FFE0
7E01FE02F0
7C00BC00F4
7800B800B4
7800B800B4
7800B800B4
7800B800B4
7800B800B4
7800B800B4
7800B800B4
7800B800B4
7800B800B4
ENDCHAR
STARTCHAR Wgrave
ENCODING 7808
SWIDTH 887 0
DWIDTH 21 0
BBX 20 21 1 0
BITMAP
0007D00000
0001F40000
0000780000
0000000000
F0007C002E
F400BC002D
B800FD003D
7800FE007C
7C01EF00B8
3D02DB40B4
2D03C780F4
1E078381F0
1F0B42C1E0
0F0F02D2D0
0B4E01E3D0
079E00F3C0
07AD00B780
03FC007F40
02F8003F40
02F4003F00
01F0002E00
ENDCHAR
STARTCHAR wgrave
ENCODING 7809
SWIDTH 751 0
DWIDTH 18 0
BBX 18 18 0 0
BITMAP
001F400000
0007D00000
0001E00000
0000000000
0000000000
7800F002D0
3C01F403C0
2D02F80780
2E03FC0B40
1E07AD0B40
0F0B5E0F00
0B4F0E1E00
079E0B2D00
03DD076C00
02FC03B800
02F802F400
01F401F400
00F000F000
ENDCHAR
STARTCHAR Wacute
ENCODING 7810
SWIDTH 887 0
DWIDTH 21 0
BBX 20 21 1 0
BITMAP
00000BC000
00001F0000
0000280000
0000000000
F0007C002E
F400BC002D
B800FD003D
7800FE007C
7C01EF00B8
3D02DB40B4
2D03C780F4
1E078381F0
1F0B42C1E0
0F0F02D2D0
0B4E01E3D0
079E00F3C0
07AD00B780
03FC007F40
02F8003F40
02F4003F00
01F0002E00
ENDCHAR
STARTCHAR wacute
ENCODING 7811
SWIDTH 751 0
DWIDTH 18 0
BBX 18 18 0 0
BITMAP
00001F4000
00007D0000
0000B00000
0000000000
0000000000
7800F002D0
3C01F403C0
2D02F80780
2E03FC0B40
1E07AD0B40
0F0B5E0F00
0B4F0E1E00
079E0B2D00
03DD076C00
02FC03B800
02F802F400
01F401F400
00F000F000
ENDCHAR
STARTCHAR Wdieresis
ENCODING 7812
SWIDTH 887 0
DWIDTH 21 0
BBX 20 21 1 0
BITMAP
0005004000
000F82E000
000B42D000
0000000000
F0007C002E
F400BC002D
B800FD003D
7800FE007C
7C01EF00B8
3D02DB40B4
2D03C780F4
1E078381F0
1F0B42C1E0
0F0F02D2D0
0B4E01E3D0
079E00F3C0
07AD00B780
03FC007F40
02F8003F40
02F4003F00
01F0002E00
ENDCHAR
STARTCHAR wdieresis
ENCODING 7813
SWIDTH 751 0
DWIDTH 18 0
BBX 18 18 0 0
BITMAP
0004010000
002E0B8000
002D074000
0000000000
0000000000
7800F002D0
3C01F403C0
2D02F80780
2E03FC0B40
1E07AD0B40
0F0B5E0F00
0B4F0E1E00
079E0B2D00
03DD076C00
02FC03B800
02F802F400
01F401F400
00F000F000
ENDCHAR
STARTCHAR uni1EA0
ENCODING 7840
SWIDTH 652 0
DWIDTH 16 0
BBX 15 22 0 -5
BITMAP
0007C000
000BD000
000FE000
002EF000
003DB800
007C7C00
00B83D00
00F02E00
01E00F00
02D00B40
07C007C0
0BFFFFD0
0FFFFFE0
1F0001F0
2E0000F4
3D0000B8
7C00003C
00000000
00000000
0003C000
0007D000
00014000
ENDCHAR
STARTCHAR uni1EA1
ENCODING 7841
SWIDTH 543 0
DWIDTH 13 0
BBX 11 18 1 -5
BITMAP
06FE40
1FEFD0
7D02F0
6400F4
0000F4
06FFF4
2FAAF4
7D00F4
B800F4
B800F4
7D07F4
3FFFF4
0BF8B8
000000
000000
01E000
01F000
005000
ENDCHAR
STARTCHAR uni1EA2
ENCODING 7842
SWIDTH 652 0
DWIDTH 16 0
BBX 15 23 0 0
BITMAP
00039000
0001B400
00007400
0002F000
00038000
00000000
0007C000
000BD000
000FE000
002EF000
003DB800
007C7C00
00B83D00
00F02E00
01E00F00
02D00B40
07C007C0
0BFFFFD0
0FFFFFE0
1F0001F0
2E0000F4
3D0000B8
7C00003C
ENDCHAR
STARTCHAR uni1EA3
ENCODING 7843
SWIDTH 543 0
DWIDTH 13 0
BBX 11 20 1 0
BITMAP
003900
001B40
000740
003E00
003800
000000
000000
06FE40
1FEFD0
7D02F0
6400F4
0000F4
06FFF4
2FAAF4
7D00F4
B800F4
B800F4
7D07F4
3FFFF4
0BF8B8
ENDCHAR
STARTCHAR uni1EA4
ENCODING 7844
SWIDTH 652 0
DWIDTH 16 0
BBX 15 23 0 0
BITMAP
0000007C
000000F4
000BD1D0
007EB800
00B42E00
00000000
0007C000
000BD000
000FE000
002EF000
003DB800
007C7C00
00B83D00
00F02E00
01E00F00
02D00B40
07C007C0
0BFFFFD0
0FFFFFE0
1F0001F0
2E0000F4
3D0000B8
7C00003C
ENDCHAR
STARTCHAR uni1EA5
ENCODING 7845
SWIDTH 543 0
DWIDTH 13 0
BBX 13 19 1 0
BITMAP
00000780
00000F00
00BD1D00
07EB8000
0B42E000
00000000
06FE4000
1FEFD000
7D02F000
6400F400
0000F400
06FFF400
2FAAF400
7D00F400
B800F400
B800F400
7D07F400
3FFFF400
0BF8B800
ENDCHAR
STARTCHAR uni1EA6
ENCODING 7846
SWIDTH 652 0
DWIDTH 16 0
BBX 15 23 0 0
BITMAP
7C000000
1E000000
0A0BD000
007EB800
00B42E00
00000000
0007C000
000BD000
000FE000
002EF000
003DB800
007C7C00
00B83D00
00F02E00
01E00F00
02D00B40
07C007C0
0BFFFFD0
0FFFFFE0
1F0001F0
2E0000F4
3D0000B8
7C00003C
ENDCHAR
STARTCHAR uni1EA7
ENCODING 7847
SWIDTH 543 0
DWIDTH 13 0
BBX 13 19 -1 0
BITMAP
7C000000
1E000000
0A0BD000
007DB800
00B42E00
00000000
006FE400
01FEFD00
07D02F00
06400F40
00000F40
006FFF40
02FAAF40
07D00F40
0B800F40
0B800F40
07D07F40
03FFFF40
00BF8B80
ENDCHAR
STARTCHAR uni1EA8
ENCODING 7848
SWIDTH 652 0
DWIDTH 16 0
BBX 15 24 0 0
BITMAP
00000390
000000B0
000001B0
000BE280
007D7800
00B41E00
00000000
0007C000
000BD000
000FE000
002EF000
003DB800
007C7C00
00B83D00
00F02E00
01E00F00
02D00B40
07C007C0
0BFFFFD0
0FFFFFE0
1F0001F0
2E0000F4
3D0000B8
7C00003C
ENDCHAR
STARTCHAR uni1EA9
ENCODING 7849
SWIDTH 543 0
DWIDTH 13 0
BBX 12 20 1 0
BITMAP
000039
00000B
00001E
00BE38
07DB80
0B01E0
000000
06FE40
1FEFD0
7D02F0
6400F4
0000F4
06FFF4
2FAAF4
7D00F4
B800F4
B800F4
7D07F4
3FFFF4
0BF8B8
ENDCHAR
STARTCHAR uni1EAA
ENCODING 7850
SWIDTH 652 0
DWIDTH 16 0
BBX 15 25 0 0
BITMAP
00040000
002F5800
0021F400
00000000
000BD000
007DB800
00B41E00
00000000
0007C000
000BD000
000FE000
002EF000
003DB800
007C7C00
00B83D00
00F02E00
01E00F00
02D00B40
07C007C0
0BFFFFD0
0FFFFFE0
1F0001F0
2E0000F4
3D0000B8
7C00003C
ENDCHAR
STARTCHAR uni1EAB
ENCODING 7851
SWIDTH 543 0
DWIDTH 13 0
BBX 11 21 1 0
BITMAP
004000
02F680
061F40
000000
00BD00
07DB80
0B42E0
000000
06FE40
1FEFD0
7D02F0
6400F4
0000F4
06FFF4
2FAAF4
7D00F4
B800F4
B800F4
7D07F4
3FFFF4
0BF8B8
ENDCHAR
STARTCHAR uni1EAC
ENCODING 7852
SWIDTH 652 0
DWIDTH 16 0
BBX 15 26 0 -5
BITMAP
0007D000
002EB400
00682800
00000000
0007C000
000BD000
000FE000
002EF000
003DB800
007C7C00
00B83D00
00F02E00
01E00F00
02D00B40
07C007C0
0BFFFFD0
0FFFFFE0
1F0001F0
2E0000F4
3D0000B8
7C00003C
00000000
00000000
0003C000
0007D000
00014000
ENDCHAR
STARTCHAR uni1EAD
ENCODING 7853
SWIDTH 543 0
DWIDTH 13 0
BBX 11 23 1 -5
BITMAP
007D00
02EB40
078280
000000
000000
06FE40
1FEFD0
7D02F0
6400F4
0000F4
06FFF4
2FAAF4
7D00F4
B800F4
B800F4
7D07F4
3FFFF4
0BF8B8
000000
000000
01E000
01F000
005000
ENDCHAR
STARTCHAR uni1EAE
ENCODING 7854
SWIDTH 652 0
DWIDTH 16 0
BBX 15 22 0 0
BITMAP
0000E000
00018000
00B46D00
002FE400
00000000
0007C000
000BD000
000FE000
002EF000
003DB800
007C7C00
00B83D00
00F02E00
01E00F00
02D00B40
07C007C0
0BFFFFD0
0FFFFFE0
1F0001F0
2E0000F4
3D0000B8
7C00003C
ENDCHAR
STARTCHAR uni1EAF
ENCODING 7855
SWIDTH 543 0
DWIDTH 13 0
BBX 11 18 1 0
BITMAP
000E00
002800
0B46C0
02FE40
000000
06FE40
1FEFD0
7D02F0
6400F4
0000F4
06FFF4
2FAAF4
7D00F4
B800F4
B800F4
7D07F4
3FFFF4
0BF8B8
ENDCHAR
STARTCHAR uni1EB0
ENCODING 7856
SWIDTH 652 0
DWIDTH 16 0
BBX 15 22 0 0
BITMAP
000E0000
00024000
00B46D00
002FE400
00000000
0007C000
000BD000
000FE000
002EF000
003DB800
007C7C00
00B83D00
00F02E00
01E00F00
02D00B40
07C007C0
0BFFFFD0
0FFFFFE0
1F0001F0
2E0000F4
3D0000B8
7C00003C
ENDCHAR
STARTCHAR uni1EB1
ENCODING 7857
SWIDTH 543 0
DWIDTH 13 0
BBX 11 18 1 0
BITMAP
00E000
007400
0B46C0
02FE40
000000
06FE40
1FEFD0
7D02F0
6400F4
0000F4
06FFF4
2FAAF4
7D00F4
B800F4
B800F4
7D07F4
3FFFF4
0BF8B8
ENDCHAR
STARTCHAR uni1EB2
ENCODING 7858
SWIDTH 652 0
DWIDTH 16 0
BBX 15 24 0 0
BITMAP
00039000
00007400
0002F000
00038000
00B46C00
002FE400
00000000
0007C000
000BD000
000FE000
002EF000
003DB800
007C7C00
00B83D00
00F02E00
01E00F00
02D00B40
07C007C0
0BFFFFD0
0FFFFFE0
1F0001F0
2E0000F4
3D0000B8
7C00003C
ENDCHAR
STARTCHAR uni1EB3
ENCODING 7859
SWIDTH 543 0
DWIDTH 13 0
BBX 11 20 1 0
BITMAP
007900
000B00
002F00
003800
0B47C0
02FE40
000000
06FE40
1FEFD0
7D02F0
6400F4
0000F4
06FFF4
2FAAF4
7D00F4
B800F4
B800F4
7D07F4
3FFFF4
0BF8B8
ENDCHAR
STARTCHAR uni1EB4
ENCODING 7860
SWIDTH 652 0
DWIDTH 16 0
BBX 15 25 0 0
BITMAP
00040400
002F9C00
0061B400
00000000
00B42C00
00797800
001BE000
00000000
0007C000
000BD000
000FE000
002EF000
003DB800
007C7C00
00B83D00
00F02E00
01E00F00
02D00B40
07C007C0
0BFFFFD0
0FFFFFE0
1F0001F0
2E0000F4
3D0000B8
7C00003C
ENDCHAR
STARTCHAR uni1EB5
ENCODING 7861
SWIDTH 543 0
DWIDTH 13 0
BBX 11 21 1 0
BITMAP
004040
03FAC0
061F40
000000
0B02C0
078780
01BE00
000000
06FE40
1FEFD0
7D02F0
6400F4
0000F4
06FFF4
2FAAF4
7D00F4
B800F4
B800F4
7D07F4
3FFFF4
0BF8B8
ENDCHAR
STARTCHAR uni1EB6
ENCODING 7862
SWIDTH 652 0
DWIDTH 16 0
BBX 15 26 0 -5
BITMAP
00B41D00
007DBC00
001BE000
00000000
0007C000
000BD000
000FE000
002EF000
003DB800
007C7C00
00B83D00
00F02E00
01E00F00
02D00B40
07C007C0
0BFFFFD0
0FFFFFE0
1F0001F0
2E0000F4
3D0000B8
7C00003C
00000000
00000000
0003C000
0007D000
00014000
ENDCHAR
STARTCHAR uni1EB7
ENCODING 7863
SWIDTH 543 0
DWIDTH 13 0
BBX 11 22 1 -5
BITMAP
0B42D0
079BC0
01BE00
000000
06FE40
1FEFD0
7D02F0
6400F4
0000F4
06FFF4
2FAAF4
7D00F4
B800F4
B800F4
7D07F4
3FFFF4
0BF8B8
000000
000000
01E000
01F000
005000
ENDCHAR
STARTCHAR uni1EB8
ENCODING 7864
SWIDTH 568 0
DWIDTH 14 0
BBX 11 22 2 -5
BITMAP
FFFFF8
FFFFF8
F40000
F40000
F40000
F40000
F40000
FFFFE0
FFFFE0
F40000
F40000
F40000
F40000
F40000
F40000
FFFFF8
FFFFF8
000000
000000
00B400
00F400
005000
ENDCHAR
STARTCHAR uni1EB9
ENCODING 7865
SWIDTH 529 0
DWIDTH 13 0
BBX 11 18 1 -5
BITMAP
01BE40
0BEFD0
2E01F0
7800B8
B40078
BFFFF8
FEAAA8
F40000
B80000
7C0010
3E00B4
1FEBE0
02FE40
000000
000000
007800
00B800
001000
ENDCHAR
STARTCHAR uni1EBA
ENCODING 7866
SWIDTH 568 0
DWIDTH 14 0
BBX 11 23 2 0
BITMAP
00B800
005E00
000F00
007D00
007000
000000
FFFFF8
FFFFF8
F40000
F40000
F40000
F40000
F40000
FFFFE0
FFFFE0
F40000
F40000
F40000
F40000
F40000
F40000
FFFFF8
FFFFF8
ENDCHAR
STARTCHAR uni1EBB
ENCODING 7867
SWIDTH 529 0
DWIDTH 13 0
BBX 11 20 1 0
BITMAP
007900
001B00
000B40
003E00
003400
000000
000000
01BE40
0BEFD0
2E01F0
7800B8
B40078
BFFFF8
FEAAA8
F40000
B80000
7C0010
3E00B4
1FEBE0
02FE40
ENDCHAR
STARTCHAR uni1EBC
ENCODING 7868
SWIDTH 568 0
DWIDTH 14 0
BBX 11 21 2 0
BITMAP
064090
1FFBC0
286F40
000000
FFFFF8
FFFFF8
F40000
F40000
F40000
F40000
F40000
FFFFE0
FFFFE0
F40000
F40000
F40000
F40000
F40000
F40000
FFFFF8
FFFFF8
ENDCHAR
STARTCHAR uni1EBD
ENCODING 7869
SWIDTH 529 0
DWIDTH 13 0
BBX 11 18 1 0
BITMAP
0690A0
0FFAE0
1D1F80
000000
000000
01BE40
0BEFD0
2E01F0
7800B8
B40078
BFFFF8
FEAAA8
F40000
B80000
7C0010
3E00B4
1FEBE0
02FE40
ENDCHAR
STARTCHAR uni1EBE
ENCODING 7870
SWIDTH 568 0
DWIDTH 14 0
BBX 13 23 2 0
BITMAP
00000F40
00002E00
01F82800
0B9F4000
1E078000
00000000
FFFFF800
FFFFF800
F4000000
F4000000
F4000000
F4000000
F4000000
FFFFE000
FFFFE000
F4000000
F4000000
F4000000
F4000000
F4000000
F4000000
FFFFF800
FFFFF800
ENDCHAR
STARTCHAR uni1EBF
ENCODING 7871
SWIDTH 529 0
DWIDTH 13 0
BBX 13 19 1 0
BITMAP
00000B80
00001F00
00BD2C00
07DF8000
1B429000
00000000
01BE4000
0BEFD000
2E01F000
7800B800
B4007800
BFFFF800
FEAAA800
F4000000
B8000000
7C001000
3E00B400
1FEBE000
02FE4000
ENDCHAR
STARTCHAR uni1EC0
ENCODING 7872
SWIDTH 568 0
DWIDTH 14 0
BBX 13 23 0 0
BITMAP
B4000000
3D000000
1D1F8000
00B9F400
01E07800
00000000
0FFFFF80
0FFFFF80
0F400000
0F400000
0F400000
0F400000
0F400000
0FFFFE00
0FFFFE00
0F400000
0F400000
0F400000
0F400000
0F400000
0F400000
0FFFFF80
0FFFFF80
ENDCHAR
STARTCHAR uni1EC1
ENCODING 7873
SWIDTH 529 0
DWIDTH 13 0
BBX 13 19 -1 0
BITMAP
78000000
2E000000
0A0BD000
007DF800
01B42900
00000000
001BE400
00BEFD00
02E01F00
07800B80
0B400780
0BFFFF80
0FEAAA80
0F400000
0B800000
07C00100
03E00B40
01FEBE00
002FE400
ENDCHAR
STARTCHAR uni1EC2
ENCODING 7874
SWIDTH 568 0
DWIDTH 14 0
BBX 12 24 2 0
BITMAP
0000B8
00001D
00006D
01F870
0B9F40
2D0380
000000
FFFFF8
FFFFF8
F40000
F40000
F40000
F40000
F40000
FFFFE0
FFFFE0
F40000
F40000
F40000
F40000
F40000
F40000
FFFFF8
FFFFF8
ENDCHAR
STARTCHAR uni1EC3
ENCODING 7875
SWIDTH 529 0
DWIDTH 13 0
BBX 12 20 1 0
BITMAP
000078
00000A
00002E
01FD34
078B80
1A02D0
000000
01BE40
0BEFD0
2E01F0
7800B8
B40078
BFFFF8
FEAAA8
F40000
B80000
7C0010
3E00B4
1FEBE0
02FE40
ENDCHAR
STARTCHAR uni1EC4
ENCODING 7876
SWIDTH 568 0
DWIDTH 14 0
BBX 11 24 2 0
BITMAP
07E740
092E00
000000
01F800
0B9F40
1E0780
000000
FFFFF8
FFFFF8
F40000
F40000
F40000
F40000
F40000
FFFFE0
FFFFE0
F40000
F40000
F40000
F40000
F40000
F40000
FFFFF8
FFFFF8
ENDCHAR
STARTCHAR uni1EC5
ENCODING 7877
SWIDTH 529 0
DWIDTH 13 0
BBX 11 21 1 0
BITMAP
004000
03E680
062E00
000000
00BD00
07DB40
1A02D0
000000
01BE40
0BEFD0
2E01F0
7800B8
B40078
BFFFF8
FEAAA8
F40000
B80000
7C0010
3E00B4
1FEBE0
02FE40
ENDCHAR
STARTCHAR uni1EC6
ENCODING 7878
SWIDTH 568 0
DWIDTH 14 0
BBX 11 26 2 -5
BITMAP
00F800
07EE00
0B0740
000000
FFFFF8
FFFFF8
F40000
F40000
F40000
F40000
F40000
FFFFE0
FFFFE0
F40000
F40000
F40000
F40000
F40000
F40000
FFFFF8
FFFFF8
000000
000000
00B400
00F400
005000
ENDCHAR
STARTCHAR uni1EC7
ENCODING 7879
SWIDTH 529 0
DWIDTH 13 0
BBX 11 23 1 -5
BITMAP
00B800
02DF40
074780
000000
000000
01BE40
0BEFD0
2E01F0
7800B8
B40078
BFFFF8
FEAAA8
F40000
B80000
7C0010
3E00B4
1FEBE0
02FE40
000000
000000
007800
00B800
001000
ENDCHAR
STARTCHAR uni1EC8
ENCODING 7880
SWIDTH 271 0
DWIDTH 7 0
BBX 4 23 2 0
BITMAP
B8
5E
0F
7D
70
00
F4
F4
F4
F4
F4
F4
F4
F4
F4
F4
F4
F4
F4
F4
F4
F4
F4
ENDCHAR
STARTCHAR uni1EC9
ENCODING 7881
SWIDTH 247 0
DWIDTH 6 0
BBX 5 20 1 0
BITMAP
3900
1B40
0780
2F00
2800
0000
0000
7C00
7C00
7C00
7C00
7C00
7C00
7C00
7C00
7C00
7C00
7C00
7C00
7C00
ENDCHAR
STARTCHAR uni1ECA
ENCODING 7882
SWIDTH 271 0
DWIDTH 7 0
BBX 3 22 2 -5
BITMAP
F4
F4
F4
F4
F4
F4
F4
F4
F4
F4
F4
F4
F4
F4
F4
F4
F4
00
00
B4
F4
50
ENDCHAR
STARTCHAR uni1ECB
ENCODING 7883
SWIDTH 242 0
DWIDTH 6 0
BBX 3 23 1 -5
BITMAP
14
7C
3C
00
00
7C
7C
7C
7C
7C
7C
7C
7C
7C
7C
7C
7C
7C
00
00
78
7C
14
ENDCHAR
STARTCHAR uni1ECC
ENCODING 7884
SWIDTH 687 0
DWIDTH 17 0
BBX 14 22 1 -5
BITMAP
006FE400
03FFFD00
0FD02F40
2F0007C0
3D0002E0
7C0001E0
780001F0
B80000F0
B80000F0
B80000F0
780001F0
7C0001E0
3D0002E0
2F0007C0
0F901F40
03FFFE00
006FE400
00000000
00000000
000B4000
000F4000
00050000
ENDCHAR
STARTCHAR uni1ECD
ENCODING 7885
SWIDTH 570 0
DWIDTH 14 0
BBX 12 18 1 -5
BITMAP
01BE40
0FEFE0
2E01F8
7C007C
B8003D
F4002E
F4002E
F4002E
B8003D
7C007C
3E01F8
0FEFE0
02FE40
000000
000000
007800
007C00
001400
ENDCHAR
STARTCHAR uni1ECE
ENCODING 7886
SWIDTH 687 0
DWIDTH 17 0
BBX 14 23 1 0
BITMAP
000B8000
0005E000
0000F000
0007D000
00070000
00000000
006FE400
03FFFD00
0FD02F40
2F0007C0
3D0002E0
7C0001E0
780001F0
B80000F0
B80000F0
B80000F0
780001F0
7C0001E0
3D0002E0
2F0007C0
0F901F40
03FFFE00
006FE400
ENDCHAR
STARTCHAR uni1ECF
ENCODING 7887
SWIDTH 570 0
DWIDTH 14 0
BBX 12 20 1 0
BITMAP
007900
001B40
000740
003E00
003800
000000
000000
01BE40
0FEFE0
2E01F8
7C007C
B8003D
F4002E
F4002E
F4002E
B8003D
7C007C
3E01F8
0FEFE0
02FE40
ENDCHAR
STARTCHAR uni1ED0
ENCODING 7888
SWIDTH 687 0
DWIDTH 17 0
BBX 15 23 1 0
BITMAP
000000F4
000002E0
001F8280
00BDF400
01A07800
00000000
006FE400
03FFFD00
0FD02F40
2F0007C0
3D0002E0
7C0001E0
780001F0
B80000F0
B80000F0
B80000F0
780001F0
7C0001E0
3D0002E0
2F0007C0
0F901F40
03FFFE00
006FE400
ENDCHAR
STARTCHAR uni1ED1
ENCODING 7889
SWIDTH 570 0
DWIDTH 14 0
BBX 13 19 1 0
BITMAP
00000780
00001F00
00BD1D00
07DB8000
0B42D000
00000000
01BE4000
0FEFE000
2E01F800
7C007C00
B8003D00
F4002E00
F4002E00
F4002E00
B8003D00
7C007C00
3E01F800
0FEFE000
02FE4000
ENDCHAR
STARTCHAR uni1ED2
ENCODING 7890
SWIDTH 687 0
DWIDTH 17 0
BBX 14 23 1 0
BITMAP
B8000000
3D000000
1D1F8000
00B9F400
01E07800
00000000
006FE400
03FFFD00
0FD02F40
2F0007C0
3D0002E0
7C0001E0
780001F0
B80000F0
B80000F0
B80000F0
780001F0
7C0001E0
3D0002E0
2F0007C0
0F901F40
03FFFE00
006FE400
ENDCHAR
STARTCHAR uni1ED3
ENCODING 7891
SWIDTH 570 0
DWIDTH 14 0
BBX 14 19 -1 0
BITMAP
7C000000
2E000000
0A0BD000
007DB800
00B42D00
00000000
001BE400
00FEFE00
02E01F80
07C007C0
0B8003D0
0F4002E0
0F4002E0
0F4002E0
0B8003D0
07C007C0
03E01F80
00FEFE00
002FE400
ENDCHAR
STARTCHAR uni1ED4
ENCODING 7892
SWIDTH 687 0
DWIDTH 17 0
BBX 14 24 1 0
BITMAP
00000B80
000001D0
000006D0
001FC700
00B9F400
01E02900
00000000
006FE400
03FFFD00
0FD02F40
2F0007C0
3D0002E0
7C0001E0
780001F0
B80000F0
B80000F0
B80000F0
780001F0
7C0001E0
3D0002E0
2F0007C0
0F901F40
03FFFE00
006FE400
ENDCHAR
STARTCHAR uni1ED5
ENCODING 7893
SWIDTH 570 0
DWIDTH 14 0
BBX 12 20 1 0
BITMAP
000039
00000B
00002E
00FD38
07CB80
0A02D0
000000
01BE40
0FEFE0
2E01F8
7C007C
B8003D
F4002E
F4002E
F4002E
B8003D
7C007C
3E01F8
0FEFE0
02FE40
ENDCHAR
STARTCHAR uni1ED6
ENCODING 7894
SWIDTH 687 0
DWIDTH 17 0
BBX 14 24 1 0
BITMAP
007E7400
0092E000
00000000
001F8000
00B9F400
01E07800
00000000
006FE400
03FFFD00
0FD02F40
2F0007C0
3D0002E0
7C0001E0
780001F0
B80000F0
B80000F0
B80000F0
780001F0
7C0001E0
3D0002E0
2F0007C0
0F901F40
03FFFE00
006FE400
ENDCHAR
STARTCHAR uni1ED7
ENCODING 7895
SWIDTH 570 0
DWIDTH 14 0
BBX 12 21 1 0
BITMAP
004000
02F680
061F00
000000
00BD00
07DB80
0B02D0
000000
01BE40
0FEFE0
2E01F8
7C007C
B8003D
F4002E
F4002E
F4002E
B8003D
7C007C
3E01F8
0FEFE0
02FE40
ENDCHAR
STARTCHAR uni1ED8
ENCODING 7896
SWIDTH 687 0
DWIDTH 17 0
BBX 14 26 1 -5
BITMAP
000F8000
007EE000
00B07400
00000000
006FE400
03FFFD00
0FD02F40
2F0007C0
3D0002E0
7C0001E0
780001F0
B80000F0
B80000F0
B80000F0
780001F0
7C0001E0
3D0002E0
2F0007C0
0F901F40
03FFFE00
006FE400
00000000
00000000
000B4000
000F4000
00050000
ENDCHAR
STARTCHAR uni1ED9
ENCODING 7897
SWIDTH 570 0
DWIDTH 14 0
BBX 12 23 1 -5
BITMAP
00BC00
02EF40
074380
000000
000000
01BE40
0FEFE0
2E01F8
7C007C
B8003D
F4002E
F4002E
F4002E
B8003D
7C007C
3E01F8
0FEFE0
02FE40
000000
000000
007800
007C00
001400
ENDCHAR
STARTCHAR uni1EDA
ENCODING 7898
SWIDTH 686 0
DWIDTH 16 0
BBX 16 21 1 0
BITMAP
0001F400
0003D000
000B4005
0000001E
006FE01E
07FFFD7C
1F906FF4
2E000BC0
7C0003D0
B80002E0
B80001E0
B40001F0
B40001F0
B40001F0
B80001E0
B80002E0
7C0003D0
2E000BC0
1F902F40
07FFFD00
006FA000
ENDCHAR
STARTCHAR uni1EDB
ENCODING 7899
SWIDTH 571 0
DWIDTH 14 0
BBX 13 18 1 0
BITMAP
000BC000
001F0000
00280000
00000040
000002C0
01BE42C0
0FEFEB80
2E01FE00
7C007C00
B8003D00
F4002E00
F4002E00
F4002E00
B8003D00
7C007C00
2E01F800
0FEFE000
02FE4000
ENDCHAR
STARTCHAR uni1EDC
ENCODING 7900
SWIDTH 686 0
DWIDTH 16 0
BBX 16 21 1 0
BITMAP
00B80000
002E0000
000A0005
0000001E
006FE01E
07FFFD7C
1F906FF4
2E000BC0
7C0003D0
B80002E0
B80001E0
B40001F0
B40001F0
B40001F0
B80001E0
B80002E0
7C0003D0
2E000BC0
1F902F40
07FFFD00
006FA000
ENDCHAR
STARTCHAR uni1EDD
ENCODING 7901
SWIDTH 571 0
DWIDTH 14 0
BBX 13 18 1 0
BITMAP
07D00000
01F40000
00780000
00000040
000002C0
01BE42C0
0FEFEB80
2E01FE00
7C007C00
B8003D00
F4002E00
F4002E00
F4002E00
B8003D00
7C007C00
2E01F800
0FEFE000
02FE4000
ENDCHAR
STARTCHAR uni1EDE
ENCODING 7902
SWIDTH 686 0
DWIDTH 16 0
BBX 16 23 1 0
BITMAP
000B8000
0005E000
0000E000
0007D000
000B0005
0000001E
006FE01E
07FFFD7C
1F906FF4
2E000BC0
7C0003D0
B80002E0
B80001E0
B40001F0
B40001F0
B40001F0
B80001E0
B80002E0
7C0003D0
2E000BC0
1F902F40
07FFFD00
006FA000
ENDCHAR
STARTCHAR uni1EDF
ENCODING 7903
SWIDTH 571 0
DWIDTH 14 0
BBX 13 20 1 0
BITMAP
00390000
001B4000
00074000
003E0000
00380000
00000040
000002C0
01BE42C0
0FEFEB80
2E01FE00
7C007C00
B8003D00
F4002E00
F4002E00
F4002E00
B8003D00
7C007C00
2E01F800
0FEFE000
02FE4000
ENDCHAR
STARTCHAR uni1EE0
ENCODING 7904
SWIDTH 686 0
DWIDTH 16 0
BBX 16 21 1 0
BITMAP
00640900
01FFBC00
0286F405
0000001E
006FE01E
07FFFD7C
1F906FF4
2E000BC0
7C0003D0
B80002E0
B80001E0
B40001F0
B40001F0
B40001F0
B80001E0
B80002E0
7C0003D0
2E000BC0
1F902F40
07FFFD00
006FA000
ENDCHAR
STARTCHAR uni1EE1
ENCODING 7905
SWIDTH 571 0
DWIDTH 14 0
BBX 13 18 1 0
BITMAP
0290A000
0FFEE000
1D1B8000
00000040
000002C0
01BE42C0
0FEFEB80
2E01FE00
7C007C00
B8003D00
F4002E00
F4002E00
F4002E00
B8003D00
7C007C00
2E01F800
0FEFE000
02FE4000
ENDCHAR
STARTCHAR uni1EE2
ENCODING 7906
SWIDTH 686 0
DWIDTH 16 0
BBX 16 24 1 -5
BITMAP
00000005
0000001E
006FE01E
07FFFD7C
1F906FF4
2E000BC0
7C0003D0
B80002E0
B80001E0
B40001F0
B40001F0
B40001F0
B80001E0
B80002E0
7C0003D0
2E000BC0
1F902F40
07FFFD00
006FA000
00000000
00000000
000F0000
001F4000
00050000
ENDCHAR
STARTCHAR uni1EE3
ENCODING 7907
SWIDTH 571 0
DWIDTH 14 0
BBX 13 20 1 -5
BITMAP
00000040
000002C0
01BE42C0
0FEFEB80
2E01FE00
7C007C00
B8003D00
F4002E00
F4002E00
F4002E00
B8003D00
7C007C00
2E01F800
0FEFE000
02FE4000
00000000
00000000
00780000
007C0000
00140000
ENDCHAR
STARTCHAR uni1EE4
ENCODING 7908
SWIDTH 648 0
DWIDTH 16 0
BBX 13 22 1 -5
BITMAP
7C0007C0
7C0007C0
7C0007C0
7C0007C0
7C0007C0
7C0007C0
7C0007C0
7C0007C0
7C0007C0
7C0007C0
7C0007C0
7C0007C0
7C0007C0
3D000B80
1F402F00
0BFFFD00
01BFA000
00000000
00000000
001E0000
001F0000
00050000
ENDCHAR
STARTCHAR uni1EE5
ENCODING 7909
SWIDTH 551 0
DWIDTH 13 0
BBX 11 18 1 -5
BITMAP
7800B8
7800B8
7800B8
7800B8
7800B8
7800B8
7800B8
7800B8
7800B8
7C00B8
3E02F8
2FFFF8
07F9B8
000000
000000
00E000
01F000
005000
ENDCHAR
STARTCHAR uni1EE6
ENCODING 7910
SWIDTH 648 0
DWIDTH 16 0
BBX 13 23 1 0
BITMAP
000E4000
0006D000
0001D000
000F8000
000E0000
00000000
7C0007C0
7C0007C0
7C0007C0
7C0007C0
7C0007C0
7C0007C0
7C0007C0
7C0007C0
7C0007C0
7C0007C0
7C0007C0
7C0007C0
7C0007C0
3D000B80
1F402F00
0BFFFD00
01BFA000
ENDCHAR
STARTCHAR uni1EE7
ENCODING 7911
SWIDTH 551 0
DWIDTH 13 0
BBX 11 20 1 0
BITMAP
007900
001B00
000B40
003E00
003800
000000
000000
7800B8
7800B8
7800B8
7800B8
7800B8
7800B8
7800B8
7800B8
7800B8
7C00B8
3E02F8
2FFFF8
07F9B8
ENDCHAR
STARTCHAR uni1EE8
ENCODING 7912
SWIDTH 695 0
DWIDTH 17 0
BBX 18 21 1 0
BITMAP
0001F40000
0007D00000
000B400000
00000002D0
7C0007C2D0
7C0007C7C0
7C0007EF40
7C0007F900
7C0007C000
7C0007C000
7C0007C000
7C0007C000
7C0007C000
7C0007C000
7C0007C000
7C0007C000
7C0007C000
3D000B8000
1F402F0000
0BFFFD0000
01BFA00000
ENDCHAR
STARTCHAR uni1EE9
ENCODING 7913
SWIDTH 618 0
DWIDTH 15 0
BBX 14 18 1 0
BITMAP
000BC000
002E0000
00280000
00000000
000000B0
7800B8B0
7800BAE0
7800BE40
7800B800
7800B800
7800B800
7800B800
7800B800
7800B800
7C00B800
3E02F800
2FFFF800
07F9B800
ENDCHAR
STARTCHAR uni1EEA
ENCODING 7914
SWIDTH 695 0
DWIDTH 17 0
BBX 18 21 1 0
BITMAP
00F8000000
003D000000
000E000000
00000002D0
7C0007C2D0
7C0007C7C0
7C0007EF40
7C0007F900
7C0007C000
7C0007C000
7C0007C000
7C0007C000
7C0007C000
7C0007C000
7C0007C000
7C0007C000
7C0007C000
3D000B8000
1F402F0000
0BFFFD0000
01BFA00000
ENDCHAR
STARTCHAR uni1EEB
ENCODING 7915
SWIDTH 618 0
DWIDTH 15 0
BBX 14 18 1 0
BITMAP
07D00000
01F40000
00780000
00000000
000000B0
7800B8B0
7800BAE0
7800BE40
7800B800
7800B800
7800B800
7800B800
7800B800
7800B800
7C00B800
3E02F800
2FFFF800
07F9B800
ENDCHAR
STARTCHAR uni1EEC
ENCODING 7916
SWIDTH 695 0
DWIDTH 17 0
BBX 18 23 1 0
BITMAP
000B800000
0006E00000
0000E00000
000BD00000
000B000000
00000002D0
7C0007C2D0
7C0007C7C0
7C0007EF40
7C0007F900
7C0007C000
7C0007C000
7C0007C000
7C0007C000
7C0007C000
7C0007C000
7C0007C000
7C0007C000
7C0007C000
3D000B8000
1F402F0000
0BFFFD0000
01BFA00000
ENDCHAR
STARTCHAR uni1EED
ENCODING 7917
SWIDTH 618 0
DWIDTH 15 0
BBX 14 20 1 0
BITMAP
00390000
001B4000
00074000
003E0000
00380000
00000000
000000B0
7800B8B0
7800BAE0
7800BE40
7800B800
7800B800
7800B800
7800B800
7800B800
7800B800
7C00B800
3E02F800
2FFFF800
07F9B800
ENDCHAR
STARTCHAR uni1EEE
ENCODING 7918
SWIDTH 695 0
DWIDTH 17 0
BBX 18 21 1 0
BITMAP
0064190000
02FFBC0000
0386F40000
00000002D0
7C0007C2D0
7C0007C7C0
7C0007EF40
7C0007F900
7C0007C000
7C0007C000
7C0007C000
7C0007C000
7C0007C000
7C0007C000
7C0007C000
7C0007C000
7C0007C000
3D000B8000
1F402F0000
0BFFFD0000
01BFA00000
ENDCHAR
STARTCHAR uni1EEF
ENCODING 7919
SWIDTH 618 0
DWIDTH 15 0
BBX 14 18 1 0
BITMAP
0290A000
0FFEE000
1D1B8000
00000000
000000B0
7800B8B0
7800BAE0
7800BE40
7800B800
7800B800
7800B800
7800B800
7800B800
7800B800
7C00B800
3E02F800
2FFFF800
07F9B800
ENDCHAR
STARTCHAR uni1EF0
ENCODING 7920
SWIDTH 695 0
DWIDTH 17 0
BBX 18 23 1 -5
BITMAP
00000002D0
7C0007C2D0
7C0007C7C0
7C0007EF40
7C0007F900
7C0007C000
7C0007C000
7C0007C000
7C0007C000
7C0007C000
7C0007C000
7C0007C000
7C0007C000
7C0007C000
3D000B8000
1F402F0000
0BFFFD0000
01BFA00000
0000000000
0000000000
000F000000
001F400000
0005000000
ENDCHAR
STARTCHAR uni1EF1
ENCODING 7921
SWIDTH 618 0
DWIDTH 15 0
BBX 14 19 1 -5
BITMAP
000000B0
7800B8B0
7800BAE0
7800BE40
7800B800
7800B800
7800B800
7800B800
7800B800
7800B800
7C00B800
3E02F800
2FFFF800
07F9B800
00000000
00000000
00740000
00B80000
00100000
ENDCHAR
STARTCHAR Ygrave
ENCODING 7922
SWIDTH 600 0
DWIDTH 14 0
BBX 14 21 0 0
BITMAP
00B80000
002E0000
000A0000
00000000
BC0002F0
3E0003D0
1F000B80
0F801F40
07C02E00
02E07C00
01F0B800
00B9F000
003FD000
002FC000
000F4000
000F4000
000F4000
000F4000
000F4000
000F4000
000F4000
ENDCHAR
STARTCHAR ygrave
ENCODING 7923
SWIDTH 473 0
DWIDTH 11 0
BBX 11 23 0 -5
BITMAP
07D000
01F400
007800
000000
000000
B8007C
7C00B8
3D00F4
1E01F0
0F02E0
0B43D0
078780
03CB40
02DF00
01FE00
00FD00
00BC00
007800
00B400
00F000
02E000
3FC000
3E0000
ENDCHAR
STARTCHAR uni1EF4
ENCODING 7924
SWIDTH 600 0
DWIDTH 14 0
BBX 14 22 0 -5
BITMAP
BC0002F0
3E0003D0
1F000B80
0F801F40
07C02E00
02E07C00
01F0B800
00B9F000
003FD000
002FC000
000F4000
000F4000
000F4000
000F4000
000F4000
000F4000
000F4000
00000000
00000000
000B0000
000F4000
00050000
ENDCHAR
STARTCHAR uni1EF5
ENCODING 7925
SWIDTH 473 0
DWIDTH 11 0
BBX 11 20 0 -7
BITMAP
B8007C
7C00B8
3D00F4
1E01F0
0F02E0
0B43D0
078780
03CB40
02DF00
01FE00
00FD00
00BC00
007800
00B400
00F000
02E000
3FC000
3E02D0
0003D0
000140
ENDCHAR
STARTCHAR uni1EF6
ENCODING 7926
SWIDTH 600 0
DWIDTH 14 0
BBX 14 23 0 0
BITMAP
000B8000
0005E000
0000E000
0007D000
000B0000
00000000
BC0002F0
3E0003D0
1F000B80
0F801F40
07C02E00
02E07C00
01F0B800
00B9F000
003FD000
002FC000
000F4000
000F4000
000F4000
000F4000
000F4000
000F4000
000F4000
ENDCHAR
STARTCHAR uni1EF7
ENCODING 7927
SWIDTH 473 0
DWIDTH 11 0
BBX 11 25 0 -5
BITMAP
003900
001B40
000780
002F00
002800
000000
000000
B8007C
7C00B8
3D00F4
1E01F0
0F02E0
0B43D0
078780
03CB40
02DF00
01FE00
00FD00
00BC00
007800
00B400
00F000
02E000
3FC000
3E0000
ENDCHAR
STARTCHAR uni1EF8
ENCODING 7928
SWIDTH 600 0
DWIDTH 14 0
BBX 14 21 0 0
BITMAP
00640900
01FFBC00
0286F400
00000000
BC0002F0
3E0003D0
1F000B80
0F801F40
07C02E00
02E07C00
01F0B800
00B9F000
003FD000
002FC000
000F4000
000F4000
000F4000
000F4000
000F4000
000F4000
000F4000
ENDCHAR
STARTCHAR uni1EF9
ENCODING 7929
SWIDTH 473 0
DWIDTH 11 0
BBX 11 23 0 -5
BITMAP
019060
0BFEE0
0E1B90
000000
000000
B8007C
7C00B8
3D00F4
1E01F0
0F02E0
0B43D0
078780
03CB40
02DF00
01FE00
00FD00
00BC00
007800
00B400
00F000
02E000
3FC000
3E0000
ENDCHAR
STARTCHAR uni1F4D
ENCODING 8013
SWIDTH 721 0
DWIDTH 17 0
BBX 22 17 -6 0
BITMAP
783D006FA000
787807FFFD00
3CB00F902F40
19902E000BC0
00007C0003D0
0000780002E0
0000B80001E0
0000B40001F0
0000B40001F0
0000B40001F0
0000B80001E0
0000780002E0
00007C0003D0
00002E000BC0
00000F902F40
000007FFFD00
0000006FA000
ENDCHAR
STARTCHAR uni2000
ENCODING 8192
SWIDTH 509 0
DWIDTH 12 0
BBX 1 1 0 0
BITMAP
00
ENDCHAR
STARTCHAR uni2001
ENCODING 8193
SWIDTH 1020 0
DWIDTH 24 0
BBX 1 1 0 0
BITMAP
00
ENDCHAR
STARTCHAR uni2002
ENCODING 8194
SWIDTH 509 0
DWIDTH 12 0
BBX 1 1 0 0
BITMAP
00
ENDCHAR
STARTCHAR uni2003
ENCODING 8195
SWIDTH 1020 0
DWIDTH 24 0
BBX 1 1 0 0
BITMAP
00
ENDCHAR
STARTCHAR uni2004
ENCODING 8196
SWIDTH 340 0
DWIDTH 8 0
BBX 1 1 0 0
BITMAP
00
ENDCHAR
STARTCHAR uni2005
ENCODING 8197
SWIDTH 254 0
DWIDTH 6 0
BBX 1 1 0 0
BITMAP
00
ENDCHAR
STARTCHAR uni2006
ENCODING 8198
SWIDTH 169 0
DWIDTH 4 0
BBX 1 1 0 0
BITMAP
00
ENDCHAR
STARTCHAR uni2007
ENCODING 8199
SWIDTH 562 0
DWIDTH 13 0
BBX 1 1 0 0
BITMAP
00
ENDCHAR
STARTCHAR uni2008
ENCODING 8200
SWIDTH 273 0
DWIDTH 7 0
BBX 1 1 0 0
BITMAP
00
ENDCHAR
STARTCHAR uni2009
ENCODING 8201
SWIDTH 204 0
DWIDTH 5 0
BBX 1 1 0 0
BITMAP
00
ENDCHAR
STARTCHAR uni200A
ENCODING 8202
SWIDTH 102 0
DWIDTH 2 0
BBX 1 1 0 0
BITMAP
00
ENDCHAR
STARTCHAR uni200B
ENCODING 8203
SWIDTH 0 0
DWIDTH 0 0
BBX 1 1 0 0
BITMAP
00
ENDCHAR
STARTCHAR uni2010
ENCODING 8208
SWIDTH 275 0
DWIDTH 7 0
BBX 6 2 0 6
BITMAP
BFF0
6AA0
ENDCHAR
STARTCHAR uni2011
ENCODING 8209
SWIDTH 275 0
DWIDTH 7 0
BBX 6 2 0 6
BITMAP
BFF0
6AA0
ENDCHAR
STARTCHAR endash
ENCODING 8211
SWIDTH 656 0
DWIDTH 16 0
BBX 12 2 2 7
BITMAP
FFFFFE
AAAAA9
ENDCHAR
STARTCHAR emdash
ENCODING 8212
SWIDTH 780 0
DWIDTH 19 0
BBX 17 2 1 7
BITMAP
7FFFFFFF40
6AAAAAAA40
ENDCHAR
STARTCHAR uni2015
ENCODING 8213
SWIDTH 780 0
DWIDTH 19 0
BBX 17 2 1 7
BITMAP
7FFFFFFF40
6AAAAAAA40
ENDCHAR
STARTCHAR underscoredbl
ENCODING 8215
SWIDTH 455 0
DWIDTH 11 0
BBX 11 5 0 -5
BITMAP
AAAAA8
FFFFFC
000000
FFFFFC
AAAAA8
ENDCHAR
STARTCHAR quoteleft
ENCODING 8216
SWIDTH 199 0
DWIDTH 5 0
BBX 3 6 1 12
BITMAP
18
3C
78
B4
F4
F4
ENDCHAR
STARTCHAR quoteright
ENCODING 8217
SWIDTH 199 0
DWIDTH 5 0
BBX 3 6 1 12
BITMAP
78
78
78
B4
F0
90
ENDCHAR
STARTCHAR quotesinglbase
ENCODING 8218
SWIDTH 198 0
DWIDTH 5 0
BBX 4 5 0 -3
BITMAP
1E
2E
2D
3C
64
ENDCHAR
STARTCHAR quotereversed
ENCODING 8219
SWIDTH 199 0
DWIDTH 5 0
BBX 3 6 1 12
BITMAP
F0
F0
F0
B4
78
18
ENDCHAR
STARTCHAR quotedblleft
ENCODING 8220
SWIDTH 353 0
DWIDTH 8 0
BBX 7 6 1 12
BITMAP
1818
3C78
78B4
B4F0
B4F0
B4F0
ENDCHAR
STARTCHAR quotedblright
ENCODING 8221
SWIDTH 356 0
DWIDTH 9 0
BBX 7 6 1 12
BITMAP
7CB8
7CB8
7CB4
78F4
F1E0
9180
ENDCHAR
STARTCHAR quotedblbase
ENCODING 8222
SWIDTH 344 0
DWIDTH 8 0
BBX 8 7 0 -4
BITMAP
1E3C
1E3D
1E3C
2E3C
3D78
78B4
60A0
ENDCHAR
STARTCHAR dagger
ENCODING 8224
SWIDTH 551 0
DWIDTH 13 0
BBX 13 17 0 0
BITMAP
001E0000
001E0000
001E0000
001E0000
7FFFFF40
2ABFAA40
001E0000
001E0000
001E0000
001E0000
001E0000
001E0000
001E0000
001E0000
001E0000
001E0000
001E0000
ENDCHAR
STARTCHAR daggerdbl
ENCODING 8225
SWIDTH 569 0
DWIDTH 14 0
BBX 12 22 1 -5
BITMAP
007C00
007C00
007C00
007C00
FFFFFE
AAFEA9
007C00
007C00
007C00
007C00
007C00
007C00
007C00
007C00
007C00
AAFEA9
FFFFFE
007C00
007C00
007C00
007C00
007C00
ENDCHAR
STARTCHAR bullet
ENCODING 8226
SWIDTH 336 0
DWIDTH 8 0
BBX 6 5 1 6
BITMAP
1F40
7FD0
7FD0
7FD0
2F80
ENDCHAR
STARTCHAR twodotenleader
ENCODING 8229
SWIDTH 470 0
DWIDTH 11 0
BBX 9 3 1 0
BITMAP
140600
7D0F40
3D0B40
ENDCHAR
STARTCHAR ellipsis
ENCODING 8230
SWIDTH 668 0
DWIDTH 16 0
BBX 14 3 1 0
BITMAP
14060140
7D0F47D0
3D0B43C0
ENDCHAR
STARTCHAR uni2027
ENCODING 8231
SWIDTH 186 0
DWIDTH 4 0
BBX 3 3 1 6
BITMAP
B4
F4
50
ENDCHAR
STARTCHAR perthousand
ENCODING 8240
SWIDTH 958 0
DWIDTH 23 0
BBX 22 17 0 0
BITMAP
0BE400000000
2E7C00000000
380E01800000
740E02C00000
740E07400000
380E0E000000
2E7D2C000000
07E474000000
0000E0000000
0002C2F86E40
00074B9FE6D0
000B1E07C0E0
001D1D0380B0
00381D0380B0
00B01E07C0E0
00900B9FE6D0
000002F86E40
ENDCHAR
STARTCHAR minute
ENCODING 8242
SWIDTH 174 0
DWIDTH 4 0
BBX 2 6 1 12
BITMAP
B0
B0
B0
B0
A0
A0
ENDCHAR
STARTCHAR second
ENCODING 8243
SWIDTH 319 0
DWIDTH 8 0
BBX 6 6 1 12
BITMAP
75D0
75D0
75D0
71D0
71D0
71C0
ENDCHAR
STARTCHAR guilsinglleft
ENCODING 8249
SWIDTH 299 0
DWIDTH 7 0
BBX 5 9 1 2
BITMAP
02C0
0740
1E00
3C00
B800
3C00
1E00
0740
02C0
ENDCHAR
STARTCHAR guilsinglright
ENCODING 8250
SWIDTH 299 0
DWIDTH 7 0
BBX 5 9 1 2
BITMAP
B000
3C00
1E00
0B40
03C0
0B40
1E00
3C00
B000
ENDCHAR
STARTCHAR exclamdbl
ENCODING 8252
SWIDTH 514 0
DWIDTH 12 0
BBX 9 17 2 0
BITMAP
F40F40
F40F40
F40F40
F40F40
F40B40
F00B40
F00B40
F00B40
F00B40
F00B40
F00B40
F00B40
000000
000000
500500
F40F80
B40B40
ENDCHAR
STARTCHAR fraction
ENCODING 8260
SWIDTH 454 0
DWIDTH 11 0
BBX 9 14 1 1
BITMAP
000180
000380
000B40
001E00
002C00
007400
00E000
02C000
074000
0E0000
2C0000
740000
A00000
900000
ENDCHAR
STARTCHAR uni2074
ENCODING 8308
SWIDTH 366 0
DWIDTH 9 0
BBX 9 9 0 8
BITMAP
007C00
00FC00
02FC00
077C00
0E3C00
283C00
7FFF40
2ABE00
003C00
ENDCHAR
STARTCHAR uni207F
ENCODING 8319
SWIDTH 421 0
DWIDTH 10 0
BBX 8 9 1 8
BITMAP
B2F8
BFBD
B81E
B40F
B40F
B40F
B40F
B40F
B40F
ENDCHAR
STARTCHAR franc
ENCODING 8355
SWIDTH 552 0
DWIDTH 13 0
BBX 13 17 0 0
BITMAP
0FFFFF80
0FFFFF40
0F400000
0F400000
0F400000
0F400000
0F400000
0F400000
0FFFFD00
0FFFFD00
0F400000
0F400000
0F400000
BFFE0000
AFEA0000
0F400000
0F400000
ENDCHAR
STARTCHAR lira
ENCODING 8356
SWIDTH 581 0
DWIDTH 14 0
BBX 13 17 1 0
BITMAP
006F9000
02FFF800
0BD07D00
0F402E00
0F001900
0F000000
0F000000
FFFF4000
5F950000
0F400000
FFFF4000
5F950000
0F400000
0F400000
1F000000
BFFFFF40
FFFFFF40
ENDCHAR
STARTCHAR uni20A6
ENCODING 8358
SWIDTH 791 0
DWIDTH 19 0
BBX 19 17 0 0
BITMAP
03D0001F00
03F4001F00
03F8001F00
03FD001F00
03EF001F00
03CB801F00
BFFFFFFFF8
ABEAFEAFA8
03C0F81F00
03C07C1F00
BFFFFFFFF8
ABEAAFEFA8
03C007DF00
03C002FF00
03C000FF00
03C0007F00
03C0002F00
ENDCHAR
STARTCHAR peseta
ENCODING 8359
SWIDTH 820 0
DWIDTH 20 0
BBX 16 17 2 0
BITMAP
FFF90000
FABF82E0
F007D2E0
F002E2E0
F001FFFF
F001FBFA
F002E2E0
F002D2E0
F01BC2E0
FFFF02E0
FAA402E0
F00002E0
F00002E0
F00002E0
F00001E0
F00000FF
F000007F
ENDCHAR
STARTCHAR uni20A8
ENCODING 8360
SWIDTH 1057 0
DWIDTH 25 0
BBX 22 17 2 0
BITMAP
FFFE80000000
FFFFF4000000
F401BC000000
F4003D000000
F4002E06FE00
F4002E2FEFC0
F4007D7D02E0
F401F87801F0
FFFFE07D0000
FFFF802FA400
F407C007FF40
F403D0001BE0
F401F00001F0
F400F8B400F0
F4007C7D02F0
F4002E2FEFD0
F4001F46FE40
ENDCHAR
STARTCHAR uni20A9
ENCODING 8361
SWIDTH 739 0
DWIDTH 18 0
BBX 18 17 0 0
BITMAP
7C01F007C0
3D01F40B80
2D02F40B80
2E02F80F40
1E03B80F00
1F03BC1F00
BFFFFFFFD0
AFEFFFBF90
0B8B1D2D00
078B1E3C00
BFFFFFFFD0
ABFFAFFE90
02ED0BB400
01FD07F400
01FC07F000
00F803E000
00B803D000
ENDCHAR
STARTCHAR uni20AA
ENCODING 8362
SWIDTH 770 0
DWIDTH 19 0
BBX 16 13 1 0
BITMAP
7FFF901F
7EABF41F
7800BC1F
78003C1F
782D3D1F
782D3D1F
782D3D1F
782D3D1F
782D3D1F
782D001E
782D003E
782FABFC
782FFFE4
ENDCHAR
STARTCHAR dong
ENCODING 8363
SWIDTH 578 0
DWIDTH 14 0
BBX 13 22 1 -4
BITMAP
00007800
00007800
001FFFC0
001AFE80
00007800
06F97800
1FFFF800
3E01F800
7C007800
B8007800
F4007800
F4007800
B4007800
B8007800
7C00B800
3E01F800
1FFFB800
06F97800
00000000
00000000
3FFFFE00
2AAAA900
ENDCHAR
STARTCHAR Euro
ENCODING 8364
SWIDTH 561 0
DWIDTH 13 0
BBX 12 17 1 0
BITMAP
001BF9
00BFFD
02F400
07D000
0B8000
0B8000
FFFFC0
5F9540
0B4000
FFFFC0
5F9540
0B8000
0B8000
07D000
02F400
00BFFD
001BF9
ENDCHAR
STARTCHAR uni20B1
ENCODING 8369
SWIDTH 731 0
DWIDTH 18 0
BBX 18 17 0 0
BITMAP
07FFFE0000
07FFFFD000
07C002F000
BFFFFFFFD0
6FEAAAFE80
07C0007C00
BFFFFFFFD0
6FEAAAFFD0
07C006F000
07FFFFD000
07FFE90000
07C0000000
07C0000000
07C0000000
07C0000000
07C0000000
07C0000000
ENDCHAR
STARTCHAR uni20B9
ENCODING 8377
SWIDTH 516 0
DWIDTH 12 0
BBX 12 17 0 0
BITMAP
3FFFFE
7FFFFD
001BC0
0003D0
3FFFFE
7FFFFD
0003D0
001FC0
7FFF40
3FA800
1F4000
07D000
02F000
00BC00
003E00
001F80
0007D0
ENDCHAR
STARTCHAR uni20BA
ENCODING 8378
SWIDTH 556 0
DWIDTH 13 0
BBX 13 17 0 0
BITMAP
02D00000
02D00000
02D24000
02FF4000
07FE0000
7FE00000
BBD24000
52FF4000
07FE0F40
7FE00F40
BBD00F40
52D01F00
02D02E00
02D03D00
02D1F800
02FFE000
02FE4000
ENDCHAR
STARTCHAR uni20BC
ENCODING 8380
SWIDTH 660 0
DWIDTH 16 0
BBX 14 13 1 0
BITMAP
001F0000
001F0000
00BFE000
07FFFD00
1F9F2F00
2E1F0B80
7C1F03C0
B81F02D0
B41F02E0
F41F01E0
F41F01E0
F41F01E0
F41F01E0
ENDCHAR
STARTCHAR uni20BD
ENCODING 8381
SWIDTH 663 0
DWIDTH 16 0
BBX 15 17 0 0
BITMAP
07FFFE40
07FFFFD0
07C002F4
07C000B8
07C0007C
07C0007C
07C0007C
07C000B8
07C006F4
BFFFFFD0
BFFFEA00
07C00000
BFFFC000
BFFF8000
07C00000
07C00000
07C00000
ENDCHAR
STARTCHAR uni2105
ENCODING 8453
SWIDTH 737 0
DWIDTH 18 0
BBX 16 17 1 0
BITMAP
1BD00000
3DB40000
742C0240
B0000B00
B0001D00
742C3800
3DB8B400
0BE0E000
0002C000
00074BE0
000E2EBC
002C741D
0074740D
00E0740E
02D0741D
02802E7C
00000BE0
ENDCHAR
STARTCHAR uni2113
ENCODING 8467
SWIDTH 475 0
DWIDTH 11 0
BBX 10 18 1 0
BITMAP
00BE00
02FF80
03D3C0
07C3D0
0783D0
0783C0
0787C0
078F40
07AF00
07FD00
0BF400
BFD000
BF8000
07C000
03C000
03E000
01FD00
006D00
ENDCHAR
STARTCHAR uni2116
ENCODING 8470
SWIDTH 1028 0
DWIDTH 25 0
BBX 22 17 2 0
BITMAP
F8002D02FD00
FC002D0FEF80
FE002D1E03C0
FF002D2D02D0
FB802D2D02D0
F3D02D2D02D0
F2E02D2E03C0
F0F42D0F9B80
F0782D07FE00
F03D2D001000
F01E2D000000
F00F6D1FFFC0
F007ED1AAA80
F002FD000000
F001FD000000
F000BD000000
F0007D000000
ENDCHAR
STARTCHAR trademark
ENCODING 8482
SWIDTH 625 0
DWIDTH 15 0
BBX 12 6 1 11
BITMAP
BF9C0E
0C1E1E
0C1A2A
0C1A76
0C19E6
0C1886
ENDCHAR
STARTCHAR uni03A9.dup2
ENCODING 8486
SWIDTH 665 0
DWIDTH 16 0
BBX 14 17 1 0
BITMAP
00AF9000
07FFF800
1F806F00
2E000F80
7C0007C0
780003D0
B80003D0
B80003D0
B80003D0
B80003D0
780003C0
7C0007C0
2D000B80
1E000F00
0B807D00
BFF1FFD0
BFF1FFD0
ENDCHAR
STARTCHAR estimated
ENCODING 8494
SWIDTH 636 0
DWIDTH 15 0
BBX 13 13 1 0
BITMAP
006F9000
02D17800
0B000D00
1E000F00
3E000F40
3E000F80
7FFFFF80
3E000000
3E000000
2E000000
0E000000
02916D00
006FA000
ENDCHAR
STARTCHAR oneeighth
ENCODING 8539
SWIDTH 768 0
DWIDTH 18 0
BBX 16 17 1 0
BITMAP
1B400000
FF400000
47400900
07401D00
07402C00
07407400
0740E000
0742C000
07474BF8
000E1EAE
002C2D1E
00740BFC
00E01FAD
02D02C0F
07802C0F
06001FAE
000007F8
ENDCHAR
STARTCHAR threeeighths
ENCODING 8540
SWIDTH 854 0
DWIDTH 21 0
BBX 18 17 1 0
BITMAP
1FE4000000
7ABC000000
003C006000
07F400E000
01B802C000
002D074000
B02C0E0000
7EB82D0000
1BE038BF80
0000B2EAE0
0001D2D1E0
000380BF80
000B01EAD0
001D03C0F0
003803C0F0
002402EAE0
000000BF80
ENDCHAR
STARTCHAR fiveeighths
ENCODING 8541
SWIDTH 851 0
DWIDTH 20 0
BBX 18 17 1 0
BITMAP
3FF8000000
7AA4000000
7400009000
7FE001D000
69B8038000
003C0B0000
603C1D0000
7AB8380000
1BE0B4BF80
0001E2EAD0
0002C2D1E0
000740FF80
000E01EBD0
002C03C0E0
007403C0E0
006002EBD0
000000BF40
ENDCHAR
STARTCHAR seveneighths
ENCODING 8542
SWIDTH 801 0
DWIDTH 19 0
BBX 17 17 1 0
BITMAP
FFFD000000
AABC000000
0078024000
00B00B4000
01E01E0000
02C02C0000
0740740000
0F00E00000
1D02C2FE00
00074BAB80
000E0B4780
002C02FE00
007407AB40
00B00F03C0
01D00F03C0
01800BAB80
000002FE00
ENDCHAR
STARTCHAR partialdiff
ENCODING 8706
SWIDTH 569 0
DWIDTH 14 0
BBX 12 18 1 0
BITMAP
1BF900
1FFFC0
1407E0
0000F4
000078
00003C
02FE2D
1FEFFD
3E00BE
7C003E
B8002E
B4002D
B4002D
B8003C
7C0078
2E01F4
0FEFD0
02FE40
ENDCHAR
STARTCHAR uni0394.dup3
ENCODING 8710
SWIDTH 705 0
DWIDTH 17 0
BBX 16 17 0 0
BITMAP
0002E000
0003F000
0007F800
000F7C00
001E2D00
002D1E00
007C0F00
00B80B80
00F407C0
01E003D0
03D001E0
07C000F0
0B8000B8
0F00007C
2E00003D
3FFFFFFE
7FFFFFFF
ENDCHAR
STARTCHAR product
ENCODING 8719
SWIDTH 694 0
DWIDTH 17 0
BBX 13 20 2 -3
BITMAP
FFFFFF80
FAAAAF80
F0000780
F0000780
F0000780
F0000780
F0000780
F0000780
F0000780
F0000780
F0000780
F0000780
F0000780
F0000780
F0000780
F0000780
F0000780
F0000780
F0000780
F0000780
ENDCHAR
STARTCHAR summation
ENCODING 8721
SWIDTH 585 0
DWIDTH 14 0
BBX 14 20 0 -3
BITMAP
7FFFFFC0
3FAAAA80
1F000000
0B800000
02E00000
00F80000
003D0000
001F4000
0007C000
0002F000
0001F000
0007D000
001F4000
003D0000
00B80000
02E00000
0BC00000
1F000000
3FAAAAA0
7FFFFFF0
ENDCHAR
STARTCHAR minus
ENCODING 8722
SWIDTH 571 0
DWIDTH 14 0
BBX 10 2 2 7
BITMAP
FFFFE0
AAAAA0
ENDCHAR
STARTCHAR radical
ENCODING 8730
SWIDTH 596 0
DWIDTH 14 0
BBX 14 17 0 0
BITMAP
000002E0
000003D0
000007C0
00000B40
00000F00
00001E00
00002D00
00007C00
7F80B800
6BC0F400
02D1F000
01E2D000
00F7C000
00BB8000
007F4000
002F0000
001E0000
ENDCHAR
STARTCHAR infinity
ENCODING 8734
SWIDTH 1028 0
DWIDTH 25 0
BBX 23 13 1 0
BITMAP
01BE4007F900
0BEFD02FBF40
2E01F4B807D0
7C007DE002E0
B8002FC000F0
B4000F8000F4
B4000F4000B4
B4001F8000F4
B8002FC000F0
7C007DE002E0
2E01F4B807D0
0BEFD02FBF40
01BE4007F900
ENDCHAR
STARTCHAR integral
ENCODING 8747
SWIDTH 255 0
DWIDTH 6 0
BBX 9 23 -1 -5
BITMAP
006F80
01FE40
02E000
03D000
03D000
03D000
03D000
03D000
03D000
03D000
03D000
03D000
03D000
03D000
03D000
03D000
03D000
03D000
03D000
03C000
07C000
BF8000
BD0000
ENDCHAR
STARTCHAR approxequal
ENCODING 8776
SWIDTH 563 0
DWIDTH 14 0
BBX 11 9 1 3
BITMAP
2F9004
BFF81C
A06FFC
4007E4
000000
2F9004
BFF81C
A06FFC
4007E4
ENDCHAR
STARTCHAR notequal
ENCODING 8800
SWIDTH 548 0
DWIDTH 13 0
BBX 11 13 1 2
BITMAP
000090
0001C0
000380
7FFFF8
7FFFF8
002800
007400
00A000
7FFFF8
7FFFF4
0B0000
0D0000
040000
ENDCHAR
STARTCHAR lessequal
ENCODING 8804
SWIDTH 508 0
DWIDTH 12 0
BBX 11 13 0 0
BITMAP
000024
0006F4
007FE0
0BF900
3E4000
3F4000
07F900
006FE0
0006F4
000024
000000
6AAAA4
7FFFF8
ENDCHAR
STARTCHAR greaterequal
ENCODING 8805
SWIDTH 522 0
DWIDTH 13 0
BBX 11 13 1 0
BITMAP
640000
7E4000
1BF800
00BF90
0006F8
0006F8
01BF90
2FF400
7E4000
600000
000000
6AAAA4
7FFFF4
ENDCHAR
STARTCHAR lozenge
ENCODING 9674
SWIDTH 503 0
DWIDTH 12 0
BBX 12 17 0 0
BITMAP
003C00
00BE00
01FF40
02D780
07C2D0
0B41F0
1E00B4
3D007C
7C002D
3D007C
1E00B4
0B41F0
07C2D0
02D780
01FF40
00BE00
003D00
ENDCHAR
STARTCHAR uniEE01
ENCODING 60929
SWIDTH 287 0
DWIDTH 7 0
BBX 3 13 2 2
BITMAP
64
B8
B4
00
00
00
00
00
00
00
64
B8
B4
ENDCHAR
STARTCHAR uniEE02
ENCODING 60930
SWIDTH 319 0
DWIDTH 8 0
BBX 6 5 1 8
BITMAP
B0E0
B0E0
B0E0
B0E0
B0E0
ENDCHAR
STARTCHAR uniF6C3
ENCODING 63171
SWIDTH 251 0
DWIDTH 6 0
BBX 3 5 1 -2
BITMAP
3C
3C
78
B4
60
ENDCHAR
STARTCHAR uniFB01
ENCODING 64257
SWIDTH 553 0
DWIDTH 13 0
BBX 12 18 0 0
BITMAP
006FA0
02FFF4
07D010
0B8000
0B8000
BFFC2D
6FE82D
0B802D
0B802D
0B802D
0B802D
0B802D
0B802D
0B802D
0B802D
0B802D
0B802D
0B802D
ENDCHAR
STARTCHAR uniFB02
ENCODING 64258
SWIDTH 567 0
DWIDTH 14 0
BBX 12 18 0 0
BITMAP
006FE9
02FFFE
03D01E
07C01E
07C01E
7FFE1E
6BE91E
07C01E
07C01E
07C01E
07C01E
07C01E
07C01E
07C01E
07C01E
07C01E
07C01E
07C01E
ENDCHAR
STARTCHAR uniFB03
ENCODING 64259
SWIDTH 853 0
DWIDTH 20 0
BBX 19 18 0 0
BITMAP
006F41BF90
02FF4BFFD0
03D01F4040
07C01F0000
07C01E0000
7FFFFFF4B8
6BEAAFA4B8
07C01E00B8
07C01E00B8
07C01E00B8
07C01E00B8
07C01E00B8
07C01E00B8
07C01E00B8
07C01E00B8
07C01E00B8
07C01E00B8
07C01E00B8
ENDCHAR
STARTCHAR uniFB04
ENCODING 64260
SWIDTH 853 0
DWIDTH 20 0
BBX 19 18 0 0
BITMAP
006F41BFA4
02FF4BFFF8
03D01F40B8
07C01E00B8
07C01E00B8
7FFFFFF4B8
6BEAAFA4B8
07C01E00B8
07C01E00B8
07C01E00B8
07C01E00B8
07C01E00B8
07C01E00B8
07C01E00B8
07C01E00B8
07C01E00B8
07C01E00B8
07C01E00B8
ENDCHAR
STARTCHAR uniFEFF
ENCODING 65279
SWIDTH 0 0
DWIDTH 0 0
BBX 1 1 0 0
BITMAP
00
ENDCHAR
ENDFONT
